%TF.GenerationSoftware,KiCad,Pcbnew,7.0.6-7.0.6~ubuntu22.04.1*%
%TF.CreationDate,2023-09-10T12:00:18+02:00*%
%TF.ProjectId,RFAmp,5246416d-702e-46b6-9963-61645f706362,rev?*%
%TF.SameCoordinates,Original*%
%TF.FileFunction,Soldermask,Top*%
%TF.FilePolarity,Negative*%
%FSLAX46Y46*%
G04 Gerber Fmt 4.6, Leading zero omitted, Abs format (unit mm)*
G04 Created by KiCad (PCBNEW 7.0.6-7.0.6~ubuntu22.04.1) date 2023-09-10 12:00:18*
%MOMM*%
%LPD*%
G01*
G04 APERTURE LIST*
G04 Aperture macros list*
%AMRoundRect*
0 Rectangle with rounded corners*
0 $1 Rounding radius*
0 $2 $3 $4 $5 $6 $7 $8 $9 X,Y pos of 4 corners*
0 Add a 4 corners polygon primitive as box body*
4,1,4,$2,$3,$4,$5,$6,$7,$8,$9,$2,$3,0*
0 Add four circle primitives for the rounded corners*
1,1,$1+$1,$2,$3*
1,1,$1+$1,$4,$5*
1,1,$1+$1,$6,$7*
1,1,$1+$1,$8,$9*
0 Add four rect primitives between the rounded corners*
20,1,$1+$1,$2,$3,$4,$5,0*
20,1,$1+$1,$4,$5,$6,$7,0*
20,1,$1+$1,$6,$7,$8,$9,0*
20,1,$1+$1,$8,$9,$2,$3,0*%
%AMFreePoly0*
4,1,9,3.862500,-0.866500,0.737500,-0.866500,0.737500,-0.450000,-0.737500,-0.450000,-0.737500,0.450000,0.737500,0.450000,0.737500,0.866500,3.862500,0.866500,3.862500,-0.866500,3.862500,-0.866500,$1*%
G04 Aperture macros list end*
%ADD10RoundRect,0.200000X0.200000X0.275000X-0.200000X0.275000X-0.200000X-0.275000X0.200000X-0.275000X0*%
%ADD11R,5.080000X1.500000*%
%ADD12RoundRect,0.225000X-0.375000X0.225000X-0.375000X-0.225000X0.375000X-0.225000X0.375000X0.225000X0*%
%ADD13RoundRect,0.225000X-0.250000X0.225000X-0.250000X-0.225000X0.250000X-0.225000X0.250000X0.225000X0*%
%ADD14RoundRect,0.243750X0.243750X0.456250X-0.243750X0.456250X-0.243750X-0.456250X0.243750X-0.456250X0*%
%ADD15RoundRect,0.250000X-0.850000X-0.350000X0.850000X-0.350000X0.850000X0.350000X-0.850000X0.350000X0*%
%ADD16RoundRect,0.249997X-2.950003X-2.650003X2.950003X-2.650003X2.950003X2.650003X-2.950003X2.650003X0*%
%ADD17RoundRect,0.150000X0.150000X-0.512500X0.150000X0.512500X-0.150000X0.512500X-0.150000X-0.512500X0*%
%ADD18R,1.500000X1.500000*%
%ADD19RoundRect,0.250000X1.075000X-0.312500X1.075000X0.312500X-1.075000X0.312500X-1.075000X-0.312500X0*%
%ADD20RoundRect,0.225000X0.250000X-0.225000X0.250000X0.225000X-0.250000X0.225000X-0.250000X-0.225000X0*%
%ADD21RoundRect,0.200000X-0.200000X-0.275000X0.200000X-0.275000X0.200000X0.275000X-0.200000X0.275000X0*%
%ADD22R,0.900000X1.300000*%
%ADD23FreePoly0,90.000000*%
%ADD24O,1.600000X1.000000*%
%ADD25O,2.100000X1.000000*%
%ADD26R,1.450000X0.600000*%
%ADD27R,1.450000X0.300000*%
%ADD28C,0.650000*%
%ADD29RoundRect,0.200000X0.275000X-0.200000X0.275000X0.200000X-0.275000X0.200000X-0.275000X-0.200000X0*%
%ADD30RoundRect,0.250000X-0.325000X-0.650000X0.325000X-0.650000X0.325000X0.650000X-0.325000X0.650000X0*%
%ADD31RoundRect,0.225000X0.225000X0.250000X-0.225000X0.250000X-0.225000X-0.250000X0.225000X-0.250000X0*%
%ADD32RoundRect,0.038000X0.342000X0.597000X-0.342000X0.597000X-0.342000X-0.597000X0.342000X-0.597000X0*%
%ADD33RoundRect,0.112500X-0.112500X0.187500X-0.112500X-0.187500X0.112500X-0.187500X0.112500X0.187500X0*%
%ADD34RoundRect,0.250000X-0.250000X-0.475000X0.250000X-0.475000X0.250000X0.475000X-0.250000X0.475000X0*%
%ADD35R,6.200000X3.900000*%
%ADD36R,4.400000X3.300000*%
%ADD37C,2.000000*%
%ADD38RoundRect,0.250001X-1.074999X0.462499X-1.074999X-0.462499X1.074999X-0.462499X1.074999X0.462499X0*%
%ADD39RoundRect,0.112500X0.187500X0.112500X-0.187500X0.112500X-0.187500X-0.112500X0.187500X-0.112500X0*%
%ADD40RoundRect,0.250000X0.650000X-0.325000X0.650000X0.325000X-0.650000X0.325000X-0.650000X-0.325000X0*%
%ADD41RoundRect,0.225000X-0.225000X-0.375000X0.225000X-0.375000X0.225000X0.375000X-0.225000X0.375000X0*%
%ADD42RoundRect,0.225000X0.375000X-0.225000X0.375000X0.225000X-0.375000X0.225000X-0.375000X-0.225000X0*%
G04 APERTURE END LIST*
D10*
%TO.C,R1*%
X121325000Y-117400000D03*
X119675000Y-117400000D03*
%TD*%
D11*
%TO.C,J1*%
X104562500Y-129750000D03*
X104562500Y-138250000D03*
X104562500Y-134000000D03*
%TD*%
D12*
%TO.C,D3*%
X119200000Y-110650000D03*
X119200000Y-113950000D03*
%TD*%
D13*
%TO.C,C1*%
X121750000Y-111975000D03*
X121750000Y-113525000D03*
%TD*%
D11*
%TO.C,J2*%
X146437500Y-134000000D03*
X146437500Y-129750000D03*
X146437500Y-138250000D03*
%TD*%
D14*
%TO.C,LED1*%
X121487500Y-119600000D03*
X119612500Y-119600000D03*
%TD*%
D15*
%TO.C,U2*%
X124200000Y-116480000D03*
D16*
X130500000Y-114200000D03*
D15*
X124200000Y-111920000D03*
%TD*%
D17*
%TO.C,U3*%
X114450000Y-106937500D03*
X115400000Y-106937500D03*
X116350000Y-106937500D03*
X116350000Y-104662500D03*
X114450000Y-104662500D03*
%TD*%
D18*
%TO.C,TP3*%
X116750000Y-116400000D03*
%TD*%
D19*
%TO.C,R2*%
X127600000Y-124262500D03*
X127600000Y-121337500D03*
%TD*%
D20*
%TO.C,C9*%
X120400000Y-108575000D03*
X120400000Y-107025000D03*
%TD*%
D21*
%TO.C,R4*%
X109375000Y-113400000D03*
X111025000Y-113400000D03*
%TD*%
D22*
%TO.C,U1*%
X119500000Y-133950000D03*
D23*
X121000000Y-133862500D03*
D22*
X122500000Y-133950000D03*
%TD*%
D21*
%TO.C,R5*%
X102975000Y-118800000D03*
X104625000Y-118800000D03*
%TD*%
D18*
%TO.C,TP2*%
X106200000Y-102850000D03*
%TD*%
D24*
%TO.C,J4*%
X101950000Y-116320000D03*
D25*
X106130000Y-116320000D03*
D24*
X101950000Y-107680000D03*
D25*
X106130000Y-107680000D03*
D26*
X107045000Y-108750000D03*
X107045000Y-109550000D03*
D27*
X107045000Y-110250000D03*
X107045000Y-111250000D03*
X107045000Y-112750000D03*
X107045000Y-113750000D03*
D26*
X107045000Y-114450000D03*
X107045000Y-115250000D03*
X107045000Y-115250000D03*
X107045000Y-114450000D03*
D27*
X107045000Y-113250000D03*
X107045000Y-112250000D03*
X107045000Y-111750000D03*
X107045000Y-110750000D03*
D26*
X107045000Y-109550000D03*
X107045000Y-108750000D03*
D28*
X105600000Y-114890000D03*
X105600000Y-109110000D03*
%TD*%
D29*
%TO.C,R6*%
X118600000Y-108625000D03*
X118600000Y-106975000D03*
%TD*%
D30*
%TO.C,C3*%
X123925000Y-109200000D03*
X126875000Y-109200000D03*
%TD*%
D31*
%TO.C,C2*%
X126575000Y-119600000D03*
X125025000Y-119600000D03*
%TD*%
D32*
%TO.C,L1*%
X131270000Y-131400000D03*
X128730000Y-131400000D03*
X128730000Y-128600000D03*
X131270000Y-128600000D03*
%TD*%
D33*
%TO.C,D1*%
X135500000Y-107150000D03*
X135500000Y-109250000D03*
%TD*%
D34*
%TO.C,C8*%
X137050000Y-134000000D03*
X138950000Y-134000000D03*
%TD*%
D30*
%TO.C,C4*%
X129525000Y-119500000D03*
X132475000Y-119500000D03*
%TD*%
D21*
%TO.C,R3*%
X109375000Y-111000000D03*
X111025000Y-111000000D03*
%TD*%
D35*
%TO.C,J3*%
X146100000Y-107050000D03*
X146100000Y-119950000D03*
D36*
X137100000Y-112800000D03*
D37*
X149900000Y-113500000D03*
%TD*%
D29*
%TO.C,R7*%
X118800000Y-105225000D03*
X118800000Y-103575000D03*
%TD*%
D38*
%TO.C,L2*%
X111000000Y-103312500D03*
X111000000Y-106287500D03*
%TD*%
D39*
%TO.C,D5*%
X111250000Y-109000000D03*
X109150000Y-109000000D03*
%TD*%
D30*
%TO.C,C5*%
X113925000Y-102400000D03*
X116875000Y-102400000D03*
%TD*%
D40*
%TO.C,C6*%
X116200000Y-112075000D03*
X116200000Y-109125000D03*
%TD*%
D41*
%TO.C,D2*%
X125300000Y-106700000D03*
X128600000Y-106700000D03*
%TD*%
D34*
%TO.C,C7*%
X112050000Y-134000000D03*
X113950000Y-134000000D03*
%TD*%
D18*
%TO.C,TP4*%
X130000000Y-102875000D03*
%TD*%
%TO.C,TP1*%
X113200000Y-116400000D03*
%TD*%
D42*
%TO.C,D4*%
X113600000Y-112250000D03*
X113600000Y-108950000D03*
%TD*%
G36*
X150943039Y-100019685D02*
G01*
X150988794Y-100072489D01*
X151000000Y-100124000D01*
X151000000Y-107376000D01*
X150980315Y-107443039D01*
X150927511Y-107488794D01*
X150876000Y-107500000D01*
X149824000Y-107500000D01*
X149756961Y-107480315D01*
X149711206Y-107427511D01*
X149700000Y-107376000D01*
X149700000Y-105000000D01*
X146124000Y-105000000D01*
X146056961Y-104980315D01*
X146011206Y-104927511D01*
X146000000Y-104876000D01*
X146000000Y-101200000D01*
X127000000Y-101200000D01*
X127000000Y-104876000D01*
X126980315Y-104943039D01*
X126927511Y-104988794D01*
X126876000Y-105000000D01*
X123124000Y-105000000D01*
X123056961Y-104980315D01*
X123011206Y-104927511D01*
X123000000Y-104876000D01*
X123000000Y-101200000D01*
X105000000Y-101200000D01*
X105000000Y-104876000D01*
X104980315Y-104943039D01*
X104927511Y-104988794D01*
X104876000Y-105000000D01*
X101200000Y-105000000D01*
X101200000Y-106376000D01*
X101180315Y-106443039D01*
X101127511Y-106488794D01*
X101076000Y-106500000D01*
X100124000Y-106500000D01*
X100056961Y-106480315D01*
X100011206Y-106427511D01*
X100000000Y-106376000D01*
X100000000Y-100124000D01*
X100019685Y-100056961D01*
X100072489Y-100011206D01*
X100124000Y-100000000D01*
X150876000Y-100000000D01*
X150943039Y-100019685D01*
G37*
G36*
X150943039Y-125219685D02*
G01*
X150988794Y-125272489D01*
X151000000Y-125324000D01*
X151000000Y-127876000D01*
X150980315Y-127943039D01*
X150927511Y-127988794D01*
X150876000Y-128000000D01*
X149924000Y-128000000D01*
X149856961Y-127980315D01*
X149811206Y-127927511D01*
X149800000Y-127876000D01*
X149800000Y-126400000D01*
X128624000Y-126400000D01*
X128556961Y-126380315D01*
X128511206Y-126327511D01*
X128500000Y-126276000D01*
X128500000Y-125324000D01*
X128519685Y-125256961D01*
X128572489Y-125211206D01*
X128624000Y-125200000D01*
X150876000Y-125200000D01*
X150943039Y-125219685D01*
G37*
G36*
X101143039Y-124969685D02*
G01*
X101188794Y-125022489D01*
X101200000Y-125074000D01*
X101200000Y-125200000D01*
X126576000Y-125200000D01*
X126643039Y-125219685D01*
X126688794Y-125272489D01*
X126700000Y-125324000D01*
X126700000Y-126276000D01*
X126680315Y-126343039D01*
X126627511Y-126388794D01*
X126576000Y-126400000D01*
X101200000Y-126400000D01*
X101189885Y-127876849D01*
X101169742Y-127943752D01*
X101116626Y-127989145D01*
X101065888Y-128000000D01*
X100124000Y-128000000D01*
X100056961Y-127980315D01*
X100011206Y-127927511D01*
X100000000Y-127876000D01*
X100000000Y-125074000D01*
X100019685Y-125006961D01*
X100072489Y-124961206D01*
X100124000Y-124950000D01*
X101076000Y-124950000D01*
X101143039Y-124969685D01*
G37*
G36*
X101049036Y-140019685D02*
G01*
X101094791Y-140072489D01*
X101105994Y-140124849D01*
X101100000Y-141000000D01*
X104876000Y-141000000D01*
X104943039Y-141019685D01*
X104988794Y-141072489D01*
X105000000Y-141124000D01*
X105000000Y-144800000D01*
X123000000Y-144700000D01*
X123000000Y-141124000D01*
X123019685Y-141056961D01*
X123072489Y-141011206D01*
X123124000Y-141000000D01*
X126876000Y-141000000D01*
X126943039Y-141019685D01*
X126988794Y-141072489D01*
X127000000Y-141124000D01*
X127000000Y-144800000D01*
X146000000Y-144800000D01*
X146000000Y-141124000D01*
X146019685Y-141056961D01*
X146072489Y-141011206D01*
X146124000Y-141000000D01*
X149800000Y-141000000D01*
X149800000Y-140124000D01*
X149819685Y-140056961D01*
X149872489Y-140011206D01*
X149924000Y-140000000D01*
X150876000Y-140000000D01*
X150943039Y-140019685D01*
X150988794Y-140072489D01*
X151000000Y-140124000D01*
X151000000Y-145876000D01*
X150980315Y-145943039D01*
X150927511Y-145988794D01*
X150876000Y-146000000D01*
X100124000Y-146000000D01*
X100056961Y-145980315D01*
X100011206Y-145927511D01*
X100000000Y-145876000D01*
X100000000Y-140124000D01*
X100019685Y-140056961D01*
X100072489Y-140011206D01*
X100124000Y-140000000D01*
X100981997Y-140000000D01*
X101049036Y-140019685D01*
G37*
G36*
X149243039Y-131619685D02*
G01*
X149288794Y-131672489D01*
X149300000Y-131724000D01*
X149300000Y-136276000D01*
X149280315Y-136343039D01*
X149227511Y-136388794D01*
X149176000Y-136400000D01*
X101824000Y-136400000D01*
X101756961Y-136380315D01*
X101711206Y-136327511D01*
X101700000Y-136276000D01*
X101700000Y-131724000D01*
X101719685Y-131656961D01*
X101772489Y-131611206D01*
X101824000Y-131600000D01*
X149176000Y-131600000D01*
X149243039Y-131619685D01*
G37*
G36*
X101143039Y-117519685D02*
G01*
X101188794Y-117572489D01*
X101200000Y-117624000D01*
X101200000Y-125200000D01*
X101323514Y-125200000D01*
X101390553Y-125219685D01*
X101436308Y-125272489D01*
X101446252Y-125341647D01*
X101446145Y-125342373D01*
X101445618Y-125345892D01*
X101444444Y-125351772D01*
X101439976Y-125369613D01*
X101438207Y-125375443D01*
X101431996Y-125392801D01*
X101429667Y-125398423D01*
X101421783Y-125415093D01*
X101418913Y-125420462D01*
X101409432Y-125436281D01*
X101406050Y-125441342D01*
X101395071Y-125456146D01*
X101391210Y-125460851D01*
X101378826Y-125474516D01*
X101374516Y-125478826D01*
X101360851Y-125491210D01*
X101356146Y-125495071D01*
X101341342Y-125506050D01*
X101336281Y-125509432D01*
X101320462Y-125518913D01*
X101315093Y-125521783D01*
X101298423Y-125529667D01*
X101292801Y-125531996D01*
X101275443Y-125538207D01*
X101269613Y-125539976D01*
X101251727Y-125544455D01*
X101245756Y-125545643D01*
X101227519Y-125548348D01*
X101221466Y-125548944D01*
X101201517Y-125549925D01*
X101198471Y-125550000D01*
X100124000Y-125550000D01*
X100056961Y-125530315D01*
X100011206Y-125477511D01*
X100000000Y-125426000D01*
X100000000Y-117624000D01*
X100019685Y-117556961D01*
X100072489Y-117511206D01*
X100124000Y-117500000D01*
X101076000Y-117500000D01*
X101143039Y-117519685D01*
G37*
M02*
