%TF.GenerationSoftware,KiCad,Pcbnew,7.0.6-7.0.6~ubuntu22.04.1*%
%TF.CreationDate,2023-09-10T12:00:17+02:00*%
%TF.ProjectId,RFAmp,5246416d-702e-46b6-9963-61645f706362,rev?*%
%TF.SameCoordinates,Original*%
%TF.FileFunction,Copper,L1,Top*%
%TF.FilePolarity,Positive*%
%FSLAX46Y46*%
G04 Gerber Fmt 4.6, Leading zero omitted, Abs format (unit mm)*
G04 Created by KiCad (PCBNEW 7.0.6-7.0.6~ubuntu22.04.1) date 2023-09-10 12:00:17*
%MOMM*%
%LPD*%
G01*
G04 APERTURE LIST*
G04 Aperture macros list*
%AMRoundRect*
0 Rectangle with rounded corners*
0 $1 Rounding radius*
0 $2 $3 $4 $5 $6 $7 $8 $9 X,Y pos of 4 corners*
0 Add a 4 corners polygon primitive as box body*
4,1,4,$2,$3,$4,$5,$6,$7,$8,$9,$2,$3,0*
0 Add four circle primitives for the rounded corners*
1,1,$1+$1,$2,$3*
1,1,$1+$1,$4,$5*
1,1,$1+$1,$6,$7*
1,1,$1+$1,$8,$9*
0 Add four rect primitives between the rounded corners*
20,1,$1+$1,$2,$3,$4,$5,0*
20,1,$1+$1,$4,$5,$6,$7,0*
20,1,$1+$1,$6,$7,$8,$9,0*
20,1,$1+$1,$8,$9,$2,$3,0*%
%AMFreePoly0*
4,1,9,3.862500,-0.866500,0.737500,-0.866500,0.737500,-0.450000,-0.737500,-0.450000,-0.737500,0.450000,0.737500,0.450000,0.737500,0.866500,3.862500,0.866500,3.862500,-0.866500,3.862500,-0.866500,$1*%
G04 Aperture macros list end*
%TA.AperFunction,SMDPad,CuDef*%
%ADD10RoundRect,0.200000X0.200000X0.275000X-0.200000X0.275000X-0.200000X-0.275000X0.200000X-0.275000X0*%
%TD*%
%TA.AperFunction,SMDPad,CuDef*%
%ADD11R,5.080000X1.500000*%
%TD*%
%TA.AperFunction,SMDPad,CuDef*%
%ADD12RoundRect,0.225000X-0.375000X0.225000X-0.375000X-0.225000X0.375000X-0.225000X0.375000X0.225000X0*%
%TD*%
%TA.AperFunction,SMDPad,CuDef*%
%ADD13RoundRect,0.225000X-0.250000X0.225000X-0.250000X-0.225000X0.250000X-0.225000X0.250000X0.225000X0*%
%TD*%
%TA.AperFunction,SMDPad,CuDef*%
%ADD14RoundRect,0.243750X0.243750X0.456250X-0.243750X0.456250X-0.243750X-0.456250X0.243750X-0.456250X0*%
%TD*%
%TA.AperFunction,SMDPad,CuDef*%
%ADD15RoundRect,0.250000X-0.850000X-0.350000X0.850000X-0.350000X0.850000X0.350000X-0.850000X0.350000X0*%
%TD*%
%TA.AperFunction,SMDPad,CuDef*%
%ADD16RoundRect,0.250000X-1.275000X-1.125000X1.275000X-1.125000X1.275000X1.125000X-1.275000X1.125000X0*%
%TD*%
%TA.AperFunction,SMDPad,CuDef*%
%ADD17RoundRect,0.249997X-2.950003X-2.650003X2.950003X-2.650003X2.950003X2.650003X-2.950003X2.650003X0*%
%TD*%
%TA.AperFunction,SMDPad,CuDef*%
%ADD18RoundRect,0.150000X0.150000X-0.512500X0.150000X0.512500X-0.150000X0.512500X-0.150000X-0.512500X0*%
%TD*%
%TA.AperFunction,ComponentPad*%
%ADD19R,1.500000X1.500000*%
%TD*%
%TA.AperFunction,SMDPad,CuDef*%
%ADD20RoundRect,0.250000X1.075000X-0.312500X1.075000X0.312500X-1.075000X0.312500X-1.075000X-0.312500X0*%
%TD*%
%TA.AperFunction,SMDPad,CuDef*%
%ADD21RoundRect,0.225000X0.250000X-0.225000X0.250000X0.225000X-0.250000X0.225000X-0.250000X-0.225000X0*%
%TD*%
%TA.AperFunction,SMDPad,CuDef*%
%ADD22RoundRect,0.200000X-0.200000X-0.275000X0.200000X-0.275000X0.200000X0.275000X-0.200000X0.275000X0*%
%TD*%
%TA.AperFunction,SMDPad,CuDef*%
%ADD23R,0.900000X1.300000*%
%TD*%
%TA.AperFunction,SMDPad,CuDef*%
%ADD24FreePoly0,90.000000*%
%TD*%
%TA.AperFunction,ComponentPad*%
%ADD25O,1.600000X1.000000*%
%TD*%
%TA.AperFunction,ComponentPad*%
%ADD26O,2.100000X1.000000*%
%TD*%
%TA.AperFunction,SMDPad,CuDef*%
%ADD27R,1.450000X0.600000*%
%TD*%
%TA.AperFunction,SMDPad,CuDef*%
%ADD28R,1.450000X0.300000*%
%TD*%
%TA.AperFunction,SMDPad,CuDef*%
%ADD29RoundRect,0.200000X0.275000X-0.200000X0.275000X0.200000X-0.275000X0.200000X-0.275000X-0.200000X0*%
%TD*%
%TA.AperFunction,SMDPad,CuDef*%
%ADD30RoundRect,0.250000X-0.325000X-0.650000X0.325000X-0.650000X0.325000X0.650000X-0.325000X0.650000X0*%
%TD*%
%TA.AperFunction,SMDPad,CuDef*%
%ADD31RoundRect,0.225000X0.225000X0.250000X-0.225000X0.250000X-0.225000X-0.250000X0.225000X-0.250000X0*%
%TD*%
%TA.AperFunction,SMDPad,CuDef*%
%ADD32RoundRect,0.038000X0.342000X0.597000X-0.342000X0.597000X-0.342000X-0.597000X0.342000X-0.597000X0*%
%TD*%
%TA.AperFunction,SMDPad,CuDef*%
%ADD33RoundRect,0.112500X-0.112500X0.187500X-0.112500X-0.187500X0.112500X-0.187500X0.112500X0.187500X0*%
%TD*%
%TA.AperFunction,SMDPad,CuDef*%
%ADD34RoundRect,0.250000X-0.250000X-0.475000X0.250000X-0.475000X0.250000X0.475000X-0.250000X0.475000X0*%
%TD*%
%TA.AperFunction,SMDPad,CuDef*%
%ADD35R,6.200000X3.900000*%
%TD*%
%TA.AperFunction,SMDPad,CuDef*%
%ADD36R,4.400000X3.300000*%
%TD*%
%TA.AperFunction,SMDPad,CuDef*%
%ADD37RoundRect,0.250001X-1.074999X0.462499X-1.074999X-0.462499X1.074999X-0.462499X1.074999X0.462499X0*%
%TD*%
%TA.AperFunction,SMDPad,CuDef*%
%ADD38RoundRect,0.112500X0.187500X0.112500X-0.187500X0.112500X-0.187500X-0.112500X0.187500X-0.112500X0*%
%TD*%
%TA.AperFunction,SMDPad,CuDef*%
%ADD39RoundRect,0.250000X0.650000X-0.325000X0.650000X0.325000X-0.650000X0.325000X-0.650000X-0.325000X0*%
%TD*%
%TA.AperFunction,SMDPad,CuDef*%
%ADD40RoundRect,0.225000X-0.225000X-0.375000X0.225000X-0.375000X0.225000X0.375000X-0.225000X0.375000X0*%
%TD*%
%TA.AperFunction,SMDPad,CuDef*%
%ADD41RoundRect,0.225000X0.375000X-0.225000X0.375000X0.225000X-0.375000X0.225000X-0.375000X-0.225000X0*%
%TD*%
%TA.AperFunction,ViaPad*%
%ADD42C,0.800000*%
%TD*%
%TA.AperFunction,ViaPad*%
%ADD43C,4.000000*%
%TD*%
%TA.AperFunction,Conductor*%
%ADD44C,1.000000*%
%TD*%
%TA.AperFunction,Conductor*%
%ADD45C,0.300000*%
%TD*%
%TA.AperFunction,Conductor*%
%ADD46C,0.500000*%
%TD*%
%TA.AperFunction,Conductor*%
%ADD47C,0.800000*%
%TD*%
%TA.AperFunction,Conductor*%
%ADD48C,1.600000*%
%TD*%
%TA.AperFunction,Conductor*%
%ADD49C,0.250000*%
%TD*%
%TA.AperFunction,Conductor*%
%ADD50C,1.439000*%
%TD*%
G04 APERTURE END LIST*
D10*
%TO.P,R1,1*%
%TO.N,+8V*%
X121325000Y-117400000D03*
%TO.P,R1,2*%
%TO.N,Net-(LED1-A)*%
X119675000Y-117400000D03*
%TD*%
D11*
%TO.P,J1,2,Ext*%
%TO.N,GND*%
X104562500Y-129750000D03*
X104562500Y-138250000D03*
%TO.P,J1,1,In*%
%TO.N,/RFin*%
X104562500Y-134000000D03*
%TD*%
D12*
%TO.P,D3,1,K*%
%TO.N,Net-(D2-K)*%
X119200000Y-110650000D03*
%TO.P,D3,2,A*%
%TO.N,+12V*%
X119200000Y-113950000D03*
%TD*%
D13*
%TO.P,C1,1*%
%TO.N,Net-(D2-K)*%
X121750000Y-111975000D03*
%TO.P,C1,2*%
%TO.N,GND*%
X121750000Y-113525000D03*
%TD*%
D11*
%TO.P,J2,1,In*%
%TO.N,/RFout*%
X146437500Y-134000000D03*
%TO.P,J2,2,Ext*%
%TO.N,GND*%
X146437500Y-129750000D03*
X146437500Y-138250000D03*
%TD*%
D14*
%TO.P,LED1,1,K*%
%TO.N,GND*%
X121487500Y-119600000D03*
%TO.P,LED1,2,A*%
%TO.N,Net-(LED1-A)*%
X119612500Y-119600000D03*
%TD*%
D15*
%TO.P,U2,3,VO*%
%TO.N,+8V*%
X124200000Y-116480000D03*
D16*
%TO.P,U2,2,GND*%
%TO.N,GND*%
X132175000Y-115725000D03*
X132175000Y-112675000D03*
D17*
X130500000Y-114200000D03*
D16*
X128825000Y-115725000D03*
X128825000Y-112675000D03*
D15*
%TO.P,U2,1,VI*%
%TO.N,Net-(D2-K)*%
X124200000Y-111920000D03*
%TD*%
D18*
%TO.P,U3,1,SW*%
%TO.N,Net-(D4-A)*%
X114450000Y-106937500D03*
%TO.P,U3,2,GND*%
%TO.N,GND*%
X115400000Y-106937500D03*
%TO.P,U3,3,FB*%
%TO.N,Net-(U3-FB)*%
X116350000Y-106937500D03*
%TO.P,U3,4,EN*%
%TO.N,/VBUS*%
X116350000Y-104662500D03*
%TO.P,U3,5,VIN*%
X114450000Y-104662500D03*
%TD*%
D19*
%TO.P,TP3,1,1*%
%TO.N,+8V*%
X116750000Y-116400000D03*
%TD*%
D20*
%TO.P,R2,1*%
%TO.N,Net-(L1-Pad3)*%
X127600000Y-124262500D03*
%TO.P,R2,2*%
%TO.N,+8V*%
X127600000Y-121337500D03*
%TD*%
D21*
%TO.P,C9,1*%
%TO.N,+12V*%
X120400000Y-108575000D03*
%TO.P,C9,2*%
%TO.N,Net-(U3-FB)*%
X120400000Y-107025000D03*
%TD*%
D22*
%TO.P,R4,1*%
%TO.N,Net-(J4-CC2)*%
X109375000Y-113400000D03*
%TO.P,R4,2*%
%TO.N,GND*%
X111025000Y-113400000D03*
%TD*%
D23*
%TO.P,U1,1*%
%TO.N,/Gin*%
X119500000Y-133950000D03*
D24*
%TO.P,U1,2,GND*%
%TO.N,GND*%
X121000000Y-133862500D03*
D23*
%TO.P,U1,3*%
%TO.N,/Gout*%
X122500000Y-133950000D03*
%TD*%
D22*
%TO.P,R5,1*%
%TO.N,Net-(J4-SHIELD)*%
X102975000Y-118800000D03*
%TO.P,R5,2*%
%TO.N,GND*%
X104625000Y-118800000D03*
%TD*%
D19*
%TO.P,TP2,1,1*%
%TO.N,/VBUS*%
X106200000Y-102850000D03*
%TD*%
D25*
%TO.P,J4,S1,SHIELD*%
%TO.N,Net-(J4-SHIELD)*%
X101950000Y-116320000D03*
D26*
X106130000Y-116320000D03*
D25*
X101950000Y-107680000D03*
D26*
X106130000Y-107680000D03*
D27*
%TO.P,J4,B12,GND*%
%TO.N,GND*%
X107045000Y-108750000D03*
%TO.P,J4,B9,VBUS*%
%TO.N,/VBUS*%
X107045000Y-109550000D03*
D28*
%TO.P,J4,B8,SBU2*%
%TO.N,unconnected-(J4-SBU2-PadB8)*%
X107045000Y-110250000D03*
%TO.P,J4,B7,D-*%
%TO.N,unconnected-(J4-D--PadB7)*%
X107045000Y-111250000D03*
%TO.P,J4,B6,D+*%
%TO.N,unconnected-(J4-D+-PadB6)*%
X107045000Y-112750000D03*
%TO.P,J4,B5,CC2*%
%TO.N,Net-(J4-CC2)*%
X107045000Y-113750000D03*
D27*
%TO.P,J4,B4,VBUS*%
%TO.N,/VBUS*%
X107045000Y-114450000D03*
%TO.P,J4,B1,GND*%
%TO.N,GND*%
X107045000Y-115250000D03*
%TO.P,J4,A12,GND*%
X107045000Y-115250000D03*
%TO.P,J4,A9,VBUS*%
%TO.N,/VBUS*%
X107045000Y-114450000D03*
D28*
%TO.P,J4,A8,SBU1*%
%TO.N,unconnected-(J4-SBU1-PadA8)*%
X107045000Y-113250000D03*
%TO.P,J4,A7,D-*%
%TO.N,unconnected-(J4-D--PadA7)*%
X107045000Y-112250000D03*
%TO.P,J4,A6,D+*%
%TO.N,unconnected-(J4-D+-PadA6)*%
X107045000Y-111750000D03*
%TO.P,J4,A5,CC1*%
%TO.N,Net-(J4-CC1)*%
X107045000Y-110750000D03*
D27*
%TO.P,J4,A4,VBUS*%
%TO.N,/VBUS*%
X107045000Y-109550000D03*
%TO.P,J4,A1,GND*%
%TO.N,GND*%
X107045000Y-108750000D03*
%TD*%
D29*
%TO.P,R6,1*%
%TO.N,+12V*%
X118600000Y-108625000D03*
%TO.P,R6,2*%
%TO.N,Net-(U3-FB)*%
X118600000Y-106975000D03*
%TD*%
D30*
%TO.P,C3,1*%
%TO.N,Net-(D2-K)*%
X123925000Y-109200000D03*
%TO.P,C3,2*%
%TO.N,GND*%
X126875000Y-109200000D03*
%TD*%
D31*
%TO.P,C2,1*%
%TO.N,+8V*%
X126575000Y-119600000D03*
%TO.P,C2,2*%
%TO.N,GND*%
X125025000Y-119600000D03*
%TD*%
D32*
%TO.P,L1,1,1*%
%TO.N,/Gout*%
X131270000Y-131400000D03*
%TO.P,L1,2*%
%TO.N,N/C*%
X128730000Y-131400000D03*
%TO.P,L1,3,3*%
%TO.N,Net-(L1-Pad3)*%
X128730000Y-128600000D03*
%TO.P,L1,4*%
%TO.N,N/C*%
X131270000Y-128600000D03*
%TD*%
D33*
%TO.P,D1,1,A1*%
%TO.N,GND*%
X135500000Y-107150000D03*
%TO.P,D1,2,A2*%
%TO.N,/+10..15V*%
X135500000Y-109250000D03*
%TD*%
D34*
%TO.P,C8,1*%
%TO.N,/Gout*%
X137050000Y-134000000D03*
%TO.P,C8,2*%
%TO.N,/RFout*%
X138950000Y-134000000D03*
%TD*%
D30*
%TO.P,C4,1*%
%TO.N,+8V*%
X129525000Y-119500000D03*
%TO.P,C4,2*%
%TO.N,GND*%
X132475000Y-119500000D03*
%TD*%
D22*
%TO.P,R3,1*%
%TO.N,Net-(J4-CC1)*%
X109375000Y-111000000D03*
%TO.P,R3,2*%
%TO.N,GND*%
X111025000Y-111000000D03*
%TD*%
D35*
%TO.P,J3,3*%
%TO.N,GND*%
X146100000Y-107050000D03*
%TO.P,J3,2*%
%TO.N,unconnected-(J3-Pad2)*%
X146100000Y-119950000D03*
D36*
%TO.P,J3,1*%
%TO.N,/+10..15V*%
X137100000Y-112800000D03*
%TD*%
D29*
%TO.P,R7,1*%
%TO.N,Net-(U3-FB)*%
X118800000Y-105225000D03*
%TO.P,R7,2*%
%TO.N,GND*%
X118800000Y-103575000D03*
%TD*%
D37*
%TO.P,L2,1,1*%
%TO.N,/VBUS*%
X111000000Y-103312500D03*
%TO.P,L2,2,2*%
%TO.N,Net-(D4-A)*%
X111000000Y-106287500D03*
%TD*%
D38*
%TO.P,D5,1,A1*%
%TO.N,GND*%
X111250000Y-109000000D03*
%TO.P,D5,2,A2*%
%TO.N,/VBUS*%
X109150000Y-109000000D03*
%TD*%
D30*
%TO.P,C5,1*%
%TO.N,/VBUS*%
X113925000Y-102400000D03*
%TO.P,C5,2*%
%TO.N,GND*%
X116875000Y-102400000D03*
%TD*%
D39*
%TO.P,C6,1*%
%TO.N,+12V*%
X116200000Y-112075000D03*
%TO.P,C6,2*%
%TO.N,GND*%
X116200000Y-109125000D03*
%TD*%
D40*
%TO.P,D2,1,K*%
%TO.N,Net-(D2-K)*%
X125300000Y-106700000D03*
%TO.P,D2,2,A*%
%TO.N,/+10..15V*%
X128600000Y-106700000D03*
%TD*%
D34*
%TO.P,C7,1*%
%TO.N,/RFin*%
X112050000Y-134000000D03*
%TO.P,C7,2*%
%TO.N,/Gin*%
X113950000Y-134000000D03*
%TD*%
D19*
%TO.P,TP4,1,1*%
%TO.N,GND*%
X130000000Y-102875000D03*
%TD*%
%TO.P,TP1,1,1*%
%TO.N,+12V*%
X113200000Y-116400000D03*
%TD*%
D41*
%TO.P,D4,1,K*%
%TO.N,+12V*%
X113600000Y-112250000D03*
%TO.P,D4,2,A*%
%TO.N,Net-(D4-A)*%
X113600000Y-108950000D03*
%TD*%
D42*
%TO.N,GND*%
X143000000Y-100800000D03*
X140000000Y-100800000D03*
X136500000Y-100800000D03*
X133000000Y-100800000D03*
X130000000Y-100800000D03*
X120000000Y-100800000D03*
X117000000Y-100800000D03*
X111000000Y-100800000D03*
X108000000Y-100800000D03*
X150200000Y-105000000D03*
X146000000Y-100800000D03*
X127000000Y-100800000D03*
X123000000Y-100800000D03*
X105000000Y-100800000D03*
X150200000Y-107000000D03*
D43*
X148000000Y-103000000D03*
D42*
X130000000Y-145200000D03*
X133000000Y-145200000D03*
X136000000Y-145200000D03*
X139000000Y-145200000D03*
X111000000Y-145200000D03*
X114000000Y-145200000D03*
X117000000Y-145200000D03*
X133000000Y-130200000D03*
X133000000Y-128500000D03*
X127000000Y-128500000D03*
X127000000Y-130200000D03*
X128900000Y-126900000D03*
X126400000Y-126900000D03*
X118200000Y-132100000D03*
X104800000Y-132100000D03*
X103500000Y-132100000D03*
X103500000Y-135900000D03*
X104800000Y-135900000D03*
X130650000Y-118050000D03*
X131400000Y-107150000D03*
X126300000Y-135900000D03*
X150200000Y-145200000D03*
X120000000Y-145200000D03*
X115700000Y-132100000D03*
X116000000Y-121400000D03*
X128450000Y-109200000D03*
X125000000Y-118300000D03*
X122750000Y-129250000D03*
X111400000Y-115800000D03*
X145800000Y-135900000D03*
X104550000Y-139800000D03*
X124000000Y-132100000D03*
X143150000Y-138250000D03*
X138300000Y-132100000D03*
X107850000Y-129750000D03*
X125400000Y-109200000D03*
X113115586Y-110310978D03*
X100750000Y-118400000D03*
X116900000Y-132100000D03*
X111200000Y-108000000D03*
X114850000Y-110150000D03*
X111600000Y-125800000D03*
X108600000Y-115400000D03*
X134850000Y-119000000D03*
X147000000Y-132100000D03*
X147000000Y-135900000D03*
X139400000Y-125800000D03*
X108600000Y-116600000D03*
X133500000Y-135900000D03*
X121000000Y-135800000D03*
X121050000Y-129250000D03*
X126342630Y-111177702D03*
X113490547Y-114285467D03*
X146300000Y-128200000D03*
X132300000Y-135900000D03*
X134850000Y-116500000D03*
X143150000Y-129750000D03*
X104550000Y-136700000D03*
X109800000Y-135900000D03*
X108500000Y-104000000D03*
X118200000Y-135900000D03*
X111050000Y-112150000D03*
X115350000Y-108150000D03*
X111000000Y-135900000D03*
X146600000Y-125800000D03*
X104000000Y-121400000D03*
X119150000Y-129250000D03*
D43*
X148000000Y-143000000D03*
D42*
X141900000Y-132100000D03*
X138300000Y-135900000D03*
X117450000Y-105750000D03*
X137100000Y-132100000D03*
X133200000Y-105850000D03*
X134700000Y-135900000D03*
X107400000Y-135900000D03*
X115400000Y-105800000D03*
X104400000Y-125800000D03*
X140700000Y-132100000D03*
X122700000Y-135900000D03*
X145700000Y-132100000D03*
X125100000Y-135900000D03*
X119453434Y-112111151D03*
X135900000Y-135900000D03*
X104600000Y-128200000D03*
X133500000Y-132100000D03*
X145500000Y-145200000D03*
X106100000Y-132100000D03*
X126800000Y-107200000D03*
D43*
X125000000Y-143000000D03*
D42*
X123900000Y-135900000D03*
X125500000Y-132100000D03*
X114500000Y-132100000D03*
X142500000Y-145200000D03*
X107800000Y-106600000D03*
X127000000Y-132100000D03*
X132500000Y-121500000D03*
X118750000Y-102250000D03*
X108600000Y-135900000D03*
X112100000Y-132100000D03*
X128950000Y-110150000D03*
X106100000Y-135900000D03*
X110900000Y-132100000D03*
X115400000Y-102200000D03*
X123800000Y-119600000D03*
X112000000Y-121400000D03*
X105000000Y-145200000D03*
X144400000Y-132100000D03*
X127000000Y-145200000D03*
X137100000Y-135900000D03*
X134700000Y-132100000D03*
X123000000Y-145200000D03*
X132200000Y-125800000D03*
X139500000Y-132100000D03*
X107000000Y-118400000D03*
X107300000Y-132100000D03*
X134850000Y-121450000D03*
X104600000Y-120000000D03*
X115200000Y-125800000D03*
X108050000Y-107800000D03*
X108000000Y-125800000D03*
X150200000Y-140900000D03*
X129900000Y-135900000D03*
X129200000Y-125800000D03*
X141900000Y-135900000D03*
X131000000Y-119500000D03*
X118800000Y-125800000D03*
D43*
X103000000Y-143000000D03*
D42*
X107900000Y-138250000D03*
X127816352Y-117978803D03*
D43*
X125000000Y-103000000D03*
D42*
X120000000Y-121400000D03*
X126450000Y-114150000D03*
X100800000Y-100800000D03*
X131100000Y-135900000D03*
X100650000Y-140500000D03*
X121800000Y-114600000D03*
X122400000Y-125800000D03*
X144500000Y-135900000D03*
X117000000Y-114400000D03*
X143200000Y-135900000D03*
D43*
X103000000Y-103000000D03*
D42*
X127500000Y-135900000D03*
X108500000Y-132100000D03*
X100800000Y-105600000D03*
X100800000Y-125800000D03*
X109700000Y-132100000D03*
X139500000Y-135900000D03*
X104550000Y-131250000D03*
X119400000Y-135900000D03*
X123550000Y-121550000D03*
X150200000Y-125800000D03*
X108000000Y-121400000D03*
X122800000Y-119600000D03*
X146400000Y-131300000D03*
X146400000Y-139800000D03*
X108000000Y-145200000D03*
X135900000Y-132100000D03*
X100750000Y-121350000D03*
X114600000Y-135900000D03*
X112200000Y-135900000D03*
X128700000Y-135900000D03*
X117000000Y-135900000D03*
X113300000Y-132100000D03*
X125000000Y-125800000D03*
X100800000Y-145200000D03*
X113400000Y-135900000D03*
X146300000Y-136700000D03*
X150200000Y-127200000D03*
X148300000Y-135900000D03*
X115800000Y-135900000D03*
X129950000Y-121350000D03*
X143000000Y-125800000D03*
X148300000Y-132100000D03*
X140700000Y-135900000D03*
X132138593Y-110531476D03*
X135800000Y-125800000D03*
X143100000Y-132100000D03*
%TD*%
D44*
%TO.N,Net-(J4-SHIELD)*%
X105530000Y-116320000D02*
X101950000Y-116320000D01*
D45*
%TO.N,GND*%
X117587500Y-105900000D02*
X117512500Y-105825000D01*
X117512500Y-105825000D02*
X115425000Y-105825000D01*
X115425000Y-105825000D02*
X115412500Y-105812500D01*
X115412500Y-105812500D02*
X115412500Y-105900000D01*
D46*
X115400000Y-105806250D02*
X115400000Y-107193750D01*
D47*
%TO.N,/+10..15V*%
X137000000Y-111000000D02*
X137000000Y-110000000D01*
X136200000Y-109200000D02*
X135000000Y-109200000D01*
X137000000Y-110000000D02*
X136200000Y-109200000D01*
X135000000Y-109200000D02*
X131100000Y-109250000D01*
X131100000Y-109250000D02*
X128600000Y-106750000D01*
X128600000Y-106750000D02*
X128600000Y-106700000D01*
%TO.N,+8V*%
X124400000Y-116480000D02*
X125480000Y-116480000D01*
X125480000Y-116480000D02*
X126575000Y-117575000D01*
X126575000Y-117575000D02*
X126575000Y-119600000D01*
X126575000Y-119600000D02*
X126675000Y-119700000D01*
X126675000Y-119700000D02*
X127620000Y-119700000D01*
D48*
%TO.N,GND*%
X125000000Y-119900000D02*
X125000000Y-126600000D01*
D47*
%TO.N,Net-(L1-Pad3)*%
X127600000Y-124262500D02*
X127600000Y-127470000D01*
X127600000Y-127470000D02*
X128730000Y-128600000D01*
%TO.N,+8V*%
X127600000Y-121337500D02*
X127600000Y-119720000D01*
X127600000Y-119720000D02*
X127620000Y-119700000D01*
D46*
%TO.N,GND*%
X115400000Y-106937500D02*
X115400000Y-108325000D01*
D45*
X112144608Y-109218458D02*
X113144608Y-110218458D01*
D47*
X121000000Y-134400000D02*
X121000000Y-135800000D01*
D45*
X114800000Y-110200000D02*
X115800000Y-109200000D01*
D46*
X115400000Y-108325000D02*
X116200000Y-109125000D01*
D45*
X127057717Y-110693982D02*
X127657717Y-110693982D01*
D47*
X133200000Y-105850000D02*
X133200000Y-107150000D01*
D46*
X107100000Y-108800000D02*
X108150000Y-107750000D01*
D47*
X133600000Y-107150000D02*
X131400000Y-107150000D01*
X136850000Y-107150000D02*
X133600000Y-107150000D01*
D46*
X107400000Y-115250000D02*
X108700000Y-115250000D01*
D47*
X138450000Y-105550000D02*
X136850000Y-107150000D01*
X147200000Y-105550000D02*
X138450000Y-105550000D01*
D46*
%TO.N,+8V*%
X121350000Y-117375000D02*
X121350000Y-116150000D01*
X116750000Y-116850000D02*
X117450000Y-116150000D01*
D47*
X127620000Y-119700000D02*
X128925000Y-119700000D01*
D46*
X117450000Y-116150000D02*
X121350000Y-116150000D01*
X121325000Y-117400000D02*
X121350000Y-117375000D01*
X124070000Y-116150000D02*
X124400000Y-116480000D01*
X121350000Y-116150000D02*
X124070000Y-116150000D01*
D47*
%TO.N,Net-(D2-K)*%
X121300000Y-110650000D02*
X122750000Y-109200000D01*
X122750000Y-109200000D02*
X123925000Y-109200000D01*
X123925000Y-107475000D02*
X123925000Y-109200000D01*
X123925000Y-111445000D02*
X124400000Y-111920000D01*
X121750000Y-111975000D02*
X124345000Y-111975000D01*
X124345000Y-111975000D02*
X124400000Y-111920000D01*
X124700000Y-106700000D02*
X123925000Y-107475000D01*
X123925000Y-110400000D02*
X123925000Y-111445000D01*
X123925000Y-109200000D02*
X123925000Y-110400000D01*
X119200000Y-110650000D02*
X121300000Y-110650000D01*
X125300000Y-106700000D02*
X124700000Y-106700000D01*
D46*
%TO.N,Net-(LED1-A)*%
X119675000Y-117400000D02*
X119675000Y-119237500D01*
X119675000Y-119237500D02*
X119612500Y-119300000D01*
%TO.N,/VBUS*%
X109000000Y-105000000D02*
X109000000Y-109100000D01*
X109000000Y-105000000D02*
X110687500Y-103312500D01*
X111950000Y-110300000D02*
X111975000Y-110325000D01*
X109125000Y-109975000D02*
X111625000Y-109975000D01*
X107100000Y-109500000D02*
X108650000Y-109500000D01*
X108650000Y-109500000D02*
X109125000Y-109975000D01*
X109000000Y-108850000D02*
X109150000Y-109000000D01*
X111975000Y-110325000D02*
X111975000Y-113985660D01*
D45*
X116350000Y-104662500D02*
X114450000Y-104662500D01*
D46*
X111975000Y-113985660D02*
X111510660Y-114450000D01*
X110687500Y-103312500D02*
X111000000Y-103312500D01*
D47*
X114400000Y-102981250D02*
X114400000Y-104618750D01*
D46*
X108650000Y-109500000D02*
X109150000Y-109000000D01*
X111490165Y-114450000D02*
X107009835Y-114450000D01*
X111625000Y-109975000D02*
X111950000Y-110300000D01*
D47*
X110868750Y-103000000D02*
X114131250Y-103000000D01*
D46*
X110537500Y-102850000D02*
X111000000Y-103312500D01*
X106200000Y-102850000D02*
X110537500Y-102850000D01*
%TO.N,+12V*%
X116200000Y-111600000D02*
X118600000Y-109200000D01*
D47*
X117325000Y-112075000D02*
X119200000Y-113950000D01*
X116200000Y-112075000D02*
X117325000Y-112075000D01*
D46*
X116200000Y-113100000D02*
X116200000Y-112075000D01*
X113200000Y-116400000D02*
X113200000Y-116100000D01*
X118600000Y-109200000D02*
X118600000Y-108625000D01*
X118600000Y-108625000D02*
X120350000Y-108625000D01*
X113200000Y-116100000D02*
X116200000Y-113100000D01*
D47*
X116200000Y-112075000D02*
X113775000Y-112075000D01*
D46*
X120350000Y-108625000D02*
X120400000Y-108575000D01*
X113775000Y-112075000D02*
X113600000Y-112250000D01*
%TO.N,Net-(U3-FB)*%
X118800000Y-105225000D02*
X118800000Y-106775000D01*
X120400000Y-107025000D02*
X118650000Y-107025000D01*
X118800000Y-106775000D02*
X118600000Y-106975000D01*
X118562500Y-106937500D02*
X118600000Y-106975000D01*
X116350000Y-106937500D02*
X118562500Y-106937500D01*
X118650000Y-107025000D02*
X118600000Y-106975000D01*
D47*
%TO.N,Net-(D4-A)*%
X111837500Y-106600000D02*
X114362500Y-106600000D01*
X113600000Y-108950000D02*
X113600000Y-106600000D01*
D49*
%TO.N,Net-(J4-CC1)*%
X109225000Y-110750000D02*
X107075000Y-110750000D01*
%TO.N,Net-(J4-CC2)*%
X109375000Y-113750000D02*
X107225000Y-113750000D01*
D46*
%TO.N,Net-(J4-SHIELD)*%
X103000000Y-116320000D02*
X101950000Y-116320000D01*
X102975000Y-116345000D02*
X103000000Y-116320000D01*
X102975000Y-118800000D02*
X102975000Y-116345000D01*
D44*
X106130000Y-107680000D02*
X101950000Y-107680000D01*
X101950000Y-107680000D02*
X101950000Y-116320000D01*
D50*
%TO.N,/RFin*%
X103750000Y-134000000D02*
X111800000Y-134000000D01*
%TO.N,/Gin*%
X114350000Y-134000000D02*
X119150000Y-134000000D01*
%TO.N,/Gout*%
X131270000Y-131500000D02*
X131270000Y-133830000D01*
X131270000Y-133730000D02*
X131000000Y-134000000D01*
X136800000Y-134000000D02*
X130750000Y-134000000D01*
X131000000Y-134000000D02*
X123000000Y-134000000D01*
%TO.N,/RFout*%
X139175000Y-134000000D02*
X147225000Y-134000000D01*
%TD*%
%TA.AperFunction,Conductor*%
%TO.N,GND*%
G36*
X149242539Y-135519685D02*
G01*
X149288294Y-135572489D01*
X149299500Y-135624000D01*
X149299500Y-136907858D01*
X149279815Y-136974897D01*
X149227011Y-137020652D01*
X149157853Y-137030596D01*
X149132167Y-137024040D01*
X149084880Y-137006403D01*
X149084872Y-137006401D01*
X149025344Y-137000000D01*
X146687500Y-137000000D01*
X146687500Y-139500000D01*
X149025328Y-139500000D01*
X149025344Y-139499999D01*
X149084872Y-139493598D01*
X149084880Y-139493596D01*
X149132165Y-139475960D01*
X149201857Y-139470975D01*
X149263180Y-139504459D01*
X149296666Y-139565782D01*
X149299500Y-139592141D01*
X149299500Y-139975467D01*
X149299416Y-139975889D01*
X149299459Y-140000001D01*
X149299500Y-140000099D01*
X149299616Y-140000382D01*
X149299618Y-140000384D01*
X149299808Y-140000462D01*
X149300000Y-140000541D01*
X149300002Y-140000539D01*
X149324616Y-140000524D01*
X149324616Y-140000528D01*
X149324760Y-140000500D01*
X150875500Y-140000500D01*
X150942539Y-140020185D01*
X150988294Y-140072989D01*
X150999500Y-140124500D01*
X150999500Y-145875500D01*
X150979815Y-145942539D01*
X150927011Y-145988294D01*
X150875500Y-145999500D01*
X100124500Y-145999500D01*
X100057461Y-145979815D01*
X100011706Y-145927011D01*
X100000500Y-145875500D01*
X100000500Y-140124500D01*
X100020185Y-140057461D01*
X100072989Y-140011706D01*
X100124500Y-140000500D01*
X101675240Y-140000500D01*
X101675383Y-140000528D01*
X101675384Y-140000524D01*
X101699997Y-140000539D01*
X101700000Y-140000541D01*
X101700383Y-140000383D01*
X101700500Y-140000099D01*
X101700499Y-140000099D01*
X101700541Y-140000000D01*
X101700540Y-139999998D01*
X101706892Y-139985028D01*
X101700521Y-139964747D01*
X101700499Y-139962417D01*
X101700499Y-139592141D01*
X101720184Y-139525102D01*
X101772988Y-139479347D01*
X101842146Y-139469403D01*
X101867833Y-139475959D01*
X101915123Y-139493597D01*
X101915127Y-139493598D01*
X101974655Y-139499999D01*
X101974672Y-139500000D01*
X104312500Y-139500000D01*
X104312500Y-138500000D01*
X104812500Y-138500000D01*
X104812500Y-139500000D01*
X107150328Y-139500000D01*
X107150344Y-139499999D01*
X107209872Y-139493598D01*
X107209879Y-139493596D01*
X107344586Y-139443354D01*
X107344593Y-139443350D01*
X107459687Y-139357190D01*
X107459690Y-139357187D01*
X107545850Y-139242093D01*
X107545854Y-139242086D01*
X107596096Y-139107379D01*
X107596098Y-139107372D01*
X107602499Y-139047844D01*
X107602500Y-139047827D01*
X107602500Y-138500000D01*
X143397500Y-138500000D01*
X143397500Y-139047844D01*
X143403901Y-139107372D01*
X143403903Y-139107379D01*
X143454145Y-139242086D01*
X143454149Y-139242093D01*
X143540309Y-139357187D01*
X143540312Y-139357190D01*
X143655406Y-139443350D01*
X143655413Y-139443354D01*
X143790120Y-139493596D01*
X143790127Y-139493598D01*
X143849655Y-139499999D01*
X143849672Y-139500000D01*
X146187500Y-139500000D01*
X146187500Y-138500000D01*
X143397500Y-138500000D01*
X107602500Y-138500000D01*
X104812500Y-138500000D01*
X104312500Y-138500000D01*
X104312500Y-137000000D01*
X104812500Y-137000000D01*
X104812500Y-138000000D01*
X107602500Y-138000000D01*
X143397500Y-138000000D01*
X146187500Y-138000000D01*
X146187500Y-137000000D01*
X143849655Y-137000000D01*
X143790127Y-137006401D01*
X143790120Y-137006403D01*
X143655413Y-137056645D01*
X143655406Y-137056649D01*
X143540312Y-137142809D01*
X143540309Y-137142812D01*
X143454149Y-137257906D01*
X143454145Y-137257913D01*
X143403903Y-137392620D01*
X143403901Y-137392627D01*
X143397500Y-137452155D01*
X143397500Y-138000000D01*
X107602500Y-138000000D01*
X107602500Y-137452172D01*
X107602499Y-137452155D01*
X107596098Y-137392627D01*
X107596096Y-137392620D01*
X107545854Y-137257913D01*
X107545850Y-137257906D01*
X107459690Y-137142812D01*
X107459687Y-137142809D01*
X107344593Y-137056649D01*
X107344586Y-137056645D01*
X107209879Y-137006403D01*
X107209872Y-137006401D01*
X107150344Y-137000000D01*
X104812500Y-137000000D01*
X104312500Y-137000000D01*
X101974655Y-137000000D01*
X101915127Y-137006401D01*
X101915116Y-137006404D01*
X101867831Y-137024040D01*
X101798139Y-137029024D01*
X101736817Y-136995538D01*
X101703332Y-136934214D01*
X101700499Y-136907864D01*
X101700499Y-135624000D01*
X101720185Y-135556960D01*
X101772989Y-135511206D01*
X101824500Y-135500000D01*
X149175500Y-135500000D01*
X149242539Y-135519685D01*
G37*
%TD.AperFunction*%
%TA.AperFunction,Conductor*%
G36*
X150942539Y-100020185D02*
G01*
X150988294Y-100072989D01*
X150999500Y-100124500D01*
X150999500Y-107376000D01*
X150979815Y-107443039D01*
X150927011Y-107488794D01*
X150875500Y-107500000D01*
X149824000Y-107500000D01*
X149756961Y-107480315D01*
X149711206Y-107427511D01*
X149700000Y-107376000D01*
X149700000Y-107300000D01*
X142500000Y-107300000D01*
X142500000Y-107376000D01*
X142480315Y-107443039D01*
X142427511Y-107488794D01*
X142376000Y-107500000D01*
X136349000Y-107500000D01*
X136281961Y-107480315D01*
X136236206Y-107427511D01*
X136225000Y-107376000D01*
X136225000Y-107375000D01*
X134775001Y-107375000D01*
X134775001Y-107376000D01*
X134755316Y-107443039D01*
X134702512Y-107488794D01*
X134651001Y-107500000D01*
X133999999Y-107500000D01*
X133999999Y-108189824D01*
X133980314Y-108256864D01*
X133927510Y-108302618D01*
X133877589Y-108313814D01*
X131520496Y-108344034D01*
X131453209Y-108325210D01*
X131431225Y-108307725D01*
X130048500Y-106925000D01*
X134775000Y-106925000D01*
X135275000Y-106925000D01*
X135275000Y-106357357D01*
X135725000Y-106357357D01*
X135725000Y-106925000D01*
X136224999Y-106925000D01*
X136224999Y-106900647D01*
X136222266Y-106865921D01*
X136203114Y-106800000D01*
X142500000Y-106800000D01*
X145850000Y-106800000D01*
X145850000Y-104600000D01*
X146350000Y-104600000D01*
X146350000Y-106800000D01*
X149700000Y-106800000D01*
X149700000Y-105052172D01*
X149699999Y-105052155D01*
X149693598Y-104992627D01*
X149693596Y-104992620D01*
X149643354Y-104857913D01*
X149643350Y-104857906D01*
X149557190Y-104742812D01*
X149557187Y-104742809D01*
X149442093Y-104656649D01*
X149442086Y-104656645D01*
X149307379Y-104606403D01*
X149307372Y-104606401D01*
X149247844Y-104600000D01*
X146350000Y-104600000D01*
X145850000Y-104600000D01*
X142952155Y-104600000D01*
X142892627Y-104606401D01*
X142892620Y-104606403D01*
X142757913Y-104656645D01*
X142757906Y-104656649D01*
X142642812Y-104742809D01*
X142642809Y-104742812D01*
X142556649Y-104857906D01*
X142556645Y-104857913D01*
X142506403Y-104992620D01*
X142506401Y-104992627D01*
X142500000Y-105052155D01*
X142500000Y-106800000D01*
X136203114Y-106800000D01*
X136179093Y-106717318D01*
X136179092Y-106717315D01*
X136100317Y-106584114D01*
X136100311Y-106584105D01*
X135990894Y-106474688D01*
X135990885Y-106474682D01*
X135857684Y-106395907D01*
X135857683Y-106395906D01*
X135725000Y-106357357D01*
X135275000Y-106357357D01*
X135142316Y-106395906D01*
X135142315Y-106395907D01*
X135009114Y-106474682D01*
X135009105Y-106474688D01*
X134899688Y-106584105D01*
X134899682Y-106584114D01*
X134820907Y-106717315D01*
X134820906Y-106717318D01*
X134777734Y-106865915D01*
X134777732Y-106865926D01*
X134775000Y-106900643D01*
X134775000Y-106925000D01*
X130048500Y-106925000D01*
X129586818Y-106463318D01*
X129553333Y-106401995D01*
X129550499Y-106375637D01*
X129550499Y-106276662D01*
X129550498Y-106276644D01*
X129540349Y-106177292D01*
X129540348Y-106177289D01*
X129523392Y-106126120D01*
X129487003Y-106016303D01*
X129486999Y-106016297D01*
X129486998Y-106016294D01*
X129397970Y-105871959D01*
X129397967Y-105871955D01*
X129278044Y-105752032D01*
X129278040Y-105752029D01*
X129133705Y-105663001D01*
X129133699Y-105662998D01*
X129133697Y-105662997D01*
X129083508Y-105646366D01*
X128972709Y-105609651D01*
X128873346Y-105599500D01*
X128326662Y-105599500D01*
X128326644Y-105599501D01*
X128227292Y-105609650D01*
X128227289Y-105609651D01*
X128066305Y-105662996D01*
X128066294Y-105663001D01*
X127921959Y-105752029D01*
X127921955Y-105752032D01*
X127802032Y-105871955D01*
X127802029Y-105871959D01*
X127713001Y-106016294D01*
X127712996Y-106016305D01*
X127659651Y-106177290D01*
X127649500Y-106276647D01*
X127649500Y-107123337D01*
X127649501Y-107123355D01*
X127659650Y-107222707D01*
X127659651Y-107222710D01*
X127712996Y-107383694D01*
X127713001Y-107383705D01*
X127802029Y-107528040D01*
X127802032Y-107528044D01*
X127921955Y-107647967D01*
X127921959Y-107647970D01*
X128066294Y-107736998D01*
X128066297Y-107736999D01*
X128066303Y-107737003D01*
X128227292Y-107790349D01*
X128326655Y-107800500D01*
X128326666Y-107800499D01*
X128329804Y-107800660D01*
X128329749Y-107801721D01*
X128392629Y-107820152D01*
X128413318Y-107836817D01*
X129424845Y-108848345D01*
X130410906Y-109834406D01*
X130422601Y-109847923D01*
X130434928Y-109864441D01*
X130434935Y-109864448D01*
X130482494Y-109906180D01*
X130485445Y-109908945D01*
X130496620Y-109920120D01*
X130519459Y-109938614D01*
X130577218Y-109989296D01*
X130583679Y-109992916D01*
X130601093Y-110004720D01*
X130606851Y-110009383D01*
X130675313Y-110044266D01*
X130716025Y-110067080D01*
X130742344Y-110081829D01*
X130742348Y-110081831D01*
X130742350Y-110081832D01*
X130749421Y-110084029D01*
X130768916Y-110091959D01*
X130775512Y-110095320D01*
X130849729Y-110115206D01*
X130923113Y-110138015D01*
X130926854Y-110138359D01*
X130930482Y-110138694D01*
X130951205Y-110142397D01*
X130958355Y-110144313D01*
X131035093Y-110148334D01*
X131064356Y-110151031D01*
X131080196Y-110150827D01*
X131084181Y-110150906D01*
X131147388Y-110154219D01*
X131156155Y-110152830D01*
X131167748Y-110150994D01*
X131185560Y-110149476D01*
X133874411Y-110115004D01*
X133941697Y-110133828D01*
X133988125Y-110186041D01*
X134000000Y-110238994D01*
X134000000Y-110785872D01*
X133980315Y-110852911D01*
X133927511Y-110898666D01*
X133858353Y-110908610D01*
X133810904Y-110891411D01*
X133769129Y-110865645D01*
X133769120Y-110865640D01*
X133602698Y-110810494D01*
X133499988Y-110800000D01*
X132425000Y-110800000D01*
X132425000Y-115475000D01*
X134000000Y-115475000D01*
X134000000Y-115500000D01*
X135275360Y-115500000D01*
X135342399Y-115519685D01*
X135388154Y-115572489D01*
X135399357Y-115624636D01*
X135386544Y-118110493D01*
X135349999Y-125199999D01*
X135350000Y-125200000D01*
X150875500Y-125200000D01*
X150942539Y-125219685D01*
X150988294Y-125272489D01*
X150999500Y-125324000D01*
X150999500Y-127875500D01*
X150979815Y-127942539D01*
X150927011Y-127988294D01*
X150875500Y-127999500D01*
X149324760Y-127999500D01*
X149324554Y-127999459D01*
X149300000Y-127999459D01*
X149299901Y-127999500D01*
X149299617Y-127999616D01*
X149299615Y-127999618D01*
X149299459Y-127999999D01*
X149299476Y-128024616D01*
X149299471Y-128024616D01*
X149299500Y-128024759D01*
X149299500Y-128407858D01*
X149279815Y-128474897D01*
X149227011Y-128520652D01*
X149157853Y-128530596D01*
X149132167Y-128524040D01*
X149084880Y-128506403D01*
X149084872Y-128506401D01*
X149025344Y-128500000D01*
X146687500Y-128500000D01*
X146687500Y-131000000D01*
X149025328Y-131000000D01*
X149025344Y-130999999D01*
X149084872Y-130993598D01*
X149084880Y-130993596D01*
X149132165Y-130975960D01*
X149201857Y-130970975D01*
X149263180Y-131004459D01*
X149296666Y-131065782D01*
X149299500Y-131092141D01*
X149299500Y-132376000D01*
X149279815Y-132443039D01*
X149227011Y-132488794D01*
X149175500Y-132500000D01*
X132614000Y-132500000D01*
X132546961Y-132480315D01*
X132501206Y-132427511D01*
X132490000Y-132376000D01*
X132490000Y-131445218D01*
X132490000Y-131445212D01*
X132475246Y-131281280D01*
X132416823Y-131069590D01*
X132412280Y-131060156D01*
X132400000Y-131006357D01*
X132400000Y-130000000D01*
X143397500Y-130000000D01*
X143397500Y-130547844D01*
X143403901Y-130607372D01*
X143403903Y-130607379D01*
X143454145Y-130742086D01*
X143454149Y-130742093D01*
X143540309Y-130857187D01*
X143540312Y-130857190D01*
X143655406Y-130943350D01*
X143655413Y-130943354D01*
X143790120Y-130993596D01*
X143790127Y-130993598D01*
X143849655Y-130999999D01*
X143849672Y-131000000D01*
X146187500Y-131000000D01*
X146187500Y-130000000D01*
X143397500Y-130000000D01*
X132400000Y-130000000D01*
X132400000Y-129500000D01*
X143397500Y-129500000D01*
X146187500Y-129500000D01*
X146187500Y-128500000D01*
X143849655Y-128500000D01*
X143790127Y-128506401D01*
X143790120Y-128506403D01*
X143655413Y-128556645D01*
X143655406Y-128556649D01*
X143540312Y-128642809D01*
X143540309Y-128642812D01*
X143454149Y-128757906D01*
X143454145Y-128757913D01*
X143403903Y-128892620D01*
X143403901Y-128892627D01*
X143397500Y-128952155D01*
X143397500Y-129500000D01*
X132400000Y-129500000D01*
X132400000Y-127300000D01*
X128754861Y-127300000D01*
X128687822Y-127280315D01*
X128667180Y-127263681D01*
X128536818Y-127133319D01*
X128503333Y-127071996D01*
X128500499Y-127045647D01*
X128500500Y-125449499D01*
X128520185Y-125382459D01*
X128572989Y-125336705D01*
X128624500Y-125325499D01*
X128725002Y-125325499D01*
X128725008Y-125325499D01*
X128827797Y-125314999D01*
X128994334Y-125259814D01*
X129143656Y-125167712D01*
X129267712Y-125043656D01*
X129359814Y-124894334D01*
X129414999Y-124727797D01*
X129425500Y-124625009D01*
X129425499Y-123899992D01*
X129414999Y-123797203D01*
X129359814Y-123630666D01*
X129267712Y-123481344D01*
X129143656Y-123357288D01*
X128994334Y-123265186D01*
X128827797Y-123210001D01*
X128827795Y-123210000D01*
X128725010Y-123199500D01*
X126474998Y-123199500D01*
X126474981Y-123199501D01*
X126372203Y-123210000D01*
X126372200Y-123210001D01*
X126205668Y-123265185D01*
X126205663Y-123265187D01*
X126056342Y-123357289D01*
X125932289Y-123481342D01*
X125840187Y-123630663D01*
X125840185Y-123630666D01*
X125840186Y-123630666D01*
X125785001Y-123797203D01*
X125785001Y-123797204D01*
X125785000Y-123797204D01*
X125774500Y-123899983D01*
X125774500Y-124625001D01*
X125774501Y-124625019D01*
X125785000Y-124727796D01*
X125785001Y-124727799D01*
X125840185Y-124894331D01*
X125840186Y-124894334D01*
X125932288Y-125043656D01*
X126056344Y-125167712D01*
X126205666Y-125259814D01*
X126372203Y-125314999D01*
X126474991Y-125325500D01*
X126575500Y-125325499D01*
X126642538Y-125345183D01*
X126688294Y-125397986D01*
X126699500Y-125449499D01*
X126699500Y-127389373D01*
X126697973Y-127408772D01*
X126695781Y-127422611D01*
X126699415Y-127491956D01*
X126699500Y-127495201D01*
X126699500Y-127517189D01*
X126701797Y-127539059D01*
X126702051Y-127542290D01*
X126705686Y-127611643D01*
X126705688Y-127611653D01*
X126709315Y-127625189D01*
X126712860Y-127644314D01*
X126714325Y-127658249D01*
X126714326Y-127658256D01*
X126714328Y-127658262D01*
X126735784Y-127724298D01*
X126736705Y-127727409D01*
X126754679Y-127794486D01*
X126754684Y-127794498D01*
X126761043Y-127806978D01*
X126768488Y-127824949D01*
X126772820Y-127838282D01*
X126807537Y-127898414D01*
X126809085Y-127901266D01*
X126830116Y-127942539D01*
X126840617Y-127963149D01*
X126840619Y-127963151D01*
X126840620Y-127963153D01*
X126849438Y-127974043D01*
X126860454Y-127990070D01*
X126867465Y-128002213D01*
X126867470Y-128002220D01*
X126913939Y-128053831D01*
X126916043Y-128056295D01*
X126929882Y-128073382D01*
X126945423Y-128088922D01*
X126947657Y-128091277D01*
X126994128Y-128142887D01*
X127005468Y-128151126D01*
X127020265Y-128163764D01*
X127563681Y-128707180D01*
X127597166Y-128768503D01*
X127600000Y-128794861D01*
X127600000Y-132376000D01*
X127580315Y-132443039D01*
X127527511Y-132488794D01*
X127476000Y-132500000D01*
X101824500Y-132500000D01*
X101757461Y-132480315D01*
X101711706Y-132427511D01*
X101700500Y-132376000D01*
X101700499Y-132326498D01*
X101700499Y-131092138D01*
X101720184Y-131025102D01*
X101772987Y-130979347D01*
X101842146Y-130969403D01*
X101867833Y-130975959D01*
X101915123Y-130993597D01*
X101915127Y-130993598D01*
X101974655Y-130999999D01*
X101974672Y-131000000D01*
X104312500Y-131000000D01*
X104312500Y-130000000D01*
X104812500Y-130000000D01*
X104812500Y-131000000D01*
X107150328Y-131000000D01*
X107150344Y-130999999D01*
X107209872Y-130993598D01*
X107209879Y-130993596D01*
X107344586Y-130943354D01*
X107344593Y-130943350D01*
X107459687Y-130857190D01*
X107459690Y-130857187D01*
X107545850Y-130742093D01*
X107545854Y-130742086D01*
X107596096Y-130607379D01*
X107596098Y-130607372D01*
X107602499Y-130547844D01*
X107602500Y-130547827D01*
X107602500Y-130000000D01*
X104812500Y-130000000D01*
X104312500Y-130000000D01*
X104312500Y-128500000D01*
X104812500Y-128500000D01*
X104812500Y-129500000D01*
X107602500Y-129500000D01*
X107602500Y-128952172D01*
X107602499Y-128952155D01*
X107596098Y-128892627D01*
X107596096Y-128892620D01*
X107545854Y-128757913D01*
X107545850Y-128757906D01*
X107459690Y-128642812D01*
X107459687Y-128642809D01*
X107344593Y-128556649D01*
X107344586Y-128556645D01*
X107209879Y-128506403D01*
X107209872Y-128506401D01*
X107150344Y-128500000D01*
X104812500Y-128500000D01*
X104312500Y-128500000D01*
X101974655Y-128500000D01*
X101915127Y-128506401D01*
X101915116Y-128506404D01*
X101867831Y-128524040D01*
X101798139Y-128529024D01*
X101736817Y-128495538D01*
X101703332Y-128434214D01*
X101700499Y-128407858D01*
X101700499Y-128008338D01*
X101700539Y-128000002D01*
X101700541Y-128000000D01*
X101700383Y-127999617D01*
X101700382Y-127999616D01*
X101700099Y-127999500D01*
X101700000Y-127999459D01*
X101675446Y-127999459D01*
X101675240Y-127999500D01*
X100124500Y-127999500D01*
X100057461Y-127979815D01*
X100011706Y-127927011D01*
X100000500Y-127875500D01*
X100000500Y-117624000D01*
X100020185Y-117556961D01*
X100072989Y-117511206D01*
X100124500Y-117500000D01*
X102100500Y-117500000D01*
X102167539Y-117519685D01*
X102213294Y-117572489D01*
X102224500Y-117624000D01*
X102224500Y-118047023D01*
X102206617Y-118111171D01*
X102187509Y-118142781D01*
X102131522Y-118235393D01*
X102080913Y-118397807D01*
X102074500Y-118468386D01*
X102074500Y-119131613D01*
X102080913Y-119202192D01*
X102080913Y-119202194D01*
X102080914Y-119202196D01*
X102131522Y-119364606D01*
X102213058Y-119499483D01*
X102219530Y-119510188D01*
X102339811Y-119630469D01*
X102339813Y-119630470D01*
X102339815Y-119630472D01*
X102485394Y-119718478D01*
X102647804Y-119769086D01*
X102718384Y-119775500D01*
X102718387Y-119775500D01*
X103231613Y-119775500D01*
X103231616Y-119775500D01*
X103302196Y-119769086D01*
X103464606Y-119718478D01*
X103610185Y-119630472D01*
X103712673Y-119527983D01*
X103773994Y-119494499D01*
X103843685Y-119499483D01*
X103888034Y-119527984D01*
X103990122Y-119630072D01*
X104135604Y-119718019D01*
X104135603Y-119718019D01*
X104297894Y-119768590D01*
X104297893Y-119768590D01*
X104368408Y-119774998D01*
X104368426Y-119774999D01*
X104374999Y-119774998D01*
X104375000Y-119774998D01*
X104375000Y-119050000D01*
X104875000Y-119050000D01*
X104875000Y-119774999D01*
X104881581Y-119774999D01*
X104952102Y-119768591D01*
X104952107Y-119768590D01*
X105114396Y-119718018D01*
X105259877Y-119630072D01*
X105380072Y-119509877D01*
X105468019Y-119364395D01*
X105518590Y-119202106D01*
X105525000Y-119131572D01*
X105525000Y-119050000D01*
X104875000Y-119050000D01*
X104375000Y-119050000D01*
X104375000Y-117825000D01*
X104875000Y-117825000D01*
X104875000Y-118550000D01*
X105524999Y-118550000D01*
X105524998Y-118468417D01*
X105518591Y-118397897D01*
X105518590Y-118397892D01*
X105468018Y-118235603D01*
X105380072Y-118090122D01*
X105259877Y-117969927D01*
X105114395Y-117881980D01*
X105114396Y-117881980D01*
X104952105Y-117831409D01*
X104952106Y-117831409D01*
X104881572Y-117825000D01*
X104875000Y-117825000D01*
X104375000Y-117825000D01*
X104374999Y-117824999D01*
X104368436Y-117825000D01*
X104368417Y-117825001D01*
X104297897Y-117831408D01*
X104297892Y-117831409D01*
X104135603Y-117881981D01*
X103990122Y-117969927D01*
X103937180Y-118022869D01*
X103875857Y-118056353D01*
X103806165Y-118051368D01*
X103750232Y-118009497D01*
X103725816Y-117944032D01*
X103725500Y-117935187D01*
X103725500Y-117624000D01*
X103745185Y-117556961D01*
X103797989Y-117511206D01*
X103849500Y-117500000D01*
X107600000Y-117500000D01*
X107600000Y-116745056D01*
X107612673Y-116690447D01*
X107616307Y-116683037D01*
X107623060Y-116669271D01*
X107674063Y-116472285D01*
X107684369Y-116269064D01*
X107672682Y-116192776D01*
X107681988Y-116123530D01*
X107727254Y-116070307D01*
X107794110Y-116050005D01*
X107795252Y-116050000D01*
X107817828Y-116050000D01*
X107817844Y-116049999D01*
X107877372Y-116043598D01*
X107877379Y-116043596D01*
X108012086Y-115993354D01*
X108012093Y-115993350D01*
X108127187Y-115907190D01*
X108127190Y-115907187D01*
X108213350Y-115792093D01*
X108213354Y-115792086D01*
X108263596Y-115657379D01*
X108263598Y-115657372D01*
X108269999Y-115597844D01*
X108270000Y-115597827D01*
X108270000Y-115500000D01*
X107600000Y-115500000D01*
X107599999Y-115250499D01*
X107817872Y-115250499D01*
X107877483Y-115244091D01*
X107973395Y-115208318D01*
X108016729Y-115200500D01*
X111446955Y-115200500D01*
X111464925Y-115201809D01*
X111488683Y-115205289D01*
X111663457Y-115189999D01*
X111829994Y-115134814D01*
X111979316Y-115042712D01*
X112460642Y-114561384D01*
X112474271Y-114549607D01*
X112493530Y-114535270D01*
X112527101Y-114495261D01*
X112530761Y-114491266D01*
X112536590Y-114485438D01*
X112556941Y-114459699D01*
X112565079Y-114450000D01*
X112606302Y-114400874D01*
X112606306Y-114400865D01*
X112610274Y-114394835D01*
X112610325Y-114394868D01*
X112614372Y-114388516D01*
X112614320Y-114388484D01*
X112618112Y-114382335D01*
X112650575Y-114312718D01*
X112685036Y-114244100D01*
X112685040Y-114244093D01*
X112685042Y-114244081D01*
X112687509Y-114237306D01*
X112687567Y-114237327D01*
X112690043Y-114230206D01*
X112689986Y-114230188D01*
X112692257Y-114223333D01*
X112707792Y-114148094D01*
X112725498Y-114073388D01*
X112725500Y-114073381D01*
X112725500Y-114073370D01*
X112726338Y-114066208D01*
X112726398Y-114066215D01*
X112727164Y-114058715D01*
X112727105Y-114058710D01*
X112727734Y-114051520D01*
X112725500Y-113974742D01*
X112725500Y-113241489D01*
X112745185Y-113174450D01*
X112797989Y-113128695D01*
X112867147Y-113118751D01*
X112909656Y-113134160D01*
X112909755Y-113133949D01*
X112912135Y-113135059D01*
X112914599Y-113135952D01*
X112916296Y-113136999D01*
X112916297Y-113136999D01*
X112916303Y-113137003D01*
X113077292Y-113190349D01*
X113176655Y-113200500D01*
X114023344Y-113200499D01*
X114023352Y-113200498D01*
X114023355Y-113200498D01*
X114077760Y-113194940D01*
X114122708Y-113190349D01*
X114283697Y-113137003D01*
X114428044Y-113047968D01*
X114464193Y-113011819D01*
X114525516Y-112978334D01*
X114551874Y-112975500D01*
X114963770Y-112975500D01*
X115030809Y-112995185D01*
X115076564Y-113047989D01*
X115086508Y-113117147D01*
X115057483Y-113180703D01*
X115051451Y-113187181D01*
X113125449Y-115113181D01*
X113064126Y-115146666D01*
X113037768Y-115149500D01*
X112402129Y-115149500D01*
X112402123Y-115149501D01*
X112342516Y-115155908D01*
X112207671Y-115206202D01*
X112207664Y-115206206D01*
X112092455Y-115292452D01*
X112092452Y-115292455D01*
X112006206Y-115407664D01*
X112006202Y-115407671D01*
X111955908Y-115542517D01*
X111949501Y-115602116D01*
X111949500Y-115602135D01*
X111949500Y-117197870D01*
X111949501Y-117197876D01*
X111955908Y-117257483D01*
X112006202Y-117392328D01*
X112006206Y-117392335D01*
X112092452Y-117507544D01*
X112092455Y-117507547D01*
X112207664Y-117593793D01*
X112207671Y-117593797D01*
X112342517Y-117644091D01*
X112342516Y-117644091D01*
X112349444Y-117644835D01*
X112402127Y-117650500D01*
X113997872Y-117650499D01*
X114057483Y-117644091D01*
X114192331Y-117593796D01*
X114307546Y-117507546D01*
X114393796Y-117392331D01*
X114444091Y-117257483D01*
X114450500Y-117197873D01*
X114450500Y-117197870D01*
X115499500Y-117197870D01*
X115499501Y-117197876D01*
X115505908Y-117257483D01*
X115556202Y-117392328D01*
X115556206Y-117392335D01*
X115642452Y-117507544D01*
X115642455Y-117507547D01*
X115757664Y-117593793D01*
X115757671Y-117593797D01*
X115892517Y-117644091D01*
X115892516Y-117644091D01*
X115899444Y-117644835D01*
X115952127Y-117650500D01*
X117547872Y-117650499D01*
X117607483Y-117644091D01*
X117742331Y-117593796D01*
X117857546Y-117507546D01*
X117943796Y-117392331D01*
X117994091Y-117257483D01*
X118000500Y-117197873D01*
X118000499Y-117024500D01*
X118020185Y-116957461D01*
X118072989Y-116911706D01*
X118124500Y-116900500D01*
X118653977Y-116900500D01*
X118721016Y-116920185D01*
X118766771Y-116972989D01*
X118777468Y-117035721D01*
X118774500Y-117068385D01*
X118774500Y-117731613D01*
X118780913Y-117802192D01*
X118780913Y-117802194D01*
X118780914Y-117802196D01*
X118831522Y-117964606D01*
X118906617Y-118088829D01*
X118924500Y-118152976D01*
X118924500Y-118484108D01*
X118904815Y-118551147D01*
X118888182Y-118571789D01*
X118780971Y-118679000D01*
X118689642Y-118827066D01*
X118689637Y-118827077D01*
X118634913Y-118992223D01*
X118624500Y-119094144D01*
X118624500Y-120105855D01*
X118634913Y-120207776D01*
X118689637Y-120372922D01*
X118689642Y-120372933D01*
X118780971Y-120520999D01*
X118780974Y-120521003D01*
X118903996Y-120644025D01*
X118904000Y-120644028D01*
X119052066Y-120735357D01*
X119052069Y-120735358D01*
X119052075Y-120735362D01*
X119217225Y-120790087D01*
X119319152Y-120800500D01*
X119319157Y-120800500D01*
X119905843Y-120800500D01*
X119905848Y-120800500D01*
X120007775Y-120790087D01*
X120172925Y-120735362D01*
X120321003Y-120644026D01*
X120444026Y-120521003D01*
X120444755Y-120519821D01*
X120445466Y-120519181D01*
X120448507Y-120515336D01*
X120449163Y-120515855D01*
X120496701Y-120473097D01*
X120565664Y-120461873D01*
X120629746Y-120489715D01*
X120651761Y-120515123D01*
X120651888Y-120515023D01*
X120654113Y-120517838D01*
X120655833Y-120519822D01*
X120656365Y-120520685D01*
X120656369Y-120520690D01*
X120779308Y-120643629D01*
X120927285Y-120734903D01*
X120927290Y-120734905D01*
X121092326Y-120789592D01*
X121194184Y-120799999D01*
X121194197Y-120800000D01*
X121237500Y-120800000D01*
X121237500Y-119850000D01*
X121737500Y-119850000D01*
X121737500Y-120800000D01*
X121780803Y-120800000D01*
X121780815Y-120799999D01*
X121882673Y-120789592D01*
X122047709Y-120734905D01*
X122047714Y-120734903D01*
X122195691Y-120643629D01*
X122318629Y-120520691D01*
X122409903Y-120372714D01*
X122409905Y-120372709D01*
X122464592Y-120207673D01*
X122474999Y-120105815D01*
X122475000Y-120105802D01*
X122475000Y-119850000D01*
X124075001Y-119850000D01*
X124075001Y-119898322D01*
X124085144Y-119997607D01*
X124138452Y-120158481D01*
X124138457Y-120158492D01*
X124227424Y-120302728D01*
X124227427Y-120302732D01*
X124347267Y-120422572D01*
X124347271Y-120422575D01*
X124491507Y-120511542D01*
X124491518Y-120511547D01*
X124652393Y-120564855D01*
X124751683Y-120574999D01*
X124775000Y-120574998D01*
X124775000Y-119850000D01*
X124075001Y-119850000D01*
X122475000Y-119850000D01*
X121737500Y-119850000D01*
X121237500Y-119850000D01*
X121237500Y-119474000D01*
X121257185Y-119406961D01*
X121309989Y-119361206D01*
X121361500Y-119350000D01*
X122475000Y-119350000D01*
X124075000Y-119350000D01*
X124775000Y-119350000D01*
X124775000Y-118624999D01*
X124751693Y-118625000D01*
X124751674Y-118625001D01*
X124652392Y-118635144D01*
X124491518Y-118688452D01*
X124491507Y-118688457D01*
X124347271Y-118777424D01*
X124347267Y-118777427D01*
X124227427Y-118897267D01*
X124227424Y-118897271D01*
X124138457Y-119041507D01*
X124138452Y-119041518D01*
X124085144Y-119202393D01*
X124075000Y-119301677D01*
X124075000Y-119350000D01*
X122475000Y-119350000D01*
X122475000Y-119094197D01*
X122474999Y-119094184D01*
X122464592Y-118992326D01*
X122409905Y-118827290D01*
X122409903Y-118827285D01*
X122318629Y-118679308D01*
X122195691Y-118556370D01*
X122047714Y-118465096D01*
X122047711Y-118465095D01*
X121995213Y-118447699D01*
X121937769Y-118407926D01*
X121910946Y-118343410D01*
X121923261Y-118274634D01*
X121954936Y-118235830D01*
X121954882Y-118235776D01*
X121955417Y-118235240D01*
X121957759Y-118232372D01*
X121960178Y-118230475D01*
X121960185Y-118230472D01*
X122080472Y-118110185D01*
X122168478Y-117964606D01*
X122219086Y-117802196D01*
X122225500Y-117731616D01*
X122225500Y-117068384D01*
X122222531Y-117035721D01*
X122236069Y-116967175D01*
X122284516Y-116916830D01*
X122346023Y-116900500D01*
X122493189Y-116900500D01*
X122560228Y-116920185D01*
X122605983Y-116972989D01*
X122610895Y-116985496D01*
X122663807Y-117145172D01*
X122665186Y-117149334D01*
X122757288Y-117298656D01*
X122881344Y-117422712D01*
X123030666Y-117514814D01*
X123197203Y-117569999D01*
X123299991Y-117580500D01*
X125100008Y-117580499D01*
X125202797Y-117569999D01*
X125202804Y-117569996D01*
X125209414Y-117568582D01*
X125209807Y-117570421D01*
X125270379Y-117568326D01*
X125327257Y-117600757D01*
X125478842Y-117752342D01*
X125638180Y-117911680D01*
X125671665Y-117973003D01*
X125674499Y-117999361D01*
X125674500Y-118555177D01*
X125654816Y-118622216D01*
X125602012Y-118667971D01*
X125532853Y-118677915D01*
X125511496Y-118672883D01*
X125397607Y-118635144D01*
X125298322Y-118625000D01*
X125275000Y-118625000D01*
X125275000Y-120574999D01*
X125298308Y-120574999D01*
X125298322Y-120574998D01*
X125397607Y-120564855D01*
X125558481Y-120511547D01*
X125558492Y-120511542D01*
X125702731Y-120422573D01*
X125711959Y-120413345D01*
X125773279Y-120379856D01*
X125842971Y-120384835D01*
X125887327Y-120413339D01*
X125900362Y-120426374D01*
X125933847Y-120487697D01*
X125928863Y-120557389D01*
X125918220Y-120579151D01*
X125840189Y-120705659D01*
X125840185Y-120705668D01*
X125828042Y-120742315D01*
X125785001Y-120872203D01*
X125785001Y-120872204D01*
X125785000Y-120872204D01*
X125774500Y-120974983D01*
X125774500Y-121700001D01*
X125774501Y-121700019D01*
X125785000Y-121802796D01*
X125785001Y-121802799D01*
X125840185Y-121969331D01*
X125840186Y-121969334D01*
X125932288Y-122118656D01*
X126056344Y-122242712D01*
X126205666Y-122334814D01*
X126372203Y-122389999D01*
X126474991Y-122400500D01*
X128725008Y-122400499D01*
X128827797Y-122389999D01*
X128994334Y-122334814D01*
X129143656Y-122242712D01*
X129267712Y-122118656D01*
X129359814Y-121969334D01*
X129414999Y-121802797D01*
X129425500Y-121700009D01*
X129425499Y-121024498D01*
X129445183Y-120957460D01*
X129497987Y-120911705D01*
X129549499Y-120900499D01*
X129900002Y-120900499D01*
X129900008Y-120900499D01*
X130002797Y-120889999D01*
X130169334Y-120834814D01*
X130318656Y-120742712D01*
X130442712Y-120618656D01*
X130534814Y-120469334D01*
X130589999Y-120302797D01*
X130600500Y-120200009D01*
X130600500Y-119750000D01*
X131400001Y-119750000D01*
X131400001Y-120199986D01*
X131410494Y-120302697D01*
X131465641Y-120469119D01*
X131465643Y-120469124D01*
X131557684Y-120618345D01*
X131681654Y-120742315D01*
X131830875Y-120834356D01*
X131830880Y-120834358D01*
X131997302Y-120889505D01*
X131997309Y-120889506D01*
X132100019Y-120899999D01*
X132224999Y-120899999D01*
X132225000Y-120899998D01*
X132225000Y-119750000D01*
X132725000Y-119750000D01*
X132725000Y-120899999D01*
X132849972Y-120899999D01*
X132849986Y-120899998D01*
X132952697Y-120889505D01*
X133119119Y-120834358D01*
X133119124Y-120834356D01*
X133268345Y-120742315D01*
X133392315Y-120618345D01*
X133484356Y-120469124D01*
X133484358Y-120469119D01*
X133539505Y-120302697D01*
X133539506Y-120302690D01*
X133549999Y-120199986D01*
X133550000Y-120199973D01*
X133550000Y-119750000D01*
X132725000Y-119750000D01*
X132225000Y-119750000D01*
X131400001Y-119750000D01*
X130600500Y-119750000D01*
X130600499Y-119250000D01*
X131400000Y-119250000D01*
X132224999Y-119250000D01*
X132224999Y-118100000D01*
X132725000Y-118100000D01*
X132725000Y-119250000D01*
X133549999Y-119250000D01*
X133549999Y-118800028D01*
X133549998Y-118800013D01*
X133539505Y-118697302D01*
X133484358Y-118530880D01*
X133484356Y-118530875D01*
X133392315Y-118381654D01*
X133268345Y-118257684D01*
X133119124Y-118165643D01*
X133119119Y-118165641D01*
X132952697Y-118110494D01*
X132952690Y-118110493D01*
X132849986Y-118100000D01*
X132725000Y-118100000D01*
X132224999Y-118100000D01*
X132100027Y-118100000D01*
X132100012Y-118100001D01*
X131997302Y-118110494D01*
X131830880Y-118165641D01*
X131830875Y-118165643D01*
X131681654Y-118257684D01*
X131557684Y-118381654D01*
X131465643Y-118530875D01*
X131465641Y-118530880D01*
X131410494Y-118697302D01*
X131410493Y-118697309D01*
X131400000Y-118800013D01*
X131400000Y-119250000D01*
X130600499Y-119250000D01*
X130600499Y-118799992D01*
X130600397Y-118798998D01*
X130589999Y-118697203D01*
X130589998Y-118697200D01*
X130584071Y-118679315D01*
X130534814Y-118530666D01*
X130442712Y-118381344D01*
X130318656Y-118257288D01*
X130225888Y-118200069D01*
X130169336Y-118165187D01*
X130169331Y-118165185D01*
X130167862Y-118164698D01*
X130002797Y-118110001D01*
X130002795Y-118110000D01*
X129900010Y-118099500D01*
X129149998Y-118099500D01*
X129149980Y-118099501D01*
X129047203Y-118110000D01*
X129047200Y-118110001D01*
X128880668Y-118165185D01*
X128880663Y-118165187D01*
X128731342Y-118257289D01*
X128607289Y-118381342D01*
X128515187Y-118530663D01*
X128515185Y-118530668D01*
X128460000Y-118697204D01*
X128459088Y-118701467D01*
X128425801Y-118762898D01*
X128364586Y-118796581D01*
X128337837Y-118799500D01*
X127700627Y-118799500D01*
X127681228Y-118797973D01*
X127667388Y-118795780D01*
X127605988Y-118798998D01*
X127538011Y-118782848D01*
X127489555Y-118732511D01*
X127475500Y-118675168D01*
X127475500Y-117723999D01*
X127495185Y-117656960D01*
X127547989Y-117611205D01*
X127599500Y-117599999D01*
X128575000Y-117599999D01*
X128575000Y-115975000D01*
X129075000Y-115975000D01*
X129075000Y-117599999D01*
X130250000Y-117599999D01*
X130250000Y-115975000D01*
X130750000Y-115975000D01*
X130750000Y-117599999D01*
X131924999Y-117599999D01*
X131925000Y-117599998D01*
X131925000Y-115975000D01*
X132425000Y-115975000D01*
X132425000Y-117599999D01*
X133499974Y-117599999D01*
X133499988Y-117599998D01*
X133602699Y-117589505D01*
X133769120Y-117534359D01*
X133769125Y-117534357D01*
X133918346Y-117442316D01*
X134042316Y-117318346D01*
X134134357Y-117169125D01*
X134134359Y-117169120D01*
X134189505Y-117002698D01*
X134199999Y-116899988D01*
X134200000Y-116899975D01*
X134200000Y-115975000D01*
X132425000Y-115975000D01*
X131925000Y-115975000D01*
X130750000Y-115975000D01*
X130250000Y-115975000D01*
X129075000Y-115975000D01*
X128575000Y-115975000D01*
X126800001Y-115975000D01*
X126800001Y-116227139D01*
X126780316Y-116294178D01*
X126727512Y-116339933D01*
X126658354Y-116349877D01*
X126594798Y-116320852D01*
X126588320Y-116314820D01*
X126173764Y-115900265D01*
X126161126Y-115885468D01*
X126152887Y-115874128D01*
X126101277Y-115827657D01*
X126098922Y-115825423D01*
X126083382Y-115809882D01*
X126066295Y-115796043D01*
X126063831Y-115793939D01*
X126012220Y-115747470D01*
X126012213Y-115747465D01*
X126000070Y-115740454D01*
X125984043Y-115729438D01*
X125973153Y-115720620D01*
X125973151Y-115720619D01*
X125973149Y-115720617D01*
X125954259Y-115710992D01*
X125911266Y-115689085D01*
X125908414Y-115687537D01*
X125874432Y-115667918D01*
X125848284Y-115652821D01*
X125848283Y-115652820D01*
X125848282Y-115652820D01*
X125834949Y-115648488D01*
X125816978Y-115641043D01*
X125804498Y-115634684D01*
X125804486Y-115634679D01*
X125737409Y-115616705D01*
X125734309Y-115615787D01*
X125668256Y-115594326D01*
X125668251Y-115594325D01*
X125668249Y-115594325D01*
X125654314Y-115592860D01*
X125635190Y-115589316D01*
X125621646Y-115585687D01*
X125621642Y-115585686D01*
X125611563Y-115585158D01*
X125545646Y-115561989D01*
X125530377Y-115549009D01*
X125518657Y-115537289D01*
X125518657Y-115537288D01*
X125518656Y-115537288D01*
X125425888Y-115480069D01*
X125369336Y-115445187D01*
X125369331Y-115445185D01*
X125355811Y-115440705D01*
X125202797Y-115390001D01*
X125202795Y-115390000D01*
X125100010Y-115379500D01*
X123299998Y-115379500D01*
X123299981Y-115379501D01*
X123197203Y-115390000D01*
X123197200Y-115390001D01*
X123187530Y-115393206D01*
X123148526Y-115399500D01*
X121373641Y-115399500D01*
X121370040Y-115399395D01*
X121306065Y-115395669D01*
X121306064Y-115395669D01*
X121295023Y-115397616D01*
X121273491Y-115399500D01*
X117999751Y-115399500D01*
X117932712Y-115379815D01*
X117900485Y-115349812D01*
X117857548Y-115292457D01*
X117857546Y-115292454D01*
X117801503Y-115250500D01*
X117742335Y-115206206D01*
X117742328Y-115206202D01*
X117607482Y-115155908D01*
X117607483Y-115155908D01*
X117547883Y-115149501D01*
X117547881Y-115149500D01*
X117547873Y-115149500D01*
X117547864Y-115149500D01*
X115952129Y-115149500D01*
X115952123Y-115149501D01*
X115892516Y-115155908D01*
X115757671Y-115206202D01*
X115757664Y-115206206D01*
X115642455Y-115292452D01*
X115642452Y-115292455D01*
X115556206Y-115407664D01*
X115556202Y-115407671D01*
X115505908Y-115542517D01*
X115499501Y-115602116D01*
X115499500Y-115602135D01*
X115499500Y-117197870D01*
X114450500Y-117197870D01*
X114450499Y-115962228D01*
X114470184Y-115895190D01*
X114486813Y-115874553D01*
X116685638Y-113675727D01*
X116699267Y-113663950D01*
X116718530Y-113649610D01*
X116718532Y-113649606D01*
X116718534Y-113649606D01*
X116750723Y-113611243D01*
X116752113Y-113609585D01*
X116755767Y-113605599D01*
X116761591Y-113599776D01*
X116781930Y-113574052D01*
X116831302Y-113515214D01*
X116831306Y-113515205D01*
X116835274Y-113509175D01*
X116835325Y-113509208D01*
X116839372Y-113502856D01*
X116839320Y-113502824D01*
X116843112Y-113496675D01*
X116875575Y-113427058D01*
X116910036Y-113358440D01*
X116910040Y-113358433D01*
X116910042Y-113358421D01*
X116912509Y-113351646D01*
X116912567Y-113351667D01*
X116915043Y-113344546D01*
X116914986Y-113344527D01*
X116917255Y-113337679D01*
X116917255Y-113337675D01*
X116917257Y-113337673D01*
X116932791Y-113262437D01*
X116940210Y-113231132D01*
X116974824Y-113170440D01*
X117036756Y-113138096D01*
X117106344Y-113144369D01*
X117148549Y-113172048D01*
X118063181Y-114086680D01*
X118096666Y-114148003D01*
X118099500Y-114174359D01*
X118099500Y-114223335D01*
X118099501Y-114223355D01*
X118109650Y-114322707D01*
X118109651Y-114322710D01*
X118162996Y-114483694D01*
X118163001Y-114483705D01*
X118252029Y-114628040D01*
X118252032Y-114628044D01*
X118371955Y-114747967D01*
X118371959Y-114747970D01*
X118516294Y-114836998D01*
X118516297Y-114836999D01*
X118516303Y-114837003D01*
X118677292Y-114890349D01*
X118776655Y-114900500D01*
X119623344Y-114900499D01*
X119623352Y-114900498D01*
X119623355Y-114900498D01*
X119688963Y-114893796D01*
X119722708Y-114890349D01*
X119883697Y-114837003D01*
X120028044Y-114747968D01*
X120147968Y-114628044D01*
X120237003Y-114483697D01*
X120290349Y-114322708D01*
X120300500Y-114223345D01*
X120300499Y-113775000D01*
X120775001Y-113775000D01*
X120775001Y-113798322D01*
X120785144Y-113897607D01*
X120838452Y-114058481D01*
X120838457Y-114058492D01*
X120927424Y-114202728D01*
X120927427Y-114202732D01*
X121047267Y-114322572D01*
X121047271Y-114322575D01*
X121191507Y-114411542D01*
X121191518Y-114411547D01*
X121352393Y-114464855D01*
X121451683Y-114474999D01*
X121499999Y-114474998D01*
X121500000Y-114474998D01*
X121500000Y-113775000D01*
X122000000Y-113775000D01*
X122000000Y-114474999D01*
X122048308Y-114474999D01*
X122048322Y-114474998D01*
X122147607Y-114464855D01*
X122192437Y-114450000D01*
X126800000Y-114450000D01*
X126800000Y-115474999D01*
X126800002Y-115475000D01*
X128575000Y-115475000D01*
X128575000Y-114450000D01*
X129075000Y-114450000D01*
X129075000Y-115475000D01*
X130250000Y-115475000D01*
X130249999Y-115474999D01*
X130250000Y-114450000D01*
X129075000Y-114450000D01*
X128575000Y-114450000D01*
X126800000Y-114450000D01*
X122192437Y-114450000D01*
X122308481Y-114411547D01*
X122308492Y-114411542D01*
X122452728Y-114322575D01*
X122452732Y-114322572D01*
X122572572Y-114202732D01*
X122572575Y-114202728D01*
X122661542Y-114058492D01*
X122661547Y-114058481D01*
X122697494Y-113949999D01*
X126799999Y-113949999D01*
X126800000Y-113950000D01*
X128575000Y-113950000D01*
X128575000Y-112925000D01*
X129075000Y-112925000D01*
X129075000Y-113950000D01*
X130249999Y-113950000D01*
X130250000Y-112925000D01*
X130750000Y-112925000D01*
X130750000Y-115475000D01*
X131925000Y-115475000D01*
X131925000Y-112925000D01*
X130750000Y-112925000D01*
X130250000Y-112925000D01*
X129075000Y-112925000D01*
X128575000Y-112925000D01*
X126800000Y-112925000D01*
X126799999Y-113949999D01*
X122697494Y-113949999D01*
X122714855Y-113897606D01*
X122724999Y-113798322D01*
X122725000Y-113798309D01*
X122725000Y-113775000D01*
X122000000Y-113775000D01*
X121500000Y-113775000D01*
X120775001Y-113775000D01*
X120300499Y-113775000D01*
X120300499Y-113676656D01*
X120296631Y-113638794D01*
X120290349Y-113577292D01*
X120290348Y-113577289D01*
X120282010Y-113552127D01*
X120237003Y-113416303D01*
X120236999Y-113416297D01*
X120236998Y-113416294D01*
X120147970Y-113271959D01*
X120147967Y-113271955D01*
X120028044Y-113152032D01*
X120028040Y-113152029D01*
X119883705Y-113063001D01*
X119883699Y-113062998D01*
X119883697Y-113062997D01*
X119850893Y-113052127D01*
X119722709Y-113009651D01*
X119623352Y-112999500D01*
X119623345Y-112999500D01*
X119574361Y-112999500D01*
X119507322Y-112979815D01*
X119486680Y-112963181D01*
X118018764Y-111495265D01*
X118006126Y-111480468D01*
X117997887Y-111469128D01*
X117946277Y-111422657D01*
X117943922Y-111420423D01*
X117928382Y-111404882D01*
X117911295Y-111391043D01*
X117908831Y-111388939D01*
X117857220Y-111342470D01*
X117857213Y-111342465D01*
X117845070Y-111335454D01*
X117829043Y-111324438D01*
X117818153Y-111315620D01*
X117818150Y-111315618D01*
X117818149Y-111315617D01*
X117789762Y-111301153D01*
X117738967Y-111253177D01*
X117722173Y-111185356D01*
X117744712Y-111119221D01*
X117758374Y-111102992D01*
X117900658Y-110960707D01*
X117961981Y-110927223D01*
X118031673Y-110932207D01*
X118087606Y-110974079D01*
X118106889Y-111016490D01*
X118107521Y-111016281D01*
X118109473Y-111022173D01*
X118109593Y-111022436D01*
X118109652Y-111022712D01*
X118162996Y-111183694D01*
X118163001Y-111183705D01*
X118252029Y-111328040D01*
X118252032Y-111328044D01*
X118371955Y-111447967D01*
X118371959Y-111447970D01*
X118516294Y-111536998D01*
X118516297Y-111536999D01*
X118516303Y-111537003D01*
X118677292Y-111590349D01*
X118776655Y-111600500D01*
X119623344Y-111600499D01*
X119623352Y-111600498D01*
X119623355Y-111600498D01*
X119677760Y-111594940D01*
X119722708Y-111590349D01*
X119823970Y-111556794D01*
X119862975Y-111550500D01*
X120652629Y-111550500D01*
X120719668Y-111570185D01*
X120765423Y-111622989D01*
X120775986Y-111687103D01*
X120775231Y-111694499D01*
X120774500Y-111701655D01*
X120774500Y-112248337D01*
X120774501Y-112248355D01*
X120784650Y-112347707D01*
X120784651Y-112347710D01*
X120837996Y-112508694D01*
X120838001Y-112508705D01*
X120927029Y-112653040D01*
X120927032Y-112653044D01*
X120936660Y-112662672D01*
X120970145Y-112723995D01*
X120965161Y-112793687D01*
X120936663Y-112838031D01*
X120927428Y-112847265D01*
X120927424Y-112847271D01*
X120838457Y-112991507D01*
X120838452Y-112991518D01*
X120785144Y-113152393D01*
X120775000Y-113251677D01*
X120775000Y-113275000D01*
X122724999Y-113275000D01*
X122724999Y-113251692D01*
X122724998Y-113251677D01*
X122714855Y-113152392D01*
X122677117Y-113038504D01*
X122674715Y-112968675D01*
X122710447Y-112908634D01*
X122772968Y-112877441D01*
X122794823Y-112875500D01*
X122866910Y-112875500D01*
X122932006Y-112893961D01*
X123030659Y-112954810D01*
X123030660Y-112954810D01*
X123030666Y-112954814D01*
X123197203Y-113009999D01*
X123299991Y-113020500D01*
X125100008Y-113020499D01*
X125202797Y-113009999D01*
X125369334Y-112954814D01*
X125518656Y-112862712D01*
X125642712Y-112738656D01*
X125734814Y-112589334D01*
X125789269Y-112425000D01*
X126800000Y-112425000D01*
X128574999Y-112425000D01*
X128575000Y-110800000D01*
X129075000Y-110800000D01*
X129075000Y-112425000D01*
X130250000Y-112425000D01*
X130250000Y-110800000D01*
X130750000Y-110800000D01*
X130750000Y-112425000D01*
X131925000Y-112425000D01*
X131925000Y-110800000D01*
X130750000Y-110800000D01*
X130250000Y-110800000D01*
X129075000Y-110800000D01*
X128575000Y-110800000D01*
X127499607Y-110800000D01*
X127498208Y-110800185D01*
X127495040Y-110800510D01*
X127492292Y-110800000D01*
X127490027Y-110800000D01*
X127490027Y-110799579D01*
X127426344Y-110787759D01*
X127384536Y-110748440D01*
X127369073Y-110794100D01*
X127314440Y-110837654D01*
X127306594Y-110840551D01*
X127230879Y-110865640D01*
X127230874Y-110865642D01*
X127081653Y-110957683D01*
X126957683Y-111081653D01*
X126865642Y-111230874D01*
X126865640Y-111230879D01*
X126810494Y-111397301D01*
X126800000Y-111500011D01*
X126800000Y-112425000D01*
X125789269Y-112425000D01*
X125789999Y-112422797D01*
X125800500Y-112320009D01*
X125800499Y-111519992D01*
X125798742Y-111502796D01*
X125789999Y-111417203D01*
X125789998Y-111417200D01*
X125772037Y-111362997D01*
X125734814Y-111250666D01*
X125642712Y-111101344D01*
X125518656Y-110977288D01*
X125391189Y-110898666D01*
X125369336Y-110885187D01*
X125369331Y-110885185D01*
X125310354Y-110865642D01*
X125202797Y-110830001D01*
X125202795Y-110830000D01*
X125100016Y-110819500D01*
X125100009Y-110819500D01*
X124949500Y-110819500D01*
X124882461Y-110799815D01*
X124836706Y-110747011D01*
X124825500Y-110695500D01*
X124825500Y-110552127D01*
X124825500Y-110381723D01*
X124843960Y-110316631D01*
X124934814Y-110169334D01*
X124989999Y-110002797D01*
X125000500Y-109900009D01*
X125000500Y-109450000D01*
X125800001Y-109450000D01*
X125800001Y-109899986D01*
X125810494Y-110002697D01*
X125865641Y-110169119D01*
X125865643Y-110169124D01*
X125957684Y-110318345D01*
X126081654Y-110442315D01*
X126230875Y-110534356D01*
X126230880Y-110534358D01*
X126397302Y-110589505D01*
X126397309Y-110589506D01*
X126500019Y-110599999D01*
X126624999Y-110599999D01*
X126625000Y-110599998D01*
X126625000Y-109450000D01*
X127125000Y-109450000D01*
X127125000Y-110599999D01*
X127249972Y-110599999D01*
X127249993Y-110599997D01*
X127254983Y-110599488D01*
X127323677Y-110612254D01*
X127365458Y-110651566D01*
X127380905Y-110605924D01*
X127435528Y-110562357D01*
X127443401Y-110559449D01*
X127519119Y-110534358D01*
X127519124Y-110534356D01*
X127668345Y-110442315D01*
X127792315Y-110318345D01*
X127884356Y-110169124D01*
X127884358Y-110169119D01*
X127939505Y-110002697D01*
X127939506Y-110002690D01*
X127949999Y-109899986D01*
X127950000Y-109899973D01*
X127950000Y-109450000D01*
X127125000Y-109450000D01*
X126625000Y-109450000D01*
X125800001Y-109450000D01*
X125000500Y-109450000D01*
X125000499Y-108950000D01*
X125800000Y-108950000D01*
X126625000Y-108950000D01*
X126625000Y-107800000D01*
X127125000Y-107800000D01*
X127125000Y-108950000D01*
X127949999Y-108950000D01*
X127949999Y-108500028D01*
X127949998Y-108500013D01*
X127939505Y-108397302D01*
X127884358Y-108230880D01*
X127884356Y-108230875D01*
X127792315Y-108081654D01*
X127668345Y-107957684D01*
X127519124Y-107865643D01*
X127519119Y-107865641D01*
X127352697Y-107810494D01*
X127352690Y-107810493D01*
X127249986Y-107800000D01*
X127125000Y-107800000D01*
X126625000Y-107800000D01*
X126500027Y-107800000D01*
X126500012Y-107800001D01*
X126397302Y-107810494D01*
X126230880Y-107865641D01*
X126230875Y-107865643D01*
X126081654Y-107957684D01*
X125957684Y-108081654D01*
X125865643Y-108230875D01*
X125865641Y-108230880D01*
X125810494Y-108397302D01*
X125810493Y-108397309D01*
X125800000Y-108500013D01*
X125800000Y-108950000D01*
X125000499Y-108950000D01*
X125000499Y-108499992D01*
X124995088Y-108447026D01*
X124989999Y-108397203D01*
X124989998Y-108397200D01*
X124934814Y-108230666D01*
X124931003Y-108224487D01*
X124843961Y-108083368D01*
X124825500Y-108018273D01*
X124825500Y-107968081D01*
X124825500Y-107917260D01*
X124845183Y-107850225D01*
X124897986Y-107804469D01*
X124962101Y-107793905D01*
X125026655Y-107800500D01*
X125573344Y-107800499D01*
X125573352Y-107800498D01*
X125573355Y-107800498D01*
X125637896Y-107793905D01*
X125672708Y-107790349D01*
X125833697Y-107737003D01*
X125978044Y-107647968D01*
X126097968Y-107528044D01*
X126187003Y-107383697D01*
X126240349Y-107222708D01*
X126250500Y-107123345D01*
X126250499Y-106276656D01*
X126240349Y-106177292D01*
X126187003Y-106016303D01*
X126186999Y-106016297D01*
X126186998Y-106016294D01*
X126097970Y-105871959D01*
X126097967Y-105871955D01*
X125978044Y-105752032D01*
X125978040Y-105752029D01*
X125833705Y-105663001D01*
X125833699Y-105662998D01*
X125833697Y-105662997D01*
X125783508Y-105646366D01*
X125672709Y-105609651D01*
X125573346Y-105599500D01*
X125026662Y-105599500D01*
X125026644Y-105599501D01*
X124927292Y-105609650D01*
X124927289Y-105609651D01*
X124766305Y-105662996D01*
X124766294Y-105663001D01*
X124621956Y-105752030D01*
X124596338Y-105777649D01*
X124535014Y-105811133D01*
X124521630Y-105813286D01*
X124511748Y-105814325D01*
X124511737Y-105814327D01*
X124459485Y-105831305D01*
X124445684Y-105835789D01*
X124442603Y-105836702D01*
X124397073Y-105848902D01*
X124375512Y-105854680D01*
X124363017Y-105861046D01*
X124345056Y-105868485D01*
X124331715Y-105872820D01*
X124331713Y-105872821D01*
X124271583Y-105907536D01*
X124268732Y-105909085D01*
X124206855Y-105940612D01*
X124206850Y-105940616D01*
X124195946Y-105949445D01*
X124179927Y-105960454D01*
X124167788Y-105967463D01*
X124167785Y-105967465D01*
X124116189Y-106013922D01*
X124113725Y-106016027D01*
X124096628Y-106029873D01*
X124096612Y-106029887D01*
X124081055Y-106045444D01*
X124078703Y-106047675D01*
X124027113Y-106094127D01*
X124027105Y-106094136D01*
X124018872Y-106105468D01*
X124006238Y-106120260D01*
X123345263Y-106781236D01*
X123330474Y-106793869D01*
X123319126Y-106802114D01*
X123272666Y-106853713D01*
X123270435Y-106856065D01*
X123254890Y-106871610D01*
X123254875Y-106871627D01*
X123241039Y-106888710D01*
X123238936Y-106891172D01*
X123192469Y-106942781D01*
X123192466Y-106942785D01*
X123185458Y-106954923D01*
X123174444Y-106970948D01*
X123165626Y-106981837D01*
X123165616Y-106981853D01*
X123134082Y-107043740D01*
X123132533Y-107046592D01*
X123097821Y-107106713D01*
X123093487Y-107120053D01*
X123086045Y-107138018D01*
X123079680Y-107150512D01*
X123061706Y-107217584D01*
X123060785Y-107220692D01*
X123039326Y-107286742D01*
X123039325Y-107286745D01*
X123037860Y-107300686D01*
X123034315Y-107319812D01*
X123030686Y-107333352D01*
X123027051Y-107402710D01*
X123026797Y-107405941D01*
X123024500Y-107427810D01*
X123024500Y-107449797D01*
X123024415Y-107453042D01*
X123020781Y-107522387D01*
X123022973Y-107536225D01*
X123024500Y-107555626D01*
X123024499Y-108018272D01*
X123006038Y-108083368D01*
X122911395Y-108236812D01*
X122908726Y-108235165D01*
X122871619Y-108277074D01*
X122804373Y-108296039D01*
X122799221Y-108295877D01*
X122797388Y-108295781D01*
X122797387Y-108295781D01*
X122762423Y-108297613D01*
X122728041Y-108299415D01*
X122724798Y-108299500D01*
X122702808Y-108299500D01*
X122696559Y-108300156D01*
X122680941Y-108301797D01*
X122677710Y-108302051D01*
X122608358Y-108305686D01*
X122608353Y-108305687D01*
X122594803Y-108309317D01*
X122575691Y-108312859D01*
X122561749Y-108314325D01*
X122561737Y-108314327D01*
X122509469Y-108331310D01*
X122495687Y-108335788D01*
X122492607Y-108336701D01*
X122455695Y-108346591D01*
X122425514Y-108354679D01*
X122425512Y-108354679D01*
X122425512Y-108354680D01*
X122419601Y-108357692D01*
X122413020Y-108361045D01*
X122395053Y-108368487D01*
X122381714Y-108372821D01*
X122321591Y-108407533D01*
X122318740Y-108409081D01*
X122256850Y-108440617D01*
X122245951Y-108449442D01*
X122229931Y-108460452D01*
X122217787Y-108467464D01*
X122217783Y-108467467D01*
X122166190Y-108513921D01*
X122163726Y-108516026D01*
X122146620Y-108529879D01*
X122131056Y-108545443D01*
X122128719Y-108547660D01*
X122107206Y-108567030D01*
X122077113Y-108594127D01*
X122077109Y-108594131D01*
X122068874Y-108605467D01*
X122056238Y-108620261D01*
X121555189Y-109121310D01*
X121493866Y-109154795D01*
X121424174Y-109149811D01*
X121368241Y-109107939D01*
X121343824Y-109042475D01*
X121349801Y-108994627D01*
X121365349Y-108947708D01*
X121375500Y-108848345D01*
X121375499Y-108301656D01*
X121375340Y-108300104D01*
X121365349Y-108202292D01*
X121365348Y-108202289D01*
X121312003Y-108041303D01*
X121311999Y-108041297D01*
X121311998Y-108041294D01*
X121222970Y-107896959D01*
X121222967Y-107896955D01*
X121213693Y-107887681D01*
X121180208Y-107826358D01*
X121185192Y-107756666D01*
X121213693Y-107712319D01*
X121218327Y-107707685D01*
X121222968Y-107703044D01*
X121312003Y-107558697D01*
X121365349Y-107397708D01*
X121375500Y-107298345D01*
X121375499Y-106751656D01*
X121374380Y-106740706D01*
X121365349Y-106652292D01*
X121365348Y-106652289D01*
X121342754Y-106584105D01*
X121312003Y-106491303D01*
X121311999Y-106491297D01*
X121311998Y-106491294D01*
X121222970Y-106346959D01*
X121222967Y-106346955D01*
X121103044Y-106227032D01*
X121103040Y-106227029D01*
X120958705Y-106138001D01*
X120958699Y-106137998D01*
X120958697Y-106137997D01*
X120925890Y-106127126D01*
X120797709Y-106084651D01*
X120698346Y-106074500D01*
X120101662Y-106074500D01*
X120101644Y-106074501D01*
X120002292Y-106084650D01*
X120002289Y-106084651D01*
X119841305Y-106137996D01*
X119841300Y-106137998D01*
X119739597Y-106200730D01*
X119672204Y-106219170D01*
X119605541Y-106198247D01*
X119560771Y-106144605D01*
X119550500Y-106095191D01*
X119550500Y-105991519D01*
X119570185Y-105924480D01*
X119586820Y-105903837D01*
X119589430Y-105901227D01*
X119630472Y-105860185D01*
X119718478Y-105714606D01*
X119769086Y-105552196D01*
X119775500Y-105481616D01*
X119775500Y-104968384D01*
X119769086Y-104897804D01*
X119718478Y-104735394D01*
X119630472Y-104589815D01*
X119630470Y-104589813D01*
X119630469Y-104589811D01*
X119527984Y-104487326D01*
X119494499Y-104426003D01*
X119499483Y-104356311D01*
X119527985Y-104311963D01*
X119630071Y-104209878D01*
X119630072Y-104209877D01*
X119718019Y-104064395D01*
X119768590Y-103902106D01*
X119775000Y-103831572D01*
X119775000Y-103825000D01*
X118674000Y-103825000D01*
X118606961Y-103805315D01*
X118561206Y-103752511D01*
X118550000Y-103701000D01*
X118550000Y-102675000D01*
X119050000Y-102675000D01*
X119050000Y-103325000D01*
X119774999Y-103325000D01*
X119774999Y-103318417D01*
X119768591Y-103247897D01*
X119768590Y-103247892D01*
X119730295Y-103125000D01*
X128750000Y-103125000D01*
X128750000Y-103672844D01*
X128756401Y-103732372D01*
X128756403Y-103732379D01*
X128806645Y-103867086D01*
X128806649Y-103867093D01*
X128892809Y-103982187D01*
X128892812Y-103982190D01*
X129007906Y-104068350D01*
X129007913Y-104068354D01*
X129142620Y-104118596D01*
X129142627Y-104118598D01*
X129202155Y-104124999D01*
X129202172Y-104125000D01*
X129750000Y-104125000D01*
X129750000Y-103125000D01*
X128750000Y-103125000D01*
X119730295Y-103125000D01*
X119718018Y-103085603D01*
X119630072Y-102940122D01*
X119594252Y-102904302D01*
X129646372Y-102904302D01*
X129675047Y-103017538D01*
X129738936Y-103115327D01*
X129831115Y-103187072D01*
X129941595Y-103225000D01*
X130029005Y-103225000D01*
X130115216Y-103210614D01*
X130217947Y-103155019D01*
X130245581Y-103125000D01*
X130250000Y-103125000D01*
X130250000Y-104125000D01*
X130797828Y-104125000D01*
X130797844Y-104124999D01*
X130857372Y-104118598D01*
X130857379Y-104118596D01*
X130992086Y-104068354D01*
X130992093Y-104068350D01*
X131107187Y-103982190D01*
X131107190Y-103982187D01*
X131193350Y-103867093D01*
X131193354Y-103867086D01*
X131243596Y-103732379D01*
X131243598Y-103732372D01*
X131249999Y-103672844D01*
X131250000Y-103672827D01*
X131250000Y-103125000D01*
X130250000Y-103125000D01*
X130245581Y-103125000D01*
X130297060Y-103069079D01*
X130343982Y-102962108D01*
X130353628Y-102845698D01*
X130324953Y-102732462D01*
X130261064Y-102634673D01*
X130168885Y-102562928D01*
X130058405Y-102525000D01*
X129970995Y-102525000D01*
X129884784Y-102539386D01*
X129782053Y-102594981D01*
X129702940Y-102680921D01*
X129656018Y-102787892D01*
X129646372Y-102904302D01*
X119594252Y-102904302D01*
X119509877Y-102819927D01*
X119364395Y-102731980D01*
X119364396Y-102731980D01*
X119202105Y-102681409D01*
X119202106Y-102681409D01*
X119131572Y-102675000D01*
X119050000Y-102675000D01*
X118550000Y-102675000D01*
X118549999Y-102674999D01*
X118468417Y-102675000D01*
X118397897Y-102681408D01*
X118397892Y-102681409D01*
X118235602Y-102731981D01*
X118138149Y-102790894D01*
X118070594Y-102808730D01*
X118004120Y-102787212D01*
X117959833Y-102733172D01*
X117949999Y-102684777D01*
X117949999Y-102650000D01*
X115800001Y-102650000D01*
X115800001Y-103099986D01*
X115810494Y-103202697D01*
X115865641Y-103369119D01*
X115865646Y-103369130D01*
X115900048Y-103424903D01*
X115918489Y-103492295D01*
X115897567Y-103558959D01*
X115857632Y-103596731D01*
X115798140Y-103631914D01*
X115798129Y-103631923D01*
X115681923Y-103748129D01*
X115681917Y-103748137D01*
X115598255Y-103889603D01*
X115598254Y-103889606D01*
X115588670Y-103922595D01*
X115551064Y-103981481D01*
X115487591Y-104010687D01*
X115469594Y-104012000D01*
X115424500Y-104012000D01*
X115357461Y-103992315D01*
X115311706Y-103939511D01*
X115300500Y-103888000D01*
X115300500Y-102934061D01*
X115300500Y-102934058D01*
X115285674Y-102792994D01*
X115231089Y-102625000D01*
X128749999Y-102625000D01*
X129750000Y-102625000D01*
X129750000Y-101625000D01*
X130250000Y-101625000D01*
X130250000Y-102625000D01*
X131250000Y-102625000D01*
X131250000Y-102077172D01*
X131249999Y-102077155D01*
X131243598Y-102017627D01*
X131243596Y-102017620D01*
X131193354Y-101882913D01*
X131193350Y-101882906D01*
X131107190Y-101767812D01*
X131107187Y-101767809D01*
X130992093Y-101681649D01*
X130992086Y-101681645D01*
X130857379Y-101631403D01*
X130857372Y-101631401D01*
X130797844Y-101625000D01*
X130250000Y-101625000D01*
X129750000Y-101625000D01*
X129202155Y-101625000D01*
X129142627Y-101631401D01*
X129142620Y-101631403D01*
X129007913Y-101681645D01*
X129007906Y-101681649D01*
X128892812Y-101767809D01*
X128892809Y-101767812D01*
X128806649Y-101882906D01*
X128806645Y-101882913D01*
X128756403Y-102017620D01*
X128756401Y-102017627D01*
X128750000Y-102077155D01*
X128750000Y-102077172D01*
X128749999Y-102625000D01*
X115231089Y-102625000D01*
X115227179Y-102612966D01*
X115132533Y-102449034D01*
X115070052Y-102379642D01*
X115032348Y-102337767D01*
X115002118Y-102274775D01*
X115000499Y-102254807D01*
X115000499Y-102150000D01*
X115800000Y-102150000D01*
X116624999Y-102150000D01*
X116624999Y-101000000D01*
X117125000Y-101000000D01*
X117125000Y-102150000D01*
X117949999Y-102150000D01*
X117949999Y-101700028D01*
X117949998Y-101700013D01*
X117939505Y-101597302D01*
X117884358Y-101430880D01*
X117884356Y-101430875D01*
X117792315Y-101281654D01*
X117668345Y-101157684D01*
X117519124Y-101065643D01*
X117519119Y-101065641D01*
X117352697Y-101010494D01*
X117352690Y-101010493D01*
X117249986Y-101000000D01*
X117125000Y-101000000D01*
X116624999Y-101000000D01*
X116500027Y-101000000D01*
X116500012Y-101000001D01*
X116397302Y-101010494D01*
X116230880Y-101065641D01*
X116230875Y-101065643D01*
X116081654Y-101157684D01*
X115957684Y-101281654D01*
X115865643Y-101430875D01*
X115865641Y-101430880D01*
X115810494Y-101597302D01*
X115810493Y-101597309D01*
X115800000Y-101700013D01*
X115800000Y-102150000D01*
X115000499Y-102150000D01*
X115000499Y-101699992D01*
X114992838Y-101625000D01*
X114989999Y-101597203D01*
X114989998Y-101597200D01*
X114934814Y-101430666D01*
X114842712Y-101281344D01*
X114718656Y-101157288D01*
X114569334Y-101065186D01*
X114402797Y-101010001D01*
X114402795Y-101010000D01*
X114300010Y-100999500D01*
X113549998Y-100999500D01*
X113549980Y-100999501D01*
X113447203Y-101010000D01*
X113447200Y-101010001D01*
X113280668Y-101065185D01*
X113280663Y-101065187D01*
X113131342Y-101157289D01*
X113007289Y-101281342D01*
X112915187Y-101430663D01*
X112915185Y-101430668D01*
X112915115Y-101430880D01*
X112860001Y-101597203D01*
X112860001Y-101597204D01*
X112860000Y-101597204D01*
X112849500Y-101699983D01*
X112849500Y-101975500D01*
X112829815Y-102042539D01*
X112777011Y-102088294D01*
X112725500Y-102099500D01*
X110626845Y-102099500D01*
X110610555Y-102097835D01*
X110610550Y-102097895D01*
X110603360Y-102097265D01*
X110526583Y-102099500D01*
X107566977Y-102099500D01*
X107499938Y-102079815D01*
X107454183Y-102027011D01*
X107446733Y-101999865D01*
X107445876Y-102000068D01*
X107444092Y-101992520D01*
X107393797Y-101857671D01*
X107393793Y-101857664D01*
X107307547Y-101742455D01*
X107307544Y-101742452D01*
X107192335Y-101656206D01*
X107192328Y-101656202D01*
X107057482Y-101605908D01*
X107057483Y-101605908D01*
X106997883Y-101599501D01*
X106997881Y-101599500D01*
X106997873Y-101599500D01*
X106997864Y-101599500D01*
X105402129Y-101599500D01*
X105402123Y-101599501D01*
X105342516Y-101605908D01*
X105207671Y-101656202D01*
X105207664Y-101656206D01*
X105092455Y-101742452D01*
X105092452Y-101742455D01*
X105006206Y-101857664D01*
X105006202Y-101857671D01*
X104955908Y-101992517D01*
X104949501Y-102052116D01*
X104949500Y-102052135D01*
X104949500Y-103647870D01*
X104949501Y-103647876D01*
X104955908Y-103707483D01*
X105006202Y-103842328D01*
X105006206Y-103842335D01*
X105092452Y-103957544D01*
X105092455Y-103957547D01*
X105207664Y-104043793D01*
X105207671Y-104043797D01*
X105342517Y-104094091D01*
X105342516Y-104094091D01*
X105349444Y-104094835D01*
X105402127Y-104100500D01*
X106997872Y-104100499D01*
X107057483Y-104094091D01*
X107192331Y-104043796D01*
X107307546Y-103957546D01*
X107393796Y-103842331D01*
X107444091Y-103707483D01*
X107444091Y-103707481D01*
X107445874Y-103699938D01*
X107448146Y-103700474D01*
X107470429Y-103646688D01*
X107527823Y-103606843D01*
X107566976Y-103600500D01*
X109038770Y-103600500D01*
X109105809Y-103620185D01*
X109151564Y-103672989D01*
X109161508Y-103742147D01*
X109132483Y-103805703D01*
X109126451Y-103812181D01*
X108514358Y-104424272D01*
X108500729Y-104436051D01*
X108481468Y-104450390D01*
X108447898Y-104490397D01*
X108444253Y-104494376D01*
X108438409Y-104500222D01*
X108418059Y-104525959D01*
X108368695Y-104584789D01*
X108364729Y-104590819D01*
X108364682Y-104590788D01*
X108360630Y-104597147D01*
X108360679Y-104597177D01*
X108356889Y-104603321D01*
X108324424Y-104672941D01*
X108289960Y-104741566D01*
X108287488Y-104748357D01*
X108287432Y-104748336D01*
X108284960Y-104755450D01*
X108285015Y-104755469D01*
X108282742Y-104762327D01*
X108274975Y-104799946D01*
X108267207Y-104837565D01*
X108262385Y-104857913D01*
X108249498Y-104912286D01*
X108248661Y-104919454D01*
X108248601Y-104919447D01*
X108247835Y-104926945D01*
X108247895Y-104926951D01*
X108247265Y-104934140D01*
X108249500Y-105010916D01*
X108249499Y-107936649D01*
X108229814Y-108003688D01*
X108177010Y-108049443D01*
X108107852Y-108059387D01*
X108051189Y-108035916D01*
X108012093Y-108006649D01*
X108012086Y-108006645D01*
X107877379Y-107956403D01*
X107877372Y-107956401D01*
X107817844Y-107950000D01*
X107798541Y-107950000D01*
X107731502Y-107930315D01*
X107685747Y-107877511D01*
X107674700Y-107819720D01*
X107675168Y-107810493D01*
X107684369Y-107629064D01*
X107653556Y-107427929D01*
X107607719Y-107304164D01*
X107600000Y-107261099D01*
X107600000Y-106500000D01*
X100124500Y-106500000D01*
X100057461Y-106480315D01*
X100011706Y-106427511D01*
X100000500Y-106376000D01*
X100000500Y-100124500D01*
X100020185Y-100057461D01*
X100072989Y-100011706D01*
X100124500Y-100000500D01*
X150875500Y-100000500D01*
X150942539Y-100020185D01*
G37*
%TD.AperFunction*%
%TA.AperFunction,Conductor*%
G36*
X111167539Y-110769685D02*
G01*
X111213294Y-110822489D01*
X111224500Y-110874000D01*
X111224500Y-113526000D01*
X111204815Y-113593039D01*
X111152011Y-113638794D01*
X111100500Y-113650000D01*
X110899000Y-113650000D01*
X110831961Y-113630315D01*
X110786206Y-113577511D01*
X110775000Y-113526000D01*
X110775000Y-112425000D01*
X110774999Y-112424999D01*
X110768436Y-112425000D01*
X110768417Y-112425001D01*
X110697897Y-112431408D01*
X110697892Y-112431409D01*
X110535603Y-112481981D01*
X110390122Y-112569927D01*
X110390121Y-112569928D01*
X110288035Y-112672015D01*
X110226712Y-112705500D01*
X110157020Y-112700516D01*
X110112673Y-112672015D01*
X110010188Y-112569530D01*
X109895170Y-112499999D01*
X109864606Y-112481522D01*
X109702196Y-112430914D01*
X109702194Y-112430913D01*
X109702192Y-112430913D01*
X109652778Y-112426423D01*
X109631616Y-112424500D01*
X109118384Y-112424500D01*
X109099145Y-112426248D01*
X109047807Y-112430913D01*
X108885393Y-112481522D01*
X108739811Y-112569530D01*
X108619530Y-112689811D01*
X108531521Y-112835396D01*
X108512884Y-112895204D01*
X108474146Y-112953351D01*
X108410121Y-112981325D01*
X108341136Y-112970243D01*
X108289093Y-112923624D01*
X108270499Y-112858315D01*
X108270499Y-112552128D01*
X108270499Y-112552127D01*
X108270498Y-112552111D01*
X108266320Y-112513253D01*
X108266320Y-112486747D01*
X108270500Y-112447873D01*
X108270499Y-112052128D01*
X108270499Y-112052127D01*
X108270498Y-112052111D01*
X108266320Y-112013253D01*
X108266320Y-111986747D01*
X108270500Y-111947873D01*
X108270499Y-111552128D01*
X108270499Y-111552127D01*
X108270321Y-111548803D01*
X108271348Y-111548748D01*
X108282983Y-111484199D01*
X108330585Y-111433054D01*
X108398282Y-111415764D01*
X108464580Y-111437818D01*
X108508429Y-111492215D01*
X108512259Y-111502788D01*
X108531522Y-111564606D01*
X108614371Y-111701655D01*
X108619530Y-111710188D01*
X108739811Y-111830469D01*
X108739813Y-111830470D01*
X108739815Y-111830472D01*
X108885394Y-111918478D01*
X109047804Y-111969086D01*
X109118384Y-111975500D01*
X109118387Y-111975500D01*
X109631613Y-111975500D01*
X109631616Y-111975500D01*
X109702196Y-111969086D01*
X109864606Y-111918478D01*
X110010185Y-111830472D01*
X110112673Y-111727983D01*
X110173994Y-111694499D01*
X110243685Y-111699483D01*
X110288034Y-111727984D01*
X110390122Y-111830072D01*
X110535604Y-111918019D01*
X110535603Y-111918019D01*
X110697894Y-111968590D01*
X110697893Y-111968590D01*
X110768408Y-111974998D01*
X110768426Y-111974999D01*
X110774999Y-111974998D01*
X110775000Y-111974998D01*
X110775000Y-110874000D01*
X110794685Y-110806961D01*
X110847489Y-110761206D01*
X110899000Y-110750000D01*
X111100500Y-110750000D01*
X111167539Y-110769685D01*
G37*
%TD.AperFunction*%
%TA.AperFunction,Conductor*%
G36*
X116393039Y-108894685D02*
G01*
X116438794Y-108947489D01*
X116450000Y-108999000D01*
X116450000Y-110237269D01*
X116430315Y-110304308D01*
X116413681Y-110324950D01*
X115775449Y-110963181D01*
X115714126Y-110996666D01*
X115687769Y-110999500D01*
X115499999Y-110999500D01*
X115499980Y-110999501D01*
X115397203Y-111010000D01*
X115397200Y-111010001D01*
X115230668Y-111065185D01*
X115230663Y-111065187D01*
X115146584Y-111117047D01*
X115083368Y-111156039D01*
X115018273Y-111174500D01*
X113727808Y-111174500D01*
X113586744Y-111189326D01*
X113586741Y-111189326D01*
X113586740Y-111189327D01*
X113406714Y-111247821D01*
X113345975Y-111282888D01*
X113283978Y-111299500D01*
X113176663Y-111299500D01*
X113176644Y-111299501D01*
X113077292Y-111309650D01*
X113077289Y-111309651D01*
X112916305Y-111362996D01*
X112916290Y-111363003D01*
X112914589Y-111364053D01*
X112913260Y-111364416D01*
X112909755Y-111366051D01*
X112909475Y-111365451D01*
X112847196Y-111382489D01*
X112780534Y-111361562D01*
X112735768Y-111307916D01*
X112725500Y-111258510D01*
X112725500Y-110388705D01*
X112726809Y-110370735D01*
X112730289Y-110346974D01*
X112725736Y-110294939D01*
X112725500Y-110289532D01*
X112725500Y-110281297D01*
X112725500Y-110281291D01*
X112721691Y-110248707D01*
X112714998Y-110172202D01*
X112714996Y-110172197D01*
X112713538Y-110165133D01*
X112713597Y-110165120D01*
X112711967Y-110157764D01*
X112711908Y-110157779D01*
X112710242Y-110150753D01*
X112710241Y-110150745D01*
X112683973Y-110078573D01*
X112675210Y-110052127D01*
X112659815Y-110005666D01*
X112656763Y-109999121D01*
X112656817Y-109999095D01*
X112653533Y-109992312D01*
X112653480Y-109992340D01*
X112650238Y-109985885D01*
X112619147Y-109938614D01*
X112611214Y-109926552D01*
X112590822Y-109859726D01*
X112609796Y-109792482D01*
X112662113Y-109746171D01*
X112731162Y-109735496D01*
X112779912Y-109752876D01*
X112916294Y-109836998D01*
X112916297Y-109836999D01*
X112916303Y-109837003D01*
X113077292Y-109890349D01*
X113176655Y-109900500D01*
X114023344Y-109900499D01*
X114023352Y-109900498D01*
X114023355Y-109900498D01*
X114077760Y-109894940D01*
X114122708Y-109890349D01*
X114283697Y-109837003D01*
X114428044Y-109747968D01*
X114547968Y-109628044D01*
X114584744Y-109568420D01*
X114636691Y-109521697D01*
X114705653Y-109510474D01*
X114769736Y-109538318D01*
X114808592Y-109596386D01*
X114809326Y-109599172D01*
X114865641Y-109769119D01*
X114865643Y-109769124D01*
X114957684Y-109918345D01*
X115081654Y-110042315D01*
X115230875Y-110134356D01*
X115230880Y-110134358D01*
X115397302Y-110189505D01*
X115397309Y-110189506D01*
X115500019Y-110199999D01*
X115949999Y-110199999D01*
X115950000Y-110199998D01*
X115950000Y-108999000D01*
X115969685Y-108931961D01*
X116022489Y-108886206D01*
X116074000Y-108875000D01*
X116326000Y-108875000D01*
X116393039Y-108894685D01*
G37*
%TD.AperFunction*%
%TA.AperFunction,Conductor*%
G36*
X112642539Y-107520185D02*
G01*
X112688294Y-107572989D01*
X112699500Y-107624500D01*
X112699500Y-108173125D01*
X112679815Y-108240164D01*
X112663181Y-108260806D01*
X112652034Y-108271953D01*
X112652030Y-108271956D01*
X112563001Y-108416294D01*
X112562996Y-108416305D01*
X112509651Y-108577290D01*
X112499500Y-108676647D01*
X112499500Y-109223337D01*
X112499501Y-109223355D01*
X112509650Y-109322707D01*
X112509651Y-109322710D01*
X112562996Y-109483694D01*
X112562998Y-109483699D01*
X112598306Y-109540941D01*
X112616746Y-109608333D01*
X112595824Y-109674997D01*
X112542182Y-109719767D01*
X112472851Y-109728428D01*
X112409843Y-109698232D01*
X112405086Y-109693719D01*
X112319700Y-109608333D01*
X112200729Y-109489361D01*
X112188949Y-109475730D01*
X112178727Y-109462000D01*
X112174612Y-109456472D01*
X112174418Y-109456309D01*
X112134587Y-109422886D01*
X112130612Y-109419244D01*
X112126344Y-109414976D01*
X112124780Y-109413411D01*
X112099040Y-109393059D01*
X112076362Y-109374030D01*
X112037659Y-109315859D01*
X112036550Y-109245998D01*
X112036991Y-109244442D01*
X112042640Y-109225000D01*
X111720616Y-109225000D01*
X111713416Y-109224581D01*
X111705554Y-109223662D01*
X111705560Y-109223602D01*
X111698055Y-109222835D01*
X111698050Y-109222895D01*
X111690860Y-109222265D01*
X111614083Y-109224500D01*
X110074500Y-109224500D01*
X110007461Y-109204815D01*
X109961706Y-109152011D01*
X109950500Y-109100500D01*
X109950499Y-108825595D01*
X109947765Y-108790847D01*
X109947765Y-108790844D01*
X109943161Y-108774998D01*
X110457358Y-108774998D01*
X110457360Y-108775000D01*
X111025000Y-108775000D01*
X111025000Y-108275000D01*
X111475000Y-108275000D01*
X111475000Y-108775000D01*
X112042640Y-108775000D01*
X112042641Y-108774998D01*
X112004093Y-108642318D01*
X112004092Y-108642315D01*
X111925317Y-108509114D01*
X111925311Y-108509105D01*
X111815894Y-108399688D01*
X111815885Y-108399682D01*
X111682684Y-108320907D01*
X111682681Y-108320906D01*
X111534084Y-108277734D01*
X111534073Y-108277732D01*
X111499357Y-108275000D01*
X111475000Y-108275000D01*
X111025000Y-108275000D01*
X111000647Y-108275001D01*
X110965921Y-108277733D01*
X110817318Y-108320906D01*
X110817315Y-108320907D01*
X110684114Y-108399682D01*
X110684105Y-108399688D01*
X110574688Y-108509105D01*
X110574682Y-108509114D01*
X110495907Y-108642315D01*
X110495906Y-108642318D01*
X110457358Y-108774998D01*
X109943161Y-108774998D01*
X109904555Y-108642113D01*
X109829394Y-108515023D01*
X109825717Y-108508805D01*
X109825710Y-108508796D01*
X109786819Y-108469905D01*
X109753334Y-108408582D01*
X109750500Y-108382224D01*
X109750500Y-107624500D01*
X109770185Y-107557461D01*
X109822989Y-107511706D01*
X109874500Y-107500500D01*
X109874992Y-107500500D01*
X111790308Y-107500500D01*
X112575500Y-107500500D01*
X112642539Y-107520185D01*
G37*
%TD.AperFunction*%
%TA.AperFunction,Conductor*%
G36*
X114982392Y-108048751D02*
G01*
X114982639Y-108048182D01*
X114987256Y-108050179D01*
X114988612Y-108050578D01*
X114989799Y-108051280D01*
X114995618Y-108053798D01*
X115049327Y-108098486D01*
X115070350Y-108165118D01*
X115052012Y-108232538D01*
X115034057Y-108255282D01*
X114957682Y-108331657D01*
X114870428Y-108473119D01*
X114818480Y-108519844D01*
X114749517Y-108531065D01*
X114685435Y-108503222D01*
X114647183Y-108447027D01*
X114637003Y-108416303D01*
X114636999Y-108416297D01*
X114636998Y-108416294D01*
X114558850Y-108289597D01*
X114540409Y-108222205D01*
X114561331Y-108155541D01*
X114614973Y-108110771D01*
X114664388Y-108100500D01*
X114665696Y-108100500D01*
X114691285Y-108098486D01*
X114702569Y-108097598D01*
X114702571Y-108097597D01*
X114702573Y-108097597D01*
X114744191Y-108085505D01*
X114860398Y-108051744D01*
X114861183Y-108051280D01*
X114862369Y-108050579D01*
X114864112Y-108050136D01*
X114867557Y-108048646D01*
X114867797Y-108049201D01*
X114930093Y-108033395D01*
X114982392Y-108048751D01*
G37*
%TD.AperFunction*%
%TA.AperFunction,Conductor*%
G36*
X115536633Y-105332685D02*
G01*
X115582388Y-105385489D01*
X115588670Y-105402405D01*
X115598254Y-105435393D01*
X115598255Y-105435396D01*
X115681917Y-105576862D01*
X115686702Y-105583031D01*
X115685018Y-105584336D01*
X115713246Y-105636031D01*
X115708262Y-105705723D01*
X115676234Y-105753461D01*
X115649999Y-105777702D01*
X115649999Y-106043184D01*
X115632732Y-106106303D01*
X115598258Y-106164596D01*
X115598254Y-106164607D01*
X115552402Y-106322426D01*
X115552401Y-106322432D01*
X115549500Y-106359304D01*
X115549500Y-107063500D01*
X115529815Y-107130539D01*
X115477011Y-107176294D01*
X115425500Y-107187500D01*
X115374500Y-107187500D01*
X115307461Y-107167815D01*
X115261706Y-107115011D01*
X115250500Y-107063500D01*
X115250499Y-106766488D01*
X115253209Y-106740706D01*
X115257513Y-106720460D01*
X115263000Y-106694646D01*
X115263000Y-106505354D01*
X115260011Y-106491294D01*
X115253209Y-106459293D01*
X115250499Y-106433509D01*
X115250500Y-106401995D01*
X115250500Y-106359306D01*
X115247598Y-106322431D01*
X115234296Y-106276647D01*
X115201745Y-106164606D01*
X115201744Y-106164603D01*
X115201744Y-106164602D01*
X115167266Y-106106303D01*
X115149999Y-106043184D01*
X115149999Y-105777703D01*
X115123766Y-105753464D01*
X115087887Y-105693510D01*
X115090116Y-105623676D01*
X115114532Y-105583988D01*
X115113298Y-105583031D01*
X115118075Y-105576870D01*
X115118081Y-105576865D01*
X115201744Y-105435398D01*
X115205781Y-105421500D01*
X115211330Y-105402405D01*
X115248936Y-105343519D01*
X115312409Y-105314313D01*
X115330406Y-105313000D01*
X115469594Y-105313000D01*
X115536633Y-105332685D01*
G37*
%TD.AperFunction*%
%TA.AperFunction,Conductor*%
G36*
X117769958Y-103664807D02*
G01*
X117814728Y-103718449D01*
X117825000Y-103767862D01*
X117825000Y-103831582D01*
X117831408Y-103902102D01*
X117831409Y-103902107D01*
X117881981Y-104064396D01*
X117969926Y-104209875D01*
X118072015Y-104311963D01*
X118105500Y-104373286D01*
X118100516Y-104442978D01*
X118072016Y-104487326D01*
X117969529Y-104589813D01*
X117881522Y-104735393D01*
X117830913Y-104897807D01*
X117824500Y-104968386D01*
X117824500Y-105481613D01*
X117830913Y-105552192D01*
X117830913Y-105552194D01*
X117830914Y-105552196D01*
X117881522Y-105714606D01*
X117941176Y-105813286D01*
X117969530Y-105860188D01*
X118013180Y-105903837D01*
X118046666Y-105965160D01*
X118049500Y-105991519D01*
X118049500Y-106053058D01*
X118029815Y-106120097D01*
X117989653Y-106159173D01*
X117973208Y-106169115D01*
X117909055Y-106187000D01*
X117185718Y-106187000D01*
X117118679Y-106167315D01*
X117078986Y-106126120D01*
X117018085Y-106023141D01*
X117018076Y-106023129D01*
X116901870Y-105906923D01*
X116901867Y-105906921D01*
X116901865Y-105906919D01*
X116901549Y-105906732D01*
X116901353Y-105906522D01*
X116895702Y-105902139D01*
X116896409Y-105901227D01*
X116853866Y-105855664D01*
X116841362Y-105786923D01*
X116868006Y-105722333D01*
X116895921Y-105698144D01*
X116895702Y-105697861D01*
X116900911Y-105693820D01*
X116901550Y-105693267D01*
X116901865Y-105693081D01*
X117018081Y-105576865D01*
X117101744Y-105435398D01*
X117147598Y-105277569D01*
X117150500Y-105240694D01*
X117150500Y-104084306D01*
X117147598Y-104047431D01*
X117147597Y-104047426D01*
X117121789Y-103958594D01*
X117121988Y-103888724D01*
X117159930Y-103830054D01*
X117223569Y-103801211D01*
X117240865Y-103799999D01*
X117249972Y-103799999D01*
X117249986Y-103799998D01*
X117352697Y-103789505D01*
X117519119Y-103734358D01*
X117519126Y-103734355D01*
X117635902Y-103662326D01*
X117703295Y-103643885D01*
X117769958Y-103664807D01*
G37*
%TD.AperFunction*%
%TD*%
M02*
