M48
; DRILL file {KiCad 7.0.6-7.0.6~ubuntu22.04.1} date dom 10 set 2023, 11:59:58
; FORMAT={-:-/ absolute / inch / decimal}
; #@! TF.CreationDate,2023-09-10T11:59:58+02:00
; #@! TF.GenerationSoftware,Kicad,Pcbnew,7.0.6-7.0.6~ubuntu22.04.1
; #@! TF.FileFunction,Plated,1,2,PTH
FMAT,2
INCH
; #@! TA.AperFunction,Plated,PTH,ViaDrill
T1C0.0157
; #@! TA.AperFunction,Plated,PTH,ComponentDrill
T2C0.0236
; #@! TA.AperFunction,Plated,PTH,ComponentDrill
T3C0.0276
; #@! TA.AperFunction,Plated,PTH,ViaDrill
T4C0.1024
%
G90
G05
T1
X3.9626Y-5.5315
X3.9665Y-4.6614
X3.9665Y-4.7776
X3.9685Y-3.9685
X3.9685Y-4.1575
X3.9685Y-4.9528
X3.9685Y-5.7165
X4.0748Y-5.2008
X4.0748Y-5.3504
X4.0945Y-4.7795
X4.1102Y-4.9528
X4.1161Y-5.1673
X4.1161Y-5.3819
X4.1161Y-5.5039
X4.1181Y-4.7244
X4.1181Y-5.0472
X4.126Y-5.2008
X4.126Y-5.3504
X4.1339Y-3.9685
X4.1339Y-5.7165
X4.1772Y-5.2008
X4.1772Y-5.3504
X4.2126Y-4.6614
X4.2244Y-5.2008
X4.2283Y-5.3504
X4.2441Y-4.1969
X4.2461Y-5.1083
X4.248Y-5.4429
X4.252Y-3.9685
X4.252Y-4.7795
X4.252Y-4.9528
X4.252Y-5.7165
X4.2539Y-4.2441
X4.2717Y-4.0945
X4.2717Y-5.2008
X4.2756Y-4.5433
X4.2756Y-4.5906
X4.2756Y-5.3504
X4.3189Y-5.2008
X4.3228Y-5.3504
X4.3661Y-5.2008
X4.3701Y-3.9685
X4.3701Y-5.3504
X4.3701Y-5.7165
X4.372Y-4.4154
X4.378Y-4.252
X4.3858Y-4.5591
X4.3937Y-4.9528
X4.4094Y-4.7795
X4.4134Y-5.2008
X4.4173Y-5.3504
X4.4534Y-4.343
X4.4606Y-5.2008
X4.4646Y-5.3504
X4.4681Y-4.4994
X4.4882Y-5.7165
X4.5079Y-5.2008
X4.5118Y-5.3504
X4.5217Y-4.3366
X4.5354Y-4.9528
X4.5413Y-4.2579
X4.5433Y-4.0236
X4.5433Y-4.1654
X4.5551Y-5.2008
X4.5591Y-5.3504
X4.5669Y-4.7795
X4.6024Y-5.2008
X4.6063Y-3.9685
X4.6063Y-4.5039
X4.6063Y-5.3504
X4.6063Y-5.7165
X4.624Y-4.1634
X4.6535Y-5.2008
X4.6535Y-5.3504
X4.6752Y-4.0256
X4.6772Y-4.9528
X4.6909Y-5.0886
X4.7008Y-5.3504
X4.7029Y-4.4138
X4.7244Y-3.9685
X4.7244Y-4.7795
X4.7244Y-5.7165
X4.7638Y-5.3465
X4.7657Y-5.0886
X4.7953Y-4.5118
X4.8189Y-4.9528
X4.8307Y-5.3504
X4.8327Y-5.0886
X4.8346Y-4.7087
X4.8425Y-3.9685
X4.8425Y-5.7165
X4.8642Y-4.7854
X4.874Y-4.7087
X4.878Y-5.3504
X4.8819Y-5.2008
X4.9213Y-4.6575
X4.9213Y-4.9528
X4.9252Y-5.3504
X4.937Y-4.2992
X4.9409Y-5.2008
X4.9724Y-5.3504
X4.9741Y-4.3771
X4.9764Y-4.9961
X4.9783Y-4.4941
X4.9921Y-4.2205
X5.0Y-3.9685
X5.0Y-5.0591
X5.0Y-5.126
X5.0Y-5.2008
X5.0Y-5.7165
X5.0197Y-5.3504
X5.0321Y-4.6448
X5.0571Y-4.2992
X5.0669Y-5.3504
X5.0748Y-4.9961
X5.0768Y-4.3366
X5.0866Y-4.9528
X5.1142Y-5.3504
X5.1161Y-4.7776
X5.1181Y-3.9685
X5.1181Y-5.7165
X5.1437Y-4.6476
X5.1575Y-4.7047
X5.1614Y-5.3504
X5.1732Y-4.2185
X5.2023Y-4.3516
X5.2047Y-4.9528
X5.2087Y-5.3504
X5.2165Y-4.7835
X5.2362Y-3.9685
X5.2362Y-5.0591
X5.2362Y-5.126
X5.2362Y-5.7165
X5.2441Y-4.1673
X5.2559Y-5.2008
X5.2559Y-5.3504
X5.3031Y-5.2008
X5.3031Y-5.3504
X5.3091Y-4.5866
X5.3091Y-4.685
X5.3091Y-4.7815
X5.3465Y-4.9528
X5.3504Y-5.2008
X5.3504Y-5.3504
X5.3543Y-5.7165
X5.374Y-3.9685
X5.3976Y-5.2008
X5.3976Y-5.3504
X5.4449Y-5.2008
X5.4449Y-5.3504
X5.4724Y-5.7165
X5.4882Y-4.9528
X5.4921Y-5.2008
X5.4921Y-5.3504
X5.5118Y-3.9685
X5.5394Y-5.2008
X5.5394Y-5.3504
X5.5866Y-5.2008
X5.5866Y-5.3504
X5.6102Y-5.7165
X5.6299Y-3.9685
X5.6299Y-4.9528
X5.6339Y-5.2008
X5.6358Y-5.1083
X5.6358Y-5.4429
X5.6378Y-5.3504
X5.685Y-5.2008
X5.689Y-5.3504
X5.7283Y-5.7165
X5.7362Y-5.2008
X5.7402Y-5.3504
X5.748Y-3.9685
X5.7598Y-5.0472
X5.7598Y-5.3819
X5.7638Y-5.1693
X5.7638Y-5.5039
X5.7717Y-4.9528
X5.7874Y-5.2008
X5.7874Y-5.3504
X5.8386Y-5.2008
X5.8386Y-5.3504
X5.9134Y-4.1339
X5.9134Y-4.2126
X5.9134Y-4.9528
X5.9134Y-5.0079
X5.9134Y-5.5472
X5.9134Y-5.7165
T3
X4.1811Y-4.0492
X4.4567Y-4.5827
X4.5965Y-4.5827
X5.1181Y-4.0502
T4
X4.0551Y-4.0551
X4.0551Y-5.6299
X4.9213Y-4.0551
X4.9213Y-5.6299
X5.8268Y-4.0551
X5.8268Y-5.6299
T2
G00X4.0256Y-4.2394
M15
G01X4.002Y-4.2394
M16
G05
G00X4.0256Y-4.5795
M15
G01X4.002Y-4.5795
M16
G05
G00X4.2Y-4.2394
M15
G01X4.1567Y-4.2394
M16
G05
G00X4.2Y-4.5795
M15
G01X4.1567Y-4.5795
M16
G05
T0
M30
