%TF.GenerationSoftware,KiCad,Pcbnew,7.0.6-7.0.6~ubuntu22.04.1*%
%TF.CreationDate,2023-09-10T12:00:18+02:00*%
%TF.ProjectId,RFAmp,5246416d-702e-46b6-9963-61645f706362,rev?*%
%TF.SameCoordinates,Original*%
%TF.FileFunction,Copper,L2,Bot*%
%TF.FilePolarity,Positive*%
%FSLAX46Y46*%
G04 Gerber Fmt 4.6, Leading zero omitted, Abs format (unit mm)*
G04 Created by KiCad (PCBNEW 7.0.6-7.0.6~ubuntu22.04.1) date 2023-09-10 12:00:18*
%MOMM*%
%LPD*%
G01*
G04 APERTURE LIST*
%TA.AperFunction,SMDPad,CuDef*%
%ADD10R,5.080000X1.500000*%
%TD*%
%TA.AperFunction,ComponentPad*%
%ADD11R,1.500000X1.500000*%
%TD*%
%TA.AperFunction,ComponentPad*%
%ADD12O,1.600000X1.000000*%
%TD*%
%TA.AperFunction,ComponentPad*%
%ADD13O,2.100000X1.000000*%
%TD*%
%TA.AperFunction,ViaPad*%
%ADD14C,0.800000*%
%TD*%
%TA.AperFunction,ViaPad*%
%ADD15C,4.000000*%
%TD*%
%TA.AperFunction,Conductor*%
%ADD16C,1.000000*%
%TD*%
G04 APERTURE END LIST*
D10*
%TO.P,J1,2,Ext*%
%TO.N,GND*%
X104562500Y-129750000D03*
X104562500Y-138250000D03*
%TD*%
%TO.P,J2,2,Ext*%
%TO.N,GND*%
X146437500Y-129750000D03*
X146437500Y-138250000D03*
%TD*%
D11*
%TO.P,TP3,1,1*%
%TO.N,+8V*%
X116750000Y-116400000D03*
%TD*%
%TO.P,TP2,1,1*%
%TO.N,/VBUS*%
X106200000Y-102850000D03*
%TD*%
D12*
%TO.P,J4,S1,SHIELD*%
%TO.N,Net-(J4-SHIELD)*%
X101950000Y-116320000D03*
D13*
X106130000Y-116320000D03*
D12*
X101950000Y-107680000D03*
D13*
X106130000Y-107680000D03*
%TD*%
D11*
%TO.P,TP4,1,1*%
%TO.N,GND*%
X130000000Y-102875000D03*
%TD*%
%TO.P,TP1,1,1*%
%TO.N,+12V*%
X113200000Y-116400000D03*
%TD*%
D14*
%TO.N,GND*%
X143000000Y-100800000D03*
X140000000Y-100800000D03*
X136500000Y-100800000D03*
X133000000Y-100800000D03*
X130000000Y-100800000D03*
X120000000Y-100800000D03*
X117000000Y-100800000D03*
X111000000Y-100800000D03*
X108000000Y-100800000D03*
X150200000Y-105000000D03*
X146000000Y-100800000D03*
X127000000Y-100800000D03*
X123000000Y-100800000D03*
X105000000Y-100800000D03*
X150200000Y-107000000D03*
D15*
X148000000Y-103000000D03*
D14*
X130000000Y-145200000D03*
X133000000Y-145200000D03*
X136000000Y-145200000D03*
X139000000Y-145200000D03*
X111000000Y-145200000D03*
X114000000Y-145200000D03*
X117000000Y-145200000D03*
X133000000Y-130200000D03*
X133000000Y-128500000D03*
X127000000Y-128500000D03*
X127000000Y-130200000D03*
X128900000Y-126900000D03*
X126400000Y-126900000D03*
X118200000Y-132100000D03*
X104800000Y-132100000D03*
X103500000Y-132100000D03*
X103500000Y-135900000D03*
X104800000Y-135900000D03*
X130650000Y-118050000D03*
X131400000Y-107150000D03*
X126300000Y-135900000D03*
X150200000Y-145200000D03*
X120000000Y-145200000D03*
X115700000Y-132100000D03*
X116000000Y-121400000D03*
X128450000Y-109200000D03*
X125000000Y-118300000D03*
X122750000Y-129250000D03*
X111400000Y-115800000D03*
X145800000Y-135900000D03*
X104550000Y-139800000D03*
X124000000Y-132100000D03*
X143150000Y-138250000D03*
X138300000Y-132100000D03*
X107850000Y-129750000D03*
X125400000Y-109200000D03*
X113115586Y-110310978D03*
X100750000Y-118400000D03*
X116900000Y-132100000D03*
X111200000Y-108000000D03*
X114850000Y-110150000D03*
X111600000Y-125800000D03*
X108600000Y-115400000D03*
X134850000Y-119000000D03*
X147000000Y-132100000D03*
X147000000Y-135900000D03*
X139400000Y-125800000D03*
X108600000Y-116600000D03*
X133500000Y-135900000D03*
X121000000Y-135800000D03*
X121050000Y-129250000D03*
X126342630Y-111177702D03*
X113490547Y-114285467D03*
X146300000Y-128200000D03*
X132300000Y-135900000D03*
X134850000Y-116500000D03*
X143150000Y-129750000D03*
X104550000Y-136700000D03*
X109800000Y-135900000D03*
X108500000Y-104000000D03*
X118200000Y-135900000D03*
X111050000Y-112150000D03*
X115350000Y-108150000D03*
X111000000Y-135900000D03*
X146600000Y-125800000D03*
X104000000Y-121400000D03*
X119150000Y-129250000D03*
D15*
X148000000Y-143000000D03*
D14*
X141900000Y-132100000D03*
X138300000Y-135900000D03*
X117450000Y-105750000D03*
X137100000Y-132100000D03*
X133200000Y-105850000D03*
X134700000Y-135900000D03*
X107400000Y-135900000D03*
X115400000Y-105800000D03*
X104400000Y-125800000D03*
X140700000Y-132100000D03*
X122700000Y-135900000D03*
X145700000Y-132100000D03*
X125100000Y-135900000D03*
X119453434Y-112111151D03*
X135900000Y-135900000D03*
X104600000Y-128200000D03*
X133500000Y-132100000D03*
X145500000Y-145200000D03*
X106100000Y-132100000D03*
X126800000Y-107200000D03*
D15*
X125000000Y-143000000D03*
D14*
X123900000Y-135900000D03*
X125500000Y-132100000D03*
X114500000Y-132100000D03*
X142500000Y-145200000D03*
X107800000Y-106600000D03*
X127000000Y-132100000D03*
X132500000Y-121500000D03*
X118750000Y-102250000D03*
X108600000Y-135900000D03*
X112100000Y-132100000D03*
X128950000Y-110150000D03*
X106100000Y-135900000D03*
X110900000Y-132100000D03*
X115400000Y-102200000D03*
X123800000Y-119600000D03*
X112000000Y-121400000D03*
X105000000Y-145200000D03*
X144400000Y-132100000D03*
X127000000Y-145200000D03*
X137100000Y-135900000D03*
X134700000Y-132100000D03*
X123000000Y-145200000D03*
X132200000Y-125800000D03*
X139500000Y-132100000D03*
X107000000Y-118400000D03*
X107300000Y-132100000D03*
X134850000Y-121450000D03*
X104600000Y-120000000D03*
X115200000Y-125800000D03*
X108050000Y-107800000D03*
X108000000Y-125800000D03*
X150200000Y-140900000D03*
X129900000Y-135900000D03*
X129200000Y-125800000D03*
X141900000Y-135900000D03*
X131000000Y-119500000D03*
X118800000Y-125800000D03*
D15*
X103000000Y-143000000D03*
D14*
X107900000Y-138250000D03*
X127816352Y-117978803D03*
D15*
X125000000Y-103000000D03*
D14*
X120000000Y-121400000D03*
X126450000Y-114150000D03*
X100800000Y-100800000D03*
X131100000Y-135900000D03*
X100650000Y-140500000D03*
X121800000Y-114600000D03*
X122400000Y-125800000D03*
X144500000Y-135900000D03*
X117000000Y-114400000D03*
X143200000Y-135900000D03*
D15*
X103000000Y-103000000D03*
D14*
X127500000Y-135900000D03*
X108500000Y-132100000D03*
X100800000Y-105600000D03*
X100800000Y-125800000D03*
X109700000Y-132100000D03*
X139500000Y-135900000D03*
X104550000Y-131250000D03*
X119400000Y-135900000D03*
X123550000Y-121550000D03*
X150200000Y-125800000D03*
X108000000Y-121400000D03*
X122800000Y-119600000D03*
X146400000Y-131300000D03*
X146400000Y-139800000D03*
X108000000Y-145200000D03*
X135900000Y-132100000D03*
X100750000Y-121350000D03*
X114600000Y-135900000D03*
X112200000Y-135900000D03*
X128700000Y-135900000D03*
X117000000Y-135900000D03*
X113300000Y-132100000D03*
X125000000Y-125800000D03*
X100800000Y-145200000D03*
X113400000Y-135900000D03*
X146300000Y-136700000D03*
X150200000Y-127200000D03*
X148300000Y-135900000D03*
X115800000Y-135900000D03*
X129950000Y-121350000D03*
X143000000Y-125800000D03*
X148300000Y-132100000D03*
X140700000Y-135900000D03*
X132138593Y-110531476D03*
X135800000Y-125800000D03*
X143100000Y-132100000D03*
%TD*%
D16*
%TO.N,Net-(J4-SHIELD)*%
X106090000Y-107700000D02*
X101910000Y-107700000D01*
X101900000Y-107680000D02*
X101900000Y-116320000D01*
X105590000Y-116300000D02*
X102010000Y-116300000D01*
%TD*%
%TA.AperFunction,Conductor*%
%TO.N,GND*%
G36*
X150942539Y-100020185D02*
G01*
X150988294Y-100072989D01*
X150999500Y-100124500D01*
X150999500Y-111876000D01*
X150979815Y-111943039D01*
X150927011Y-111988794D01*
X150875500Y-112000000D01*
X148000000Y-112000000D01*
X148000000Y-115000000D01*
X150875500Y-115000000D01*
X150942539Y-115019685D01*
X150988294Y-115072489D01*
X150999500Y-115124000D01*
X150999500Y-127875500D01*
X150979815Y-127942539D01*
X150927011Y-127988294D01*
X150875500Y-127999500D01*
X149324760Y-127999500D01*
X149324554Y-127999459D01*
X149300000Y-127999459D01*
X149299901Y-127999500D01*
X149299617Y-127999616D01*
X149299615Y-127999618D01*
X149299459Y-127999999D01*
X149299476Y-128024616D01*
X149299471Y-128024616D01*
X149299500Y-128024759D01*
X149299500Y-128407858D01*
X149279815Y-128474897D01*
X149227011Y-128520652D01*
X149157853Y-128530596D01*
X149132167Y-128524040D01*
X149084880Y-128506403D01*
X149084872Y-128506401D01*
X149025344Y-128500000D01*
X146687500Y-128500000D01*
X146687500Y-131000000D01*
X149025328Y-131000000D01*
X149025344Y-130999999D01*
X149084872Y-130993598D01*
X149084880Y-130993596D01*
X149132165Y-130975960D01*
X149201857Y-130970975D01*
X149263180Y-131004459D01*
X149296666Y-131065782D01*
X149299500Y-131092141D01*
X149299500Y-136907858D01*
X149279815Y-136974897D01*
X149227011Y-137020652D01*
X149157853Y-137030596D01*
X149132167Y-137024040D01*
X149084880Y-137006403D01*
X149084872Y-137006401D01*
X149025344Y-137000000D01*
X146687500Y-137000000D01*
X146687500Y-139500000D01*
X149025328Y-139500000D01*
X149025344Y-139499999D01*
X149084872Y-139493598D01*
X149084880Y-139493596D01*
X149132165Y-139475960D01*
X149201857Y-139470975D01*
X149263180Y-139504459D01*
X149296666Y-139565782D01*
X149299500Y-139592141D01*
X149299500Y-139975467D01*
X149299416Y-139975889D01*
X149299459Y-140000001D01*
X149299500Y-140000099D01*
X149299616Y-140000382D01*
X149299618Y-140000384D01*
X149299808Y-140000462D01*
X149300000Y-140000541D01*
X149300002Y-140000539D01*
X149324616Y-140000524D01*
X149324616Y-140000528D01*
X149324760Y-140000500D01*
X150875500Y-140000500D01*
X150942539Y-140020185D01*
X150988294Y-140072989D01*
X150999500Y-140124500D01*
X150999500Y-145875500D01*
X150979815Y-145942539D01*
X150927011Y-145988294D01*
X150875500Y-145999500D01*
X100124500Y-145999500D01*
X100057461Y-145979815D01*
X100011706Y-145927011D01*
X100000500Y-145875500D01*
X100000500Y-140124500D01*
X100020185Y-140057461D01*
X100072989Y-140011706D01*
X100124500Y-140000500D01*
X101675240Y-140000500D01*
X101675383Y-140000528D01*
X101675384Y-140000524D01*
X101699997Y-140000539D01*
X101700000Y-140000541D01*
X101700383Y-140000383D01*
X101700500Y-140000099D01*
X101700499Y-140000099D01*
X101700541Y-140000000D01*
X101700540Y-139999998D01*
X101706892Y-139985028D01*
X101700521Y-139964747D01*
X101700499Y-139962417D01*
X101700499Y-139592141D01*
X101720184Y-139525102D01*
X101772988Y-139479347D01*
X101842146Y-139469403D01*
X101867833Y-139475959D01*
X101915123Y-139493597D01*
X101915127Y-139493598D01*
X101974655Y-139499999D01*
X101974672Y-139500000D01*
X104312500Y-139500000D01*
X104312500Y-138500000D01*
X104812500Y-138500000D01*
X104812500Y-139500000D01*
X107150328Y-139500000D01*
X107150344Y-139499999D01*
X107209872Y-139493598D01*
X107209879Y-139493596D01*
X107344586Y-139443354D01*
X107344593Y-139443350D01*
X107459687Y-139357190D01*
X107459690Y-139357187D01*
X107545850Y-139242093D01*
X107545854Y-139242086D01*
X107596096Y-139107379D01*
X107596098Y-139107372D01*
X107602499Y-139047844D01*
X107602500Y-139047827D01*
X107602500Y-138500000D01*
X143397500Y-138500000D01*
X143397500Y-139047844D01*
X143403901Y-139107372D01*
X143403903Y-139107379D01*
X143454145Y-139242086D01*
X143454149Y-139242093D01*
X143540309Y-139357187D01*
X143540312Y-139357190D01*
X143655406Y-139443350D01*
X143655413Y-139443354D01*
X143790120Y-139493596D01*
X143790127Y-139493598D01*
X143849655Y-139499999D01*
X143849672Y-139500000D01*
X146187500Y-139500000D01*
X146187500Y-138500000D01*
X143397500Y-138500000D01*
X107602500Y-138500000D01*
X104812500Y-138500000D01*
X104312500Y-138500000D01*
X104312500Y-137000000D01*
X104812500Y-137000000D01*
X104812500Y-138000000D01*
X107602500Y-138000000D01*
X143397500Y-138000000D01*
X146187500Y-138000000D01*
X146187500Y-137000000D01*
X143849655Y-137000000D01*
X143790127Y-137006401D01*
X143790120Y-137006403D01*
X143655413Y-137056645D01*
X143655406Y-137056649D01*
X143540312Y-137142809D01*
X143540309Y-137142812D01*
X143454149Y-137257906D01*
X143454145Y-137257913D01*
X143403903Y-137392620D01*
X143403901Y-137392627D01*
X143397500Y-137452155D01*
X143397500Y-138000000D01*
X107602500Y-138000000D01*
X107602500Y-137452172D01*
X107602499Y-137452155D01*
X107596098Y-137392627D01*
X107596096Y-137392620D01*
X107545854Y-137257913D01*
X107545850Y-137257906D01*
X107459690Y-137142812D01*
X107459687Y-137142809D01*
X107344593Y-137056649D01*
X107344586Y-137056645D01*
X107209879Y-137006403D01*
X107209872Y-137006401D01*
X107150344Y-137000000D01*
X104812500Y-137000000D01*
X104312500Y-137000000D01*
X101974655Y-137000000D01*
X101915127Y-137006401D01*
X101915116Y-137006404D01*
X101867831Y-137024040D01*
X101798139Y-137029024D01*
X101736817Y-136995538D01*
X101703332Y-136934214D01*
X101700499Y-136907858D01*
X101700499Y-131092141D01*
X101720184Y-131025102D01*
X101772988Y-130979347D01*
X101842146Y-130969403D01*
X101867833Y-130975959D01*
X101915123Y-130993597D01*
X101915127Y-130993598D01*
X101974655Y-130999999D01*
X101974672Y-131000000D01*
X104312500Y-131000000D01*
X104312500Y-130000000D01*
X104812500Y-130000000D01*
X104812500Y-131000000D01*
X107150328Y-131000000D01*
X107150344Y-130999999D01*
X107209872Y-130993598D01*
X107209879Y-130993596D01*
X107344586Y-130943354D01*
X107344593Y-130943350D01*
X107459687Y-130857190D01*
X107459690Y-130857187D01*
X107545850Y-130742093D01*
X107545854Y-130742086D01*
X107596096Y-130607379D01*
X107596098Y-130607372D01*
X107602499Y-130547844D01*
X107602500Y-130547827D01*
X107602500Y-130000000D01*
X143397500Y-130000000D01*
X143397500Y-130547844D01*
X143403901Y-130607372D01*
X143403903Y-130607379D01*
X143454145Y-130742086D01*
X143454149Y-130742093D01*
X143540309Y-130857187D01*
X143540312Y-130857190D01*
X143655406Y-130943350D01*
X143655413Y-130943354D01*
X143790120Y-130993596D01*
X143790127Y-130993598D01*
X143849655Y-130999999D01*
X143849672Y-131000000D01*
X146187500Y-131000000D01*
X146187500Y-130000000D01*
X143397500Y-130000000D01*
X107602500Y-130000000D01*
X104812500Y-130000000D01*
X104312500Y-130000000D01*
X104312500Y-128500000D01*
X104812500Y-128500000D01*
X104812500Y-129500000D01*
X107602500Y-129500000D01*
X143397500Y-129500000D01*
X146187500Y-129500000D01*
X146187500Y-128500000D01*
X143849655Y-128500000D01*
X143790127Y-128506401D01*
X143790120Y-128506403D01*
X143655413Y-128556645D01*
X143655406Y-128556649D01*
X143540312Y-128642809D01*
X143540309Y-128642812D01*
X143454149Y-128757906D01*
X143454145Y-128757913D01*
X143403903Y-128892620D01*
X143403901Y-128892627D01*
X143397500Y-128952155D01*
X143397500Y-129500000D01*
X107602500Y-129500000D01*
X107602500Y-128952172D01*
X107602499Y-128952155D01*
X107596098Y-128892627D01*
X107596096Y-128892620D01*
X107545854Y-128757913D01*
X107545850Y-128757906D01*
X107459690Y-128642812D01*
X107459687Y-128642809D01*
X107344593Y-128556649D01*
X107344586Y-128556645D01*
X107209879Y-128506403D01*
X107209872Y-128506401D01*
X107150344Y-128500000D01*
X104812500Y-128500000D01*
X104312500Y-128500000D01*
X101974655Y-128500000D01*
X101915127Y-128506401D01*
X101915116Y-128506404D01*
X101867831Y-128524040D01*
X101798139Y-128529024D01*
X101736817Y-128495538D01*
X101703332Y-128434214D01*
X101700499Y-128407858D01*
X101700499Y-128008338D01*
X101700539Y-128000002D01*
X101700541Y-128000000D01*
X101700383Y-127999617D01*
X101700382Y-127999616D01*
X101700099Y-127999500D01*
X101700000Y-127999459D01*
X101675446Y-127999459D01*
X101675240Y-127999500D01*
X100124500Y-127999500D01*
X100057461Y-127979815D01*
X100011706Y-127927011D01*
X100000500Y-127875500D01*
X100000500Y-117624000D01*
X100020185Y-117556961D01*
X100072989Y-117511206D01*
X100124500Y-117500000D01*
X107600000Y-117500000D01*
X107600000Y-117197870D01*
X111949500Y-117197870D01*
X111949501Y-117197876D01*
X111955908Y-117257483D01*
X112006202Y-117392328D01*
X112006206Y-117392335D01*
X112092452Y-117507544D01*
X112092455Y-117507547D01*
X112207664Y-117593793D01*
X112207671Y-117593797D01*
X112342517Y-117644091D01*
X112342516Y-117644091D01*
X112349444Y-117644835D01*
X112402127Y-117650500D01*
X113997872Y-117650499D01*
X114057483Y-117644091D01*
X114192331Y-117593796D01*
X114307546Y-117507546D01*
X114393796Y-117392331D01*
X114444091Y-117257483D01*
X114450500Y-117197873D01*
X114450500Y-117197870D01*
X115499500Y-117197870D01*
X115499501Y-117197876D01*
X115505908Y-117257483D01*
X115556202Y-117392328D01*
X115556206Y-117392335D01*
X115642452Y-117507544D01*
X115642455Y-117507547D01*
X115757664Y-117593793D01*
X115757671Y-117593797D01*
X115892517Y-117644091D01*
X115892516Y-117644091D01*
X115899444Y-117644835D01*
X115952127Y-117650500D01*
X117547872Y-117650499D01*
X117607483Y-117644091D01*
X117742331Y-117593796D01*
X117857546Y-117507546D01*
X117943796Y-117392331D01*
X117994091Y-117257483D01*
X118000500Y-117197873D01*
X118000499Y-115602128D01*
X117994091Y-115542517D01*
X117943796Y-115407669D01*
X117943795Y-115407668D01*
X117943793Y-115407664D01*
X117857547Y-115292455D01*
X117857544Y-115292452D01*
X117742335Y-115206206D01*
X117742328Y-115206202D01*
X117607482Y-115155908D01*
X117607483Y-115155908D01*
X117547883Y-115149501D01*
X117547881Y-115149500D01*
X117547873Y-115149500D01*
X117547864Y-115149500D01*
X115952129Y-115149500D01*
X115952123Y-115149501D01*
X115892516Y-115155908D01*
X115757671Y-115206202D01*
X115757664Y-115206206D01*
X115642455Y-115292452D01*
X115642452Y-115292455D01*
X115556206Y-115407664D01*
X115556202Y-115407671D01*
X115505908Y-115542517D01*
X115499501Y-115602116D01*
X115499501Y-115602123D01*
X115499500Y-115602135D01*
X115499500Y-117197870D01*
X114450500Y-117197870D01*
X114450499Y-115602128D01*
X114444091Y-115542517D01*
X114393796Y-115407669D01*
X114393795Y-115407668D01*
X114393793Y-115407664D01*
X114307547Y-115292455D01*
X114307544Y-115292452D01*
X114192335Y-115206206D01*
X114192328Y-115206202D01*
X114057482Y-115155908D01*
X114057483Y-115155908D01*
X113997883Y-115149501D01*
X113997881Y-115149500D01*
X113997873Y-115149500D01*
X113997864Y-115149500D01*
X112402129Y-115149500D01*
X112402123Y-115149501D01*
X112342516Y-115155908D01*
X112207671Y-115206202D01*
X112207664Y-115206206D01*
X112092455Y-115292452D01*
X112092452Y-115292455D01*
X112006206Y-115407664D01*
X112006202Y-115407671D01*
X111955908Y-115542517D01*
X111949501Y-115602116D01*
X111949501Y-115602123D01*
X111949500Y-115602135D01*
X111949500Y-117197870D01*
X107600000Y-117197870D01*
X107600000Y-116745056D01*
X107612673Y-116690447D01*
X107616307Y-116683037D01*
X107623060Y-116669271D01*
X107674063Y-116472285D01*
X107684369Y-116269064D01*
X107653556Y-116067929D01*
X107607719Y-115944164D01*
X107600000Y-115901099D01*
X107600000Y-108105056D01*
X107612673Y-108050447D01*
X107616307Y-108043037D01*
X107623060Y-108029271D01*
X107674063Y-107832285D01*
X107684369Y-107629064D01*
X107653556Y-107427929D01*
X107607719Y-107304164D01*
X107600000Y-107261099D01*
X107600000Y-106500000D01*
X100124500Y-106500000D01*
X100057461Y-106480315D01*
X100011706Y-106427511D01*
X100000500Y-106376000D01*
X100000500Y-103647870D01*
X104949500Y-103647870D01*
X104949501Y-103647876D01*
X104955908Y-103707483D01*
X105006202Y-103842328D01*
X105006206Y-103842335D01*
X105092452Y-103957544D01*
X105092455Y-103957547D01*
X105207664Y-104043793D01*
X105207671Y-104043797D01*
X105342517Y-104094091D01*
X105342516Y-104094091D01*
X105349444Y-104094835D01*
X105402127Y-104100500D01*
X106997872Y-104100499D01*
X107057483Y-104094091D01*
X107192331Y-104043796D01*
X107307546Y-103957546D01*
X107393796Y-103842331D01*
X107444091Y-103707483D01*
X107450500Y-103647873D01*
X107450499Y-103125000D01*
X128750000Y-103125000D01*
X128750000Y-103672844D01*
X128756401Y-103732372D01*
X128756403Y-103732379D01*
X128806645Y-103867086D01*
X128806649Y-103867093D01*
X128892809Y-103982187D01*
X128892812Y-103982190D01*
X129007906Y-104068350D01*
X129007913Y-104068354D01*
X129142620Y-104118596D01*
X129142627Y-104118598D01*
X129202155Y-104124999D01*
X129202172Y-104125000D01*
X129750000Y-104125000D01*
X129750000Y-103125000D01*
X128750000Y-103125000D01*
X107450499Y-103125000D01*
X107450499Y-102904302D01*
X129646372Y-102904302D01*
X129675047Y-103017538D01*
X129738936Y-103115327D01*
X129831115Y-103187072D01*
X129941595Y-103225000D01*
X130029005Y-103225000D01*
X130115216Y-103210614D01*
X130217947Y-103155019D01*
X130245581Y-103125000D01*
X130250000Y-103125000D01*
X130250000Y-104125000D01*
X130797828Y-104125000D01*
X130797844Y-104124999D01*
X130857372Y-104118598D01*
X130857379Y-104118596D01*
X130992086Y-104068354D01*
X130992093Y-104068350D01*
X131107187Y-103982190D01*
X131107190Y-103982187D01*
X131193350Y-103867093D01*
X131193354Y-103867086D01*
X131243596Y-103732379D01*
X131243598Y-103732372D01*
X131249999Y-103672844D01*
X131250000Y-103672827D01*
X131250000Y-103125000D01*
X130250000Y-103125000D01*
X130245581Y-103125000D01*
X130297060Y-103069079D01*
X130343982Y-102962108D01*
X130353628Y-102845698D01*
X130324953Y-102732462D01*
X130261064Y-102634673D01*
X130168885Y-102562928D01*
X130058405Y-102525000D01*
X129970995Y-102525000D01*
X129884784Y-102539386D01*
X129782053Y-102594981D01*
X129702940Y-102680921D01*
X129656018Y-102787892D01*
X129646372Y-102904302D01*
X107450499Y-102904302D01*
X107450499Y-102625000D01*
X128749999Y-102625000D01*
X129750000Y-102625000D01*
X129750000Y-101625000D01*
X130250000Y-101625000D01*
X130250000Y-102625000D01*
X131250000Y-102625000D01*
X131250000Y-102077172D01*
X131249999Y-102077155D01*
X131243598Y-102017627D01*
X131243596Y-102017620D01*
X131193354Y-101882913D01*
X131193350Y-101882906D01*
X131107190Y-101767812D01*
X131107187Y-101767809D01*
X130992093Y-101681649D01*
X130992086Y-101681645D01*
X130857379Y-101631403D01*
X130857372Y-101631401D01*
X130797844Y-101625000D01*
X130250000Y-101625000D01*
X129750000Y-101625000D01*
X129202155Y-101625000D01*
X129142627Y-101631401D01*
X129142620Y-101631403D01*
X129007913Y-101681645D01*
X129007906Y-101681649D01*
X128892812Y-101767809D01*
X128892809Y-101767812D01*
X128806649Y-101882906D01*
X128806645Y-101882913D01*
X128756403Y-102017620D01*
X128756401Y-102017627D01*
X128750000Y-102077155D01*
X128750000Y-102077172D01*
X128749999Y-102625000D01*
X107450499Y-102625000D01*
X107450499Y-102052128D01*
X107444091Y-101992517D01*
X107403211Y-101882913D01*
X107393797Y-101857671D01*
X107393793Y-101857664D01*
X107307547Y-101742455D01*
X107307544Y-101742452D01*
X107192335Y-101656206D01*
X107192328Y-101656202D01*
X107057482Y-101605908D01*
X107057483Y-101605908D01*
X106997883Y-101599501D01*
X106997881Y-101599500D01*
X106997873Y-101599500D01*
X106997864Y-101599500D01*
X105402129Y-101599500D01*
X105402123Y-101599501D01*
X105342516Y-101605908D01*
X105207671Y-101656202D01*
X105207664Y-101656206D01*
X105092455Y-101742452D01*
X105092452Y-101742455D01*
X105006206Y-101857664D01*
X105006202Y-101857671D01*
X104955908Y-101992517D01*
X104953209Y-102017627D01*
X104949501Y-102052123D01*
X104949500Y-102052135D01*
X104949500Y-103647870D01*
X100000500Y-103647870D01*
X100000500Y-100124500D01*
X100020185Y-100057461D01*
X100072989Y-100011706D01*
X100124500Y-100000500D01*
X150875500Y-100000500D01*
X150942539Y-100020185D01*
G37*
%TD.AperFunction*%
%TD*%
M02*
