%TF.GenerationSoftware,KiCad,Pcbnew,7.0.6-7.0.6~ubuntu22.04.1*%
%TF.CreationDate,2023-09-10T12:00:01+02:00*%
%TF.ProjectId,RFAmp,5246416d-702e-46b6-9963-61645f706362,rev?*%
%TF.SameCoordinates,Original*%
%TF.FileFunction,Drillmap*%
%TF.FilePolarity,Positive*%
%FSLAX45Y45*%
G04 Gerber Fmt 4.5, Leading zero omitted, Abs format (unit mm)*
G04 Created by KiCad (PCBNEW 7.0.6-7.0.6~ubuntu22.04.1) date 2023-09-10 12:00:01*
%MOMM*%
%LPD*%
G01*
G04 APERTURE LIST*
%ADD10C,0.010000*%
%ADD11C,0.200000*%
%ADD12C,0.065000*%
G04 APERTURE END LIST*
D10*
X15100000Y-14600000D02*
X10000000Y-14600000D01*
X10000000Y-12800000D02*
X10000000Y-10000000D01*
X10170000Y-14000000D02*
X10000000Y-14000000D01*
X14930000Y-12800000D02*
X14930000Y-14000000D01*
X15100000Y-14000000D02*
X15100000Y-14600000D01*
X10000000Y-10000000D02*
X15100000Y-10000000D01*
X14930000Y-12800000D02*
X15100000Y-12800000D01*
X15100000Y-10000000D02*
X15100000Y-12800000D01*
X10000000Y-14000000D02*
X10000000Y-14600000D01*
X10000000Y-12800000D02*
X10170000Y-12800000D01*
X10170000Y-12800000D02*
X10170000Y-14000000D01*
X14930000Y-14000000D02*
X15100000Y-14000000D01*
D11*
D12*
X10527500Y-10878500D02*
X10592500Y-10943500D01*
X10592500Y-10878500D02*
X10527500Y-10943500D01*
X10527500Y-11456500D02*
X10592500Y-11521500D01*
X10592500Y-11456500D02*
X10527500Y-11521500D01*
D11*
X15090000Y-11350000D02*
G75*
G03*
X15090000Y-11350000I-100000J0D01*
G01*
X10260277Y-14911984D02*
X10260277Y-14711984D01*
X10260277Y-14711984D02*
X10307896Y-14711984D01*
X10307896Y-14711984D02*
X10336467Y-14721508D01*
X10336467Y-14721508D02*
X10355515Y-14740555D01*
X10355515Y-14740555D02*
X10365039Y-14759603D01*
X10365039Y-14759603D02*
X10374563Y-14797698D01*
X10374563Y-14797698D02*
X10374563Y-14826269D01*
X10374563Y-14826269D02*
X10365039Y-14864365D01*
X10365039Y-14864365D02*
X10355515Y-14883412D01*
X10355515Y-14883412D02*
X10336467Y-14902460D01*
X10336467Y-14902460D02*
X10307896Y-14911984D01*
X10307896Y-14911984D02*
X10260277Y-14911984D01*
X10460277Y-14911984D02*
X10460277Y-14778650D01*
X10460277Y-14816746D02*
X10469801Y-14797698D01*
X10469801Y-14797698D02*
X10479324Y-14788174D01*
X10479324Y-14788174D02*
X10498372Y-14778650D01*
X10498372Y-14778650D02*
X10517420Y-14778650D01*
X10584086Y-14911984D02*
X10584086Y-14778650D01*
X10584086Y-14711984D02*
X10574563Y-14721508D01*
X10574563Y-14721508D02*
X10584086Y-14731031D01*
X10584086Y-14731031D02*
X10593610Y-14721508D01*
X10593610Y-14721508D02*
X10584086Y-14711984D01*
X10584086Y-14711984D02*
X10584086Y-14731031D01*
X10707896Y-14911984D02*
X10688848Y-14902460D01*
X10688848Y-14902460D02*
X10679324Y-14883412D01*
X10679324Y-14883412D02*
X10679324Y-14711984D01*
X10812658Y-14911984D02*
X10793610Y-14902460D01*
X10793610Y-14902460D02*
X10784086Y-14883412D01*
X10784086Y-14883412D02*
X10784086Y-14711984D01*
X11041229Y-14911984D02*
X11041229Y-14711984D01*
X11041229Y-14711984D02*
X11107896Y-14854841D01*
X11107896Y-14854841D02*
X11174563Y-14711984D01*
X11174563Y-14711984D02*
X11174563Y-14911984D01*
X11355515Y-14911984D02*
X11355515Y-14807222D01*
X11355515Y-14807222D02*
X11345991Y-14788174D01*
X11345991Y-14788174D02*
X11326943Y-14778650D01*
X11326943Y-14778650D02*
X11288848Y-14778650D01*
X11288848Y-14778650D02*
X11269801Y-14788174D01*
X11355515Y-14902460D02*
X11336467Y-14911984D01*
X11336467Y-14911984D02*
X11288848Y-14911984D01*
X11288848Y-14911984D02*
X11269801Y-14902460D01*
X11269801Y-14902460D02*
X11260277Y-14883412D01*
X11260277Y-14883412D02*
X11260277Y-14864365D01*
X11260277Y-14864365D02*
X11269801Y-14845317D01*
X11269801Y-14845317D02*
X11288848Y-14835793D01*
X11288848Y-14835793D02*
X11336467Y-14835793D01*
X11336467Y-14835793D02*
X11355515Y-14826269D01*
X11450753Y-14778650D02*
X11450753Y-14978650D01*
X11450753Y-14788174D02*
X11469801Y-14778650D01*
X11469801Y-14778650D02*
X11507896Y-14778650D01*
X11507896Y-14778650D02*
X11526943Y-14788174D01*
X11526943Y-14788174D02*
X11536467Y-14797698D01*
X11536467Y-14797698D02*
X11545991Y-14816746D01*
X11545991Y-14816746D02*
X11545991Y-14873888D01*
X11545991Y-14873888D02*
X11536467Y-14892936D01*
X11536467Y-14892936D02*
X11526943Y-14902460D01*
X11526943Y-14902460D02*
X11507896Y-14911984D01*
X11507896Y-14911984D02*
X11469801Y-14911984D01*
X11469801Y-14911984D02*
X11450753Y-14902460D01*
X11631705Y-14892936D02*
X11641229Y-14902460D01*
X11641229Y-14902460D02*
X11631705Y-14911984D01*
X11631705Y-14911984D02*
X11622182Y-14902460D01*
X11622182Y-14902460D02*
X11631705Y-14892936D01*
X11631705Y-14892936D02*
X11631705Y-14911984D01*
X11631705Y-14788174D02*
X11641229Y-14797698D01*
X11641229Y-14797698D02*
X11631705Y-14807222D01*
X11631705Y-14807222D02*
X11622182Y-14797698D01*
X11622182Y-14797698D02*
X11631705Y-14788174D01*
X11631705Y-14788174D02*
X11631705Y-14807222D01*
D12*
X9934500Y-15208000D02*
X9999500Y-15273000D01*
X9999500Y-15208000D02*
X9934500Y-15273000D01*
D11*
X10298372Y-15131984D02*
X10317420Y-15131984D01*
X10317420Y-15131984D02*
X10336467Y-15141508D01*
X10336467Y-15141508D02*
X10345991Y-15151031D01*
X10345991Y-15151031D02*
X10355515Y-15170079D01*
X10355515Y-15170079D02*
X10365039Y-15208174D01*
X10365039Y-15208174D02*
X10365039Y-15255793D01*
X10365039Y-15255793D02*
X10355515Y-15293888D01*
X10355515Y-15293888D02*
X10345991Y-15312936D01*
X10345991Y-15312936D02*
X10336467Y-15322460D01*
X10336467Y-15322460D02*
X10317420Y-15331984D01*
X10317420Y-15331984D02*
X10298372Y-15331984D01*
X10298372Y-15331984D02*
X10279324Y-15322460D01*
X10279324Y-15322460D02*
X10269801Y-15312936D01*
X10269801Y-15312936D02*
X10260277Y-15293888D01*
X10260277Y-15293888D02*
X10250753Y-15255793D01*
X10250753Y-15255793D02*
X10250753Y-15208174D01*
X10250753Y-15208174D02*
X10260277Y-15170079D01*
X10260277Y-15170079D02*
X10269801Y-15151031D01*
X10269801Y-15151031D02*
X10279324Y-15141508D01*
X10279324Y-15141508D02*
X10298372Y-15131984D01*
X10450753Y-15312936D02*
X10460277Y-15322460D01*
X10460277Y-15322460D02*
X10450753Y-15331984D01*
X10450753Y-15331984D02*
X10441229Y-15322460D01*
X10441229Y-15322460D02*
X10450753Y-15312936D01*
X10450753Y-15312936D02*
X10450753Y-15331984D01*
X10631705Y-15131984D02*
X10593610Y-15131984D01*
X10593610Y-15131984D02*
X10574563Y-15141508D01*
X10574563Y-15141508D02*
X10565039Y-15151031D01*
X10565039Y-15151031D02*
X10545991Y-15179603D01*
X10545991Y-15179603D02*
X10536467Y-15217698D01*
X10536467Y-15217698D02*
X10536467Y-15293888D01*
X10536467Y-15293888D02*
X10545991Y-15312936D01*
X10545991Y-15312936D02*
X10555515Y-15322460D01*
X10555515Y-15322460D02*
X10574563Y-15331984D01*
X10574563Y-15331984D02*
X10612658Y-15331984D01*
X10612658Y-15331984D02*
X10631705Y-15322460D01*
X10631705Y-15322460D02*
X10641229Y-15312936D01*
X10641229Y-15312936D02*
X10650753Y-15293888D01*
X10650753Y-15293888D02*
X10650753Y-15246269D01*
X10650753Y-15246269D02*
X10641229Y-15227222D01*
X10641229Y-15227222D02*
X10631705Y-15217698D01*
X10631705Y-15217698D02*
X10612658Y-15208174D01*
X10612658Y-15208174D02*
X10574563Y-15208174D01*
X10574563Y-15208174D02*
X10555515Y-15217698D01*
X10555515Y-15217698D02*
X10545991Y-15227222D01*
X10545991Y-15227222D02*
X10536467Y-15246269D01*
X10831705Y-15131984D02*
X10736467Y-15131984D01*
X10736467Y-15131984D02*
X10726944Y-15227222D01*
X10726944Y-15227222D02*
X10736467Y-15217698D01*
X10736467Y-15217698D02*
X10755515Y-15208174D01*
X10755515Y-15208174D02*
X10803134Y-15208174D01*
X10803134Y-15208174D02*
X10822182Y-15217698D01*
X10822182Y-15217698D02*
X10831705Y-15227222D01*
X10831705Y-15227222D02*
X10841229Y-15246269D01*
X10841229Y-15246269D02*
X10841229Y-15293888D01*
X10841229Y-15293888D02*
X10831705Y-15312936D01*
X10831705Y-15312936D02*
X10822182Y-15322460D01*
X10822182Y-15322460D02*
X10803134Y-15331984D01*
X10803134Y-15331984D02*
X10755515Y-15331984D01*
X10755515Y-15331984D02*
X10736467Y-15322460D01*
X10736467Y-15322460D02*
X10726944Y-15312936D01*
X10965039Y-15131984D02*
X10984086Y-15131984D01*
X10984086Y-15131984D02*
X11003134Y-15141508D01*
X11003134Y-15141508D02*
X11012658Y-15151031D01*
X11012658Y-15151031D02*
X11022182Y-15170079D01*
X11022182Y-15170079D02*
X11031705Y-15208174D01*
X11031705Y-15208174D02*
X11031705Y-15255793D01*
X11031705Y-15255793D02*
X11022182Y-15293888D01*
X11022182Y-15293888D02*
X11012658Y-15312936D01*
X11012658Y-15312936D02*
X11003134Y-15322460D01*
X11003134Y-15322460D02*
X10984086Y-15331984D01*
X10984086Y-15331984D02*
X10965039Y-15331984D01*
X10965039Y-15331984D02*
X10945991Y-15322460D01*
X10945991Y-15322460D02*
X10936467Y-15312936D01*
X10936467Y-15312936D02*
X10926944Y-15293888D01*
X10926944Y-15293888D02*
X10917420Y-15255793D01*
X10917420Y-15255793D02*
X10917420Y-15208174D01*
X10917420Y-15208174D02*
X10926944Y-15170079D01*
X10926944Y-15170079D02*
X10936467Y-15151031D01*
X10936467Y-15151031D02*
X10945991Y-15141508D01*
X10945991Y-15141508D02*
X10965039Y-15131984D01*
X11117420Y-15331984D02*
X11117420Y-15198650D01*
X11117420Y-15217698D02*
X11126944Y-15208174D01*
X11126944Y-15208174D02*
X11145991Y-15198650D01*
X11145991Y-15198650D02*
X11174563Y-15198650D01*
X11174563Y-15198650D02*
X11193610Y-15208174D01*
X11193610Y-15208174D02*
X11203134Y-15227222D01*
X11203134Y-15227222D02*
X11203134Y-15331984D01*
X11203134Y-15227222D02*
X11212658Y-15208174D01*
X11212658Y-15208174D02*
X11231705Y-15198650D01*
X11231705Y-15198650D02*
X11260277Y-15198650D01*
X11260277Y-15198650D02*
X11279324Y-15208174D01*
X11279324Y-15208174D02*
X11288848Y-15227222D01*
X11288848Y-15227222D02*
X11288848Y-15331984D01*
X11384086Y-15331984D02*
X11384086Y-15198650D01*
X11384086Y-15217698D02*
X11393610Y-15208174D01*
X11393610Y-15208174D02*
X11412658Y-15198650D01*
X11412658Y-15198650D02*
X11441229Y-15198650D01*
X11441229Y-15198650D02*
X11460277Y-15208174D01*
X11460277Y-15208174D02*
X11469801Y-15227222D01*
X11469801Y-15227222D02*
X11469801Y-15331984D01*
X11469801Y-15227222D02*
X11479324Y-15208174D01*
X11479324Y-15208174D02*
X11498372Y-15198650D01*
X11498372Y-15198650D02*
X11526943Y-15198650D01*
X11526943Y-15198650D02*
X11545991Y-15208174D01*
X11545991Y-15208174D02*
X11555515Y-15227222D01*
X11555515Y-15227222D02*
X11555515Y-15331984D01*
X11945991Y-15122460D02*
X11774563Y-15379603D01*
X12203134Y-15131984D02*
X12222182Y-15131984D01*
X12222182Y-15131984D02*
X12241229Y-15141508D01*
X12241229Y-15141508D02*
X12250753Y-15151031D01*
X12250753Y-15151031D02*
X12260277Y-15170079D01*
X12260277Y-15170079D02*
X12269801Y-15208174D01*
X12269801Y-15208174D02*
X12269801Y-15255793D01*
X12269801Y-15255793D02*
X12260277Y-15293888D01*
X12260277Y-15293888D02*
X12250753Y-15312936D01*
X12250753Y-15312936D02*
X12241229Y-15322460D01*
X12241229Y-15322460D02*
X12222182Y-15331984D01*
X12222182Y-15331984D02*
X12203134Y-15331984D01*
X12203134Y-15331984D02*
X12184086Y-15322460D01*
X12184086Y-15322460D02*
X12174563Y-15312936D01*
X12174563Y-15312936D02*
X12165039Y-15293888D01*
X12165039Y-15293888D02*
X12155515Y-15255793D01*
X12155515Y-15255793D02*
X12155515Y-15208174D01*
X12155515Y-15208174D02*
X12165039Y-15170079D01*
X12165039Y-15170079D02*
X12174563Y-15151031D01*
X12174563Y-15151031D02*
X12184086Y-15141508D01*
X12184086Y-15141508D02*
X12203134Y-15131984D01*
X12355515Y-15312936D02*
X12365039Y-15322460D01*
X12365039Y-15322460D02*
X12355515Y-15331984D01*
X12355515Y-15331984D02*
X12345991Y-15322460D01*
X12345991Y-15322460D02*
X12355515Y-15312936D01*
X12355515Y-15312936D02*
X12355515Y-15331984D01*
X12488848Y-15131984D02*
X12507896Y-15131984D01*
X12507896Y-15131984D02*
X12526944Y-15141508D01*
X12526944Y-15141508D02*
X12536467Y-15151031D01*
X12536467Y-15151031D02*
X12545991Y-15170079D01*
X12545991Y-15170079D02*
X12555515Y-15208174D01*
X12555515Y-15208174D02*
X12555515Y-15255793D01*
X12555515Y-15255793D02*
X12545991Y-15293888D01*
X12545991Y-15293888D02*
X12536467Y-15312936D01*
X12536467Y-15312936D02*
X12526944Y-15322460D01*
X12526944Y-15322460D02*
X12507896Y-15331984D01*
X12507896Y-15331984D02*
X12488848Y-15331984D01*
X12488848Y-15331984D02*
X12469801Y-15322460D01*
X12469801Y-15322460D02*
X12460277Y-15312936D01*
X12460277Y-15312936D02*
X12450753Y-15293888D01*
X12450753Y-15293888D02*
X12441229Y-15255793D01*
X12441229Y-15255793D02*
X12441229Y-15208174D01*
X12441229Y-15208174D02*
X12450753Y-15170079D01*
X12450753Y-15170079D02*
X12460277Y-15151031D01*
X12460277Y-15151031D02*
X12469801Y-15141508D01*
X12469801Y-15141508D02*
X12488848Y-15131984D01*
X12631706Y-15151031D02*
X12641229Y-15141508D01*
X12641229Y-15141508D02*
X12660277Y-15131984D01*
X12660277Y-15131984D02*
X12707896Y-15131984D01*
X12707896Y-15131984D02*
X12726944Y-15141508D01*
X12726944Y-15141508D02*
X12736467Y-15151031D01*
X12736467Y-15151031D02*
X12745991Y-15170079D01*
X12745991Y-15170079D02*
X12745991Y-15189127D01*
X12745991Y-15189127D02*
X12736467Y-15217698D01*
X12736467Y-15217698D02*
X12622182Y-15331984D01*
X12622182Y-15331984D02*
X12745991Y-15331984D01*
X12926944Y-15131984D02*
X12831706Y-15131984D01*
X12831706Y-15131984D02*
X12822182Y-15227222D01*
X12822182Y-15227222D02*
X12831706Y-15217698D01*
X12831706Y-15217698D02*
X12850753Y-15208174D01*
X12850753Y-15208174D02*
X12898372Y-15208174D01*
X12898372Y-15208174D02*
X12917420Y-15217698D01*
X12917420Y-15217698D02*
X12926944Y-15227222D01*
X12926944Y-15227222D02*
X12936467Y-15246269D01*
X12936467Y-15246269D02*
X12936467Y-15293888D01*
X12936467Y-15293888D02*
X12926944Y-15312936D01*
X12926944Y-15312936D02*
X12917420Y-15322460D01*
X12917420Y-15322460D02*
X12898372Y-15331984D01*
X12898372Y-15331984D02*
X12850753Y-15331984D01*
X12850753Y-15331984D02*
X12831706Y-15322460D01*
X12831706Y-15322460D02*
X12822182Y-15312936D01*
X13107896Y-15131984D02*
X13069801Y-15131984D01*
X13069801Y-15131984D02*
X13050753Y-15141508D01*
X13050753Y-15141508D02*
X13041229Y-15151031D01*
X13041229Y-15151031D02*
X13022182Y-15179603D01*
X13022182Y-15179603D02*
X13012658Y-15217698D01*
X13012658Y-15217698D02*
X13012658Y-15293888D01*
X13012658Y-15293888D02*
X13022182Y-15312936D01*
X13022182Y-15312936D02*
X13031706Y-15322460D01*
X13031706Y-15322460D02*
X13050753Y-15331984D01*
X13050753Y-15331984D02*
X13088848Y-15331984D01*
X13088848Y-15331984D02*
X13107896Y-15322460D01*
X13107896Y-15322460D02*
X13117420Y-15312936D01*
X13117420Y-15312936D02*
X13126944Y-15293888D01*
X13126944Y-15293888D02*
X13126944Y-15246269D01*
X13126944Y-15246269D02*
X13117420Y-15227222D01*
X13117420Y-15227222D02*
X13107896Y-15217698D01*
X13107896Y-15217698D02*
X13088848Y-15208174D01*
X13088848Y-15208174D02*
X13050753Y-15208174D01*
X13050753Y-15208174D02*
X13031706Y-15217698D01*
X13031706Y-15217698D02*
X13022182Y-15227222D01*
X13022182Y-15227222D02*
X13012658Y-15246269D01*
X13203134Y-15131984D02*
X13203134Y-15170079D01*
X13279325Y-15131984D02*
X13279325Y-15170079D01*
X13574563Y-15408174D02*
X13565039Y-15398650D01*
X13565039Y-15398650D02*
X13545991Y-15370079D01*
X13545991Y-15370079D02*
X13536468Y-15351031D01*
X13536468Y-15351031D02*
X13526944Y-15322460D01*
X13526944Y-15322460D02*
X13517420Y-15274841D01*
X13517420Y-15274841D02*
X13517420Y-15236746D01*
X13517420Y-15236746D02*
X13526944Y-15189127D01*
X13526944Y-15189127D02*
X13536468Y-15160555D01*
X13536468Y-15160555D02*
X13545991Y-15141508D01*
X13545991Y-15141508D02*
X13565039Y-15112936D01*
X13565039Y-15112936D02*
X13574563Y-15103412D01*
X13641229Y-15151031D02*
X13650753Y-15141508D01*
X13650753Y-15141508D02*
X13669801Y-15131984D01*
X13669801Y-15131984D02*
X13717420Y-15131984D01*
X13717420Y-15131984D02*
X13736468Y-15141508D01*
X13736468Y-15141508D02*
X13745991Y-15151031D01*
X13745991Y-15151031D02*
X13755515Y-15170079D01*
X13755515Y-15170079D02*
X13755515Y-15189127D01*
X13755515Y-15189127D02*
X13745991Y-15217698D01*
X13745991Y-15217698D02*
X13631706Y-15331984D01*
X13631706Y-15331984D02*
X13755515Y-15331984D01*
X13993610Y-15331984D02*
X13993610Y-15131984D01*
X14079325Y-15331984D02*
X14079325Y-15227222D01*
X14079325Y-15227222D02*
X14069801Y-15208174D01*
X14069801Y-15208174D02*
X14050753Y-15198650D01*
X14050753Y-15198650D02*
X14022182Y-15198650D01*
X14022182Y-15198650D02*
X14003134Y-15208174D01*
X14003134Y-15208174D02*
X13993610Y-15217698D01*
X14203134Y-15331984D02*
X14184087Y-15322460D01*
X14184087Y-15322460D02*
X14174563Y-15312936D01*
X14174563Y-15312936D02*
X14165039Y-15293888D01*
X14165039Y-15293888D02*
X14165039Y-15236746D01*
X14165039Y-15236746D02*
X14174563Y-15217698D01*
X14174563Y-15217698D02*
X14184087Y-15208174D01*
X14184087Y-15208174D02*
X14203134Y-15198650D01*
X14203134Y-15198650D02*
X14231706Y-15198650D01*
X14231706Y-15198650D02*
X14250753Y-15208174D01*
X14250753Y-15208174D02*
X14260277Y-15217698D01*
X14260277Y-15217698D02*
X14269801Y-15236746D01*
X14269801Y-15236746D02*
X14269801Y-15293888D01*
X14269801Y-15293888D02*
X14260277Y-15312936D01*
X14260277Y-15312936D02*
X14250753Y-15322460D01*
X14250753Y-15322460D02*
X14231706Y-15331984D01*
X14231706Y-15331984D02*
X14203134Y-15331984D01*
X14384087Y-15331984D02*
X14365039Y-15322460D01*
X14365039Y-15322460D02*
X14355515Y-15303412D01*
X14355515Y-15303412D02*
X14355515Y-15131984D01*
X14536468Y-15322460D02*
X14517420Y-15331984D01*
X14517420Y-15331984D02*
X14479325Y-15331984D01*
X14479325Y-15331984D02*
X14460277Y-15322460D01*
X14460277Y-15322460D02*
X14450753Y-15303412D01*
X14450753Y-15303412D02*
X14450753Y-15227222D01*
X14450753Y-15227222D02*
X14460277Y-15208174D01*
X14460277Y-15208174D02*
X14479325Y-15198650D01*
X14479325Y-15198650D02*
X14517420Y-15198650D01*
X14517420Y-15198650D02*
X14536468Y-15208174D01*
X14536468Y-15208174D02*
X14545991Y-15227222D01*
X14545991Y-15227222D02*
X14545991Y-15246269D01*
X14545991Y-15246269D02*
X14450753Y-15265317D01*
X14622182Y-15322460D02*
X14641230Y-15331984D01*
X14641230Y-15331984D02*
X14679325Y-15331984D01*
X14679325Y-15331984D02*
X14698372Y-15322460D01*
X14698372Y-15322460D02*
X14707896Y-15303412D01*
X14707896Y-15303412D02*
X14707896Y-15293888D01*
X14707896Y-15293888D02*
X14698372Y-15274841D01*
X14698372Y-15274841D02*
X14679325Y-15265317D01*
X14679325Y-15265317D02*
X14650753Y-15265317D01*
X14650753Y-15265317D02*
X14631706Y-15255793D01*
X14631706Y-15255793D02*
X14622182Y-15236746D01*
X14622182Y-15236746D02*
X14622182Y-15227222D01*
X14622182Y-15227222D02*
X14631706Y-15208174D01*
X14631706Y-15208174D02*
X14650753Y-15198650D01*
X14650753Y-15198650D02*
X14679325Y-15198650D01*
X14679325Y-15198650D02*
X14698372Y-15208174D01*
X14774563Y-15408174D02*
X14784087Y-15398650D01*
X14784087Y-15398650D02*
X14803134Y-15370079D01*
X14803134Y-15370079D02*
X14812658Y-15351031D01*
X14812658Y-15351031D02*
X14822182Y-15322460D01*
X14822182Y-15322460D02*
X14831706Y-15274841D01*
X14831706Y-15274841D02*
X14831706Y-15236746D01*
X14831706Y-15236746D02*
X14822182Y-15189127D01*
X14822182Y-15189127D02*
X14812658Y-15160555D01*
X14812658Y-15160555D02*
X14803134Y-15141508D01*
X14803134Y-15141508D02*
X14784087Y-15112936D01*
X14784087Y-15112936D02*
X14774563Y-15103412D01*
X15136468Y-15408174D02*
X15126944Y-15398650D01*
X15126944Y-15398650D02*
X15107896Y-15370079D01*
X15107896Y-15370079D02*
X15098372Y-15351031D01*
X15098372Y-15351031D02*
X15088849Y-15322460D01*
X15088849Y-15322460D02*
X15079325Y-15274841D01*
X15079325Y-15274841D02*
X15079325Y-15236746D01*
X15079325Y-15236746D02*
X15088849Y-15189127D01*
X15088849Y-15189127D02*
X15098372Y-15160555D01*
X15098372Y-15160555D02*
X15107896Y-15141508D01*
X15107896Y-15141508D02*
X15126944Y-15112936D01*
X15126944Y-15112936D02*
X15136468Y-15103412D01*
X15212658Y-15198650D02*
X15212658Y-15331984D01*
X15212658Y-15217698D02*
X15222182Y-15208174D01*
X15222182Y-15208174D02*
X15241230Y-15198650D01*
X15241230Y-15198650D02*
X15269801Y-15198650D01*
X15269801Y-15198650D02*
X15288849Y-15208174D01*
X15288849Y-15208174D02*
X15298372Y-15227222D01*
X15298372Y-15227222D02*
X15298372Y-15331984D01*
X15422182Y-15331984D02*
X15403134Y-15322460D01*
X15403134Y-15322460D02*
X15393611Y-15312936D01*
X15393611Y-15312936D02*
X15384087Y-15293888D01*
X15384087Y-15293888D02*
X15384087Y-15236746D01*
X15384087Y-15236746D02*
X15393611Y-15217698D01*
X15393611Y-15217698D02*
X15403134Y-15208174D01*
X15403134Y-15208174D02*
X15422182Y-15198650D01*
X15422182Y-15198650D02*
X15450753Y-15198650D01*
X15450753Y-15198650D02*
X15469801Y-15208174D01*
X15469801Y-15208174D02*
X15479325Y-15217698D01*
X15479325Y-15217698D02*
X15488849Y-15236746D01*
X15488849Y-15236746D02*
X15488849Y-15293888D01*
X15488849Y-15293888D02*
X15479325Y-15312936D01*
X15479325Y-15312936D02*
X15469801Y-15322460D01*
X15469801Y-15322460D02*
X15450753Y-15331984D01*
X15450753Y-15331984D02*
X15422182Y-15331984D01*
X15545992Y-15198650D02*
X15622182Y-15198650D01*
X15574563Y-15131984D02*
X15574563Y-15303412D01*
X15574563Y-15303412D02*
X15584087Y-15322460D01*
X15584087Y-15322460D02*
X15603134Y-15331984D01*
X15603134Y-15331984D02*
X15622182Y-15331984D01*
X15841230Y-15198650D02*
X15841230Y-15398650D01*
X15841230Y-15208174D02*
X15860277Y-15198650D01*
X15860277Y-15198650D02*
X15898373Y-15198650D01*
X15898373Y-15198650D02*
X15917420Y-15208174D01*
X15917420Y-15208174D02*
X15926944Y-15217698D01*
X15926944Y-15217698D02*
X15936468Y-15236746D01*
X15936468Y-15236746D02*
X15936468Y-15293888D01*
X15936468Y-15293888D02*
X15926944Y-15312936D01*
X15926944Y-15312936D02*
X15917420Y-15322460D01*
X15917420Y-15322460D02*
X15898373Y-15331984D01*
X15898373Y-15331984D02*
X15860277Y-15331984D01*
X15860277Y-15331984D02*
X15841230Y-15322460D01*
X16050753Y-15331984D02*
X16031706Y-15322460D01*
X16031706Y-15322460D02*
X16022182Y-15303412D01*
X16022182Y-15303412D02*
X16022182Y-15131984D01*
X16212658Y-15331984D02*
X16212658Y-15227222D01*
X16212658Y-15227222D02*
X16203134Y-15208174D01*
X16203134Y-15208174D02*
X16184087Y-15198650D01*
X16184087Y-15198650D02*
X16145992Y-15198650D01*
X16145992Y-15198650D02*
X16126944Y-15208174D01*
X16212658Y-15322460D02*
X16193611Y-15331984D01*
X16193611Y-15331984D02*
X16145992Y-15331984D01*
X16145992Y-15331984D02*
X16126944Y-15322460D01*
X16126944Y-15322460D02*
X16117420Y-15303412D01*
X16117420Y-15303412D02*
X16117420Y-15284365D01*
X16117420Y-15284365D02*
X16126944Y-15265317D01*
X16126944Y-15265317D02*
X16145992Y-15255793D01*
X16145992Y-15255793D02*
X16193611Y-15255793D01*
X16193611Y-15255793D02*
X16212658Y-15246269D01*
X16279325Y-15198650D02*
X16355515Y-15198650D01*
X16307896Y-15131984D02*
X16307896Y-15303412D01*
X16307896Y-15303412D02*
X16317420Y-15322460D01*
X16317420Y-15322460D02*
X16336468Y-15331984D01*
X16336468Y-15331984D02*
X16355515Y-15331984D01*
X16498373Y-15322460D02*
X16479325Y-15331984D01*
X16479325Y-15331984D02*
X16441230Y-15331984D01*
X16441230Y-15331984D02*
X16422182Y-15322460D01*
X16422182Y-15322460D02*
X16412658Y-15303412D01*
X16412658Y-15303412D02*
X16412658Y-15227222D01*
X16412658Y-15227222D02*
X16422182Y-15208174D01*
X16422182Y-15208174D02*
X16441230Y-15198650D01*
X16441230Y-15198650D02*
X16479325Y-15198650D01*
X16479325Y-15198650D02*
X16498373Y-15208174D01*
X16498373Y-15208174D02*
X16507896Y-15227222D01*
X16507896Y-15227222D02*
X16507896Y-15246269D01*
X16507896Y-15246269D02*
X16412658Y-15265317D01*
X16679325Y-15331984D02*
X16679325Y-15131984D01*
X16679325Y-15322460D02*
X16660277Y-15331984D01*
X16660277Y-15331984D02*
X16622182Y-15331984D01*
X16622182Y-15331984D02*
X16603134Y-15322460D01*
X16603134Y-15322460D02*
X16593611Y-15312936D01*
X16593611Y-15312936D02*
X16584087Y-15293888D01*
X16584087Y-15293888D02*
X16584087Y-15236746D01*
X16584087Y-15236746D02*
X16593611Y-15217698D01*
X16593611Y-15217698D02*
X16603134Y-15208174D01*
X16603134Y-15208174D02*
X16622182Y-15198650D01*
X16622182Y-15198650D02*
X16660277Y-15198650D01*
X16660277Y-15198650D02*
X16679325Y-15208174D01*
X16755515Y-15408174D02*
X16765039Y-15398650D01*
X16765039Y-15398650D02*
X16784087Y-15370079D01*
X16784087Y-15370079D02*
X16793611Y-15351031D01*
X16793611Y-15351031D02*
X16803135Y-15322460D01*
X16803135Y-15322460D02*
X16812658Y-15274841D01*
X16812658Y-15274841D02*
X16812658Y-15236746D01*
X16812658Y-15236746D02*
X16803135Y-15189127D01*
X16803135Y-15189127D02*
X16793611Y-15160555D01*
X16793611Y-15160555D02*
X16784087Y-15141508D01*
X16784087Y-15141508D02*
X16765039Y-15112936D01*
X16765039Y-15112936D02*
X16755515Y-15103412D01*
X9999500Y-15504500D02*
G75*
G03*
X9999500Y-15504500I-100000J0D01*
G01*
X10250753Y-15415031D02*
X10260277Y-15405508D01*
X10260277Y-15405508D02*
X10279324Y-15395984D01*
X10279324Y-15395984D02*
X10326944Y-15395984D01*
X10326944Y-15395984D02*
X10345991Y-15405508D01*
X10345991Y-15405508D02*
X10355515Y-15415031D01*
X10355515Y-15415031D02*
X10365039Y-15434079D01*
X10365039Y-15434079D02*
X10365039Y-15453127D01*
X10365039Y-15453127D02*
X10355515Y-15481698D01*
X10355515Y-15481698D02*
X10241229Y-15595984D01*
X10241229Y-15595984D02*
X10365039Y-15595984D01*
X10450753Y-15576936D02*
X10460277Y-15586460D01*
X10460277Y-15586460D02*
X10450753Y-15595984D01*
X10450753Y-15595984D02*
X10441229Y-15586460D01*
X10441229Y-15586460D02*
X10450753Y-15576936D01*
X10450753Y-15576936D02*
X10450753Y-15595984D01*
X10584086Y-15395984D02*
X10603134Y-15395984D01*
X10603134Y-15395984D02*
X10622182Y-15405508D01*
X10622182Y-15405508D02*
X10631705Y-15415031D01*
X10631705Y-15415031D02*
X10641229Y-15434079D01*
X10641229Y-15434079D02*
X10650753Y-15472174D01*
X10650753Y-15472174D02*
X10650753Y-15519793D01*
X10650753Y-15519793D02*
X10641229Y-15557888D01*
X10641229Y-15557888D02*
X10631705Y-15576936D01*
X10631705Y-15576936D02*
X10622182Y-15586460D01*
X10622182Y-15586460D02*
X10603134Y-15595984D01*
X10603134Y-15595984D02*
X10584086Y-15595984D01*
X10584086Y-15595984D02*
X10565039Y-15586460D01*
X10565039Y-15586460D02*
X10555515Y-15576936D01*
X10555515Y-15576936D02*
X10545991Y-15557888D01*
X10545991Y-15557888D02*
X10536467Y-15519793D01*
X10536467Y-15519793D02*
X10536467Y-15472174D01*
X10536467Y-15472174D02*
X10545991Y-15434079D01*
X10545991Y-15434079D02*
X10555515Y-15415031D01*
X10555515Y-15415031D02*
X10565039Y-15405508D01*
X10565039Y-15405508D02*
X10584086Y-15395984D01*
X10774563Y-15395984D02*
X10793610Y-15395984D01*
X10793610Y-15395984D02*
X10812658Y-15405508D01*
X10812658Y-15405508D02*
X10822182Y-15415031D01*
X10822182Y-15415031D02*
X10831705Y-15434079D01*
X10831705Y-15434079D02*
X10841229Y-15472174D01*
X10841229Y-15472174D02*
X10841229Y-15519793D01*
X10841229Y-15519793D02*
X10831705Y-15557888D01*
X10831705Y-15557888D02*
X10822182Y-15576936D01*
X10822182Y-15576936D02*
X10812658Y-15586460D01*
X10812658Y-15586460D02*
X10793610Y-15595984D01*
X10793610Y-15595984D02*
X10774563Y-15595984D01*
X10774563Y-15595984D02*
X10755515Y-15586460D01*
X10755515Y-15586460D02*
X10745991Y-15576936D01*
X10745991Y-15576936D02*
X10736467Y-15557888D01*
X10736467Y-15557888D02*
X10726944Y-15519793D01*
X10726944Y-15519793D02*
X10726944Y-15472174D01*
X10726944Y-15472174D02*
X10736467Y-15434079D01*
X10736467Y-15434079D02*
X10745991Y-15415031D01*
X10745991Y-15415031D02*
X10755515Y-15405508D01*
X10755515Y-15405508D02*
X10774563Y-15395984D01*
X10965039Y-15395984D02*
X10984086Y-15395984D01*
X10984086Y-15395984D02*
X11003134Y-15405508D01*
X11003134Y-15405508D02*
X11012658Y-15415031D01*
X11012658Y-15415031D02*
X11022182Y-15434079D01*
X11022182Y-15434079D02*
X11031705Y-15472174D01*
X11031705Y-15472174D02*
X11031705Y-15519793D01*
X11031705Y-15519793D02*
X11022182Y-15557888D01*
X11022182Y-15557888D02*
X11012658Y-15576936D01*
X11012658Y-15576936D02*
X11003134Y-15586460D01*
X11003134Y-15586460D02*
X10984086Y-15595984D01*
X10984086Y-15595984D02*
X10965039Y-15595984D01*
X10965039Y-15595984D02*
X10945991Y-15586460D01*
X10945991Y-15586460D02*
X10936467Y-15576936D01*
X10936467Y-15576936D02*
X10926944Y-15557888D01*
X10926944Y-15557888D02*
X10917420Y-15519793D01*
X10917420Y-15519793D02*
X10917420Y-15472174D01*
X10917420Y-15472174D02*
X10926944Y-15434079D01*
X10926944Y-15434079D02*
X10936467Y-15415031D01*
X10936467Y-15415031D02*
X10945991Y-15405508D01*
X10945991Y-15405508D02*
X10965039Y-15395984D01*
X11117420Y-15595984D02*
X11117420Y-15462650D01*
X11117420Y-15481698D02*
X11126944Y-15472174D01*
X11126944Y-15472174D02*
X11145991Y-15462650D01*
X11145991Y-15462650D02*
X11174563Y-15462650D01*
X11174563Y-15462650D02*
X11193610Y-15472174D01*
X11193610Y-15472174D02*
X11203134Y-15491222D01*
X11203134Y-15491222D02*
X11203134Y-15595984D01*
X11203134Y-15491222D02*
X11212658Y-15472174D01*
X11212658Y-15472174D02*
X11231705Y-15462650D01*
X11231705Y-15462650D02*
X11260277Y-15462650D01*
X11260277Y-15462650D02*
X11279324Y-15472174D01*
X11279324Y-15472174D02*
X11288848Y-15491222D01*
X11288848Y-15491222D02*
X11288848Y-15595984D01*
X11384086Y-15595984D02*
X11384086Y-15462650D01*
X11384086Y-15481698D02*
X11393610Y-15472174D01*
X11393610Y-15472174D02*
X11412658Y-15462650D01*
X11412658Y-15462650D02*
X11441229Y-15462650D01*
X11441229Y-15462650D02*
X11460277Y-15472174D01*
X11460277Y-15472174D02*
X11469801Y-15491222D01*
X11469801Y-15491222D02*
X11469801Y-15595984D01*
X11469801Y-15491222D02*
X11479324Y-15472174D01*
X11479324Y-15472174D02*
X11498372Y-15462650D01*
X11498372Y-15462650D02*
X11526943Y-15462650D01*
X11526943Y-15462650D02*
X11545991Y-15472174D01*
X11545991Y-15472174D02*
X11555515Y-15491222D01*
X11555515Y-15491222D02*
X11555515Y-15595984D01*
X11945991Y-15386460D02*
X11774563Y-15643603D01*
X12203134Y-15395984D02*
X12222182Y-15395984D01*
X12222182Y-15395984D02*
X12241229Y-15405508D01*
X12241229Y-15405508D02*
X12250753Y-15415031D01*
X12250753Y-15415031D02*
X12260277Y-15434079D01*
X12260277Y-15434079D02*
X12269801Y-15472174D01*
X12269801Y-15472174D02*
X12269801Y-15519793D01*
X12269801Y-15519793D02*
X12260277Y-15557888D01*
X12260277Y-15557888D02*
X12250753Y-15576936D01*
X12250753Y-15576936D02*
X12241229Y-15586460D01*
X12241229Y-15586460D02*
X12222182Y-15595984D01*
X12222182Y-15595984D02*
X12203134Y-15595984D01*
X12203134Y-15595984D02*
X12184086Y-15586460D01*
X12184086Y-15586460D02*
X12174563Y-15576936D01*
X12174563Y-15576936D02*
X12165039Y-15557888D01*
X12165039Y-15557888D02*
X12155515Y-15519793D01*
X12155515Y-15519793D02*
X12155515Y-15472174D01*
X12155515Y-15472174D02*
X12165039Y-15434079D01*
X12165039Y-15434079D02*
X12174563Y-15415031D01*
X12174563Y-15415031D02*
X12184086Y-15405508D01*
X12184086Y-15405508D02*
X12203134Y-15395984D01*
X12355515Y-15576936D02*
X12365039Y-15586460D01*
X12365039Y-15586460D02*
X12355515Y-15595984D01*
X12355515Y-15595984D02*
X12345991Y-15586460D01*
X12345991Y-15586460D02*
X12355515Y-15576936D01*
X12355515Y-15576936D02*
X12355515Y-15595984D01*
X12488848Y-15395984D02*
X12507896Y-15395984D01*
X12507896Y-15395984D02*
X12526944Y-15405508D01*
X12526944Y-15405508D02*
X12536467Y-15415031D01*
X12536467Y-15415031D02*
X12545991Y-15434079D01*
X12545991Y-15434079D02*
X12555515Y-15472174D01*
X12555515Y-15472174D02*
X12555515Y-15519793D01*
X12555515Y-15519793D02*
X12545991Y-15557888D01*
X12545991Y-15557888D02*
X12536467Y-15576936D01*
X12536467Y-15576936D02*
X12526944Y-15586460D01*
X12526944Y-15586460D02*
X12507896Y-15595984D01*
X12507896Y-15595984D02*
X12488848Y-15595984D01*
X12488848Y-15595984D02*
X12469801Y-15586460D01*
X12469801Y-15586460D02*
X12460277Y-15576936D01*
X12460277Y-15576936D02*
X12450753Y-15557888D01*
X12450753Y-15557888D02*
X12441229Y-15519793D01*
X12441229Y-15519793D02*
X12441229Y-15472174D01*
X12441229Y-15472174D02*
X12450753Y-15434079D01*
X12450753Y-15434079D02*
X12460277Y-15415031D01*
X12460277Y-15415031D02*
X12469801Y-15405508D01*
X12469801Y-15405508D02*
X12488848Y-15395984D01*
X12622182Y-15395984D02*
X12755515Y-15395984D01*
X12755515Y-15395984D02*
X12669801Y-15595984D01*
X12860277Y-15481698D02*
X12841229Y-15472174D01*
X12841229Y-15472174D02*
X12831706Y-15462650D01*
X12831706Y-15462650D02*
X12822182Y-15443603D01*
X12822182Y-15443603D02*
X12822182Y-15434079D01*
X12822182Y-15434079D02*
X12831706Y-15415031D01*
X12831706Y-15415031D02*
X12841229Y-15405508D01*
X12841229Y-15405508D02*
X12860277Y-15395984D01*
X12860277Y-15395984D02*
X12898372Y-15395984D01*
X12898372Y-15395984D02*
X12917420Y-15405508D01*
X12917420Y-15405508D02*
X12926944Y-15415031D01*
X12926944Y-15415031D02*
X12936467Y-15434079D01*
X12936467Y-15434079D02*
X12936467Y-15443603D01*
X12936467Y-15443603D02*
X12926944Y-15462650D01*
X12926944Y-15462650D02*
X12917420Y-15472174D01*
X12917420Y-15472174D02*
X12898372Y-15481698D01*
X12898372Y-15481698D02*
X12860277Y-15481698D01*
X12860277Y-15481698D02*
X12841229Y-15491222D01*
X12841229Y-15491222D02*
X12831706Y-15500746D01*
X12831706Y-15500746D02*
X12822182Y-15519793D01*
X12822182Y-15519793D02*
X12822182Y-15557888D01*
X12822182Y-15557888D02*
X12831706Y-15576936D01*
X12831706Y-15576936D02*
X12841229Y-15586460D01*
X12841229Y-15586460D02*
X12860277Y-15595984D01*
X12860277Y-15595984D02*
X12898372Y-15595984D01*
X12898372Y-15595984D02*
X12917420Y-15586460D01*
X12917420Y-15586460D02*
X12926944Y-15576936D01*
X12926944Y-15576936D02*
X12936467Y-15557888D01*
X12936467Y-15557888D02*
X12936467Y-15519793D01*
X12936467Y-15519793D02*
X12926944Y-15500746D01*
X12926944Y-15500746D02*
X12917420Y-15491222D01*
X12917420Y-15491222D02*
X12898372Y-15481698D01*
X13003134Y-15395984D02*
X13136467Y-15395984D01*
X13136467Y-15395984D02*
X13050753Y-15595984D01*
X13203134Y-15395984D02*
X13203134Y-15434079D01*
X13279325Y-15395984D02*
X13279325Y-15434079D01*
X13574563Y-15672174D02*
X13565039Y-15662650D01*
X13565039Y-15662650D02*
X13545991Y-15634079D01*
X13545991Y-15634079D02*
X13536468Y-15615031D01*
X13536468Y-15615031D02*
X13526944Y-15586460D01*
X13526944Y-15586460D02*
X13517420Y-15538841D01*
X13517420Y-15538841D02*
X13517420Y-15500746D01*
X13517420Y-15500746D02*
X13526944Y-15453127D01*
X13526944Y-15453127D02*
X13536468Y-15424555D01*
X13536468Y-15424555D02*
X13545991Y-15405508D01*
X13545991Y-15405508D02*
X13565039Y-15376936D01*
X13565039Y-15376936D02*
X13574563Y-15367412D01*
X13755515Y-15595984D02*
X13641229Y-15595984D01*
X13698372Y-15595984D02*
X13698372Y-15395984D01*
X13698372Y-15395984D02*
X13679325Y-15424555D01*
X13679325Y-15424555D02*
X13660277Y-15443603D01*
X13660277Y-15443603D02*
X13641229Y-15453127D01*
X13993610Y-15595984D02*
X13993610Y-15395984D01*
X14079325Y-15595984D02*
X14079325Y-15491222D01*
X14079325Y-15491222D02*
X14069801Y-15472174D01*
X14069801Y-15472174D02*
X14050753Y-15462650D01*
X14050753Y-15462650D02*
X14022182Y-15462650D01*
X14022182Y-15462650D02*
X14003134Y-15472174D01*
X14003134Y-15472174D02*
X13993610Y-15481698D01*
X14203134Y-15595984D02*
X14184087Y-15586460D01*
X14184087Y-15586460D02*
X14174563Y-15576936D01*
X14174563Y-15576936D02*
X14165039Y-15557888D01*
X14165039Y-15557888D02*
X14165039Y-15500746D01*
X14165039Y-15500746D02*
X14174563Y-15481698D01*
X14174563Y-15481698D02*
X14184087Y-15472174D01*
X14184087Y-15472174D02*
X14203134Y-15462650D01*
X14203134Y-15462650D02*
X14231706Y-15462650D01*
X14231706Y-15462650D02*
X14250753Y-15472174D01*
X14250753Y-15472174D02*
X14260277Y-15481698D01*
X14260277Y-15481698D02*
X14269801Y-15500746D01*
X14269801Y-15500746D02*
X14269801Y-15557888D01*
X14269801Y-15557888D02*
X14260277Y-15576936D01*
X14260277Y-15576936D02*
X14250753Y-15586460D01*
X14250753Y-15586460D02*
X14231706Y-15595984D01*
X14231706Y-15595984D02*
X14203134Y-15595984D01*
X14384087Y-15595984D02*
X14365039Y-15586460D01*
X14365039Y-15586460D02*
X14355515Y-15567412D01*
X14355515Y-15567412D02*
X14355515Y-15395984D01*
X14536468Y-15586460D02*
X14517420Y-15595984D01*
X14517420Y-15595984D02*
X14479325Y-15595984D01*
X14479325Y-15595984D02*
X14460277Y-15586460D01*
X14460277Y-15586460D02*
X14450753Y-15567412D01*
X14450753Y-15567412D02*
X14450753Y-15491222D01*
X14450753Y-15491222D02*
X14460277Y-15472174D01*
X14460277Y-15472174D02*
X14479325Y-15462650D01*
X14479325Y-15462650D02*
X14517420Y-15462650D01*
X14517420Y-15462650D02*
X14536468Y-15472174D01*
X14536468Y-15472174D02*
X14545991Y-15491222D01*
X14545991Y-15491222D02*
X14545991Y-15510269D01*
X14545991Y-15510269D02*
X14450753Y-15529317D01*
X14612658Y-15672174D02*
X14622182Y-15662650D01*
X14622182Y-15662650D02*
X14641230Y-15634079D01*
X14641230Y-15634079D02*
X14650753Y-15615031D01*
X14650753Y-15615031D02*
X14660277Y-15586460D01*
X14660277Y-15586460D02*
X14669801Y-15538841D01*
X14669801Y-15538841D02*
X14669801Y-15500746D01*
X14669801Y-15500746D02*
X14660277Y-15453127D01*
X14660277Y-15453127D02*
X14650753Y-15424555D01*
X14650753Y-15424555D02*
X14641230Y-15405508D01*
X14641230Y-15405508D02*
X14622182Y-15376936D01*
X14622182Y-15376936D02*
X14612658Y-15367412D01*
X14974563Y-15672174D02*
X14965039Y-15662650D01*
X14965039Y-15662650D02*
X14945991Y-15634079D01*
X14945991Y-15634079D02*
X14936468Y-15615031D01*
X14936468Y-15615031D02*
X14926944Y-15586460D01*
X14926944Y-15586460D02*
X14917420Y-15538841D01*
X14917420Y-15538841D02*
X14917420Y-15500746D01*
X14917420Y-15500746D02*
X14926944Y-15453127D01*
X14926944Y-15453127D02*
X14936468Y-15424555D01*
X14936468Y-15424555D02*
X14945991Y-15405508D01*
X14945991Y-15405508D02*
X14965039Y-15376936D01*
X14965039Y-15376936D02*
X14974563Y-15367412D01*
X15050753Y-15462650D02*
X15050753Y-15595984D01*
X15050753Y-15481698D02*
X15060277Y-15472174D01*
X15060277Y-15472174D02*
X15079325Y-15462650D01*
X15079325Y-15462650D02*
X15107896Y-15462650D01*
X15107896Y-15462650D02*
X15126944Y-15472174D01*
X15126944Y-15472174D02*
X15136468Y-15491222D01*
X15136468Y-15491222D02*
X15136468Y-15595984D01*
X15260277Y-15595984D02*
X15241230Y-15586460D01*
X15241230Y-15586460D02*
X15231706Y-15576936D01*
X15231706Y-15576936D02*
X15222182Y-15557888D01*
X15222182Y-15557888D02*
X15222182Y-15500746D01*
X15222182Y-15500746D02*
X15231706Y-15481698D01*
X15231706Y-15481698D02*
X15241230Y-15472174D01*
X15241230Y-15472174D02*
X15260277Y-15462650D01*
X15260277Y-15462650D02*
X15288849Y-15462650D01*
X15288849Y-15462650D02*
X15307896Y-15472174D01*
X15307896Y-15472174D02*
X15317420Y-15481698D01*
X15317420Y-15481698D02*
X15326944Y-15500746D01*
X15326944Y-15500746D02*
X15326944Y-15557888D01*
X15326944Y-15557888D02*
X15317420Y-15576936D01*
X15317420Y-15576936D02*
X15307896Y-15586460D01*
X15307896Y-15586460D02*
X15288849Y-15595984D01*
X15288849Y-15595984D02*
X15260277Y-15595984D01*
X15384087Y-15462650D02*
X15460277Y-15462650D01*
X15412658Y-15395984D02*
X15412658Y-15567412D01*
X15412658Y-15567412D02*
X15422182Y-15586460D01*
X15422182Y-15586460D02*
X15441230Y-15595984D01*
X15441230Y-15595984D02*
X15460277Y-15595984D01*
X15679325Y-15462650D02*
X15679325Y-15662650D01*
X15679325Y-15472174D02*
X15698372Y-15462650D01*
X15698372Y-15462650D02*
X15736468Y-15462650D01*
X15736468Y-15462650D02*
X15755515Y-15472174D01*
X15755515Y-15472174D02*
X15765039Y-15481698D01*
X15765039Y-15481698D02*
X15774563Y-15500746D01*
X15774563Y-15500746D02*
X15774563Y-15557888D01*
X15774563Y-15557888D02*
X15765039Y-15576936D01*
X15765039Y-15576936D02*
X15755515Y-15586460D01*
X15755515Y-15586460D02*
X15736468Y-15595984D01*
X15736468Y-15595984D02*
X15698372Y-15595984D01*
X15698372Y-15595984D02*
X15679325Y-15586460D01*
X15888849Y-15595984D02*
X15869801Y-15586460D01*
X15869801Y-15586460D02*
X15860277Y-15567412D01*
X15860277Y-15567412D02*
X15860277Y-15395984D01*
X16050753Y-15595984D02*
X16050753Y-15491222D01*
X16050753Y-15491222D02*
X16041230Y-15472174D01*
X16041230Y-15472174D02*
X16022182Y-15462650D01*
X16022182Y-15462650D02*
X15984087Y-15462650D01*
X15984087Y-15462650D02*
X15965039Y-15472174D01*
X16050753Y-15586460D02*
X16031706Y-15595984D01*
X16031706Y-15595984D02*
X15984087Y-15595984D01*
X15984087Y-15595984D02*
X15965039Y-15586460D01*
X15965039Y-15586460D02*
X15955515Y-15567412D01*
X15955515Y-15567412D02*
X15955515Y-15548365D01*
X15955515Y-15548365D02*
X15965039Y-15529317D01*
X15965039Y-15529317D02*
X15984087Y-15519793D01*
X15984087Y-15519793D02*
X16031706Y-15519793D01*
X16031706Y-15519793D02*
X16050753Y-15510269D01*
X16117420Y-15462650D02*
X16193611Y-15462650D01*
X16145992Y-15395984D02*
X16145992Y-15567412D01*
X16145992Y-15567412D02*
X16155515Y-15586460D01*
X16155515Y-15586460D02*
X16174563Y-15595984D01*
X16174563Y-15595984D02*
X16193611Y-15595984D01*
X16336468Y-15586460D02*
X16317420Y-15595984D01*
X16317420Y-15595984D02*
X16279325Y-15595984D01*
X16279325Y-15595984D02*
X16260277Y-15586460D01*
X16260277Y-15586460D02*
X16250753Y-15567412D01*
X16250753Y-15567412D02*
X16250753Y-15491222D01*
X16250753Y-15491222D02*
X16260277Y-15472174D01*
X16260277Y-15472174D02*
X16279325Y-15462650D01*
X16279325Y-15462650D02*
X16317420Y-15462650D01*
X16317420Y-15462650D02*
X16336468Y-15472174D01*
X16336468Y-15472174D02*
X16345992Y-15491222D01*
X16345992Y-15491222D02*
X16345992Y-15510269D01*
X16345992Y-15510269D02*
X16250753Y-15529317D01*
X16517420Y-15595984D02*
X16517420Y-15395984D01*
X16517420Y-15586460D02*
X16498373Y-15595984D01*
X16498373Y-15595984D02*
X16460277Y-15595984D01*
X16460277Y-15595984D02*
X16441230Y-15586460D01*
X16441230Y-15586460D02*
X16431706Y-15576936D01*
X16431706Y-15576936D02*
X16422182Y-15557888D01*
X16422182Y-15557888D02*
X16422182Y-15500746D01*
X16422182Y-15500746D02*
X16431706Y-15481698D01*
X16431706Y-15481698D02*
X16441230Y-15472174D01*
X16441230Y-15472174D02*
X16460277Y-15462650D01*
X16460277Y-15462650D02*
X16498373Y-15462650D01*
X16498373Y-15462650D02*
X16517420Y-15472174D01*
X16593611Y-15672174D02*
X16603134Y-15662650D01*
X16603134Y-15662650D02*
X16622182Y-15634079D01*
X16622182Y-15634079D02*
X16631706Y-15615031D01*
X16631706Y-15615031D02*
X16641230Y-15586460D01*
X16641230Y-15586460D02*
X16650753Y-15538841D01*
X16650753Y-15538841D02*
X16650753Y-15500746D01*
X16650753Y-15500746D02*
X16641230Y-15453127D01*
X16641230Y-15453127D02*
X16631706Y-15424555D01*
X16631706Y-15424555D02*
X16622182Y-15405508D01*
X16622182Y-15405508D02*
X16603134Y-15376936D01*
X16603134Y-15376936D02*
X16593611Y-15367412D01*
M02*
