%TF.GenerationSoftware,KiCad,Pcbnew,7.0.6-7.0.6~ubuntu22.04.1*%
%TF.CreationDate,2023-09-10T12:00:01+02:00*%
%TF.ProjectId,RFAmp,5246416d-702e-46b6-9963-61645f706362,rev?*%
%TF.SameCoordinates,Original*%
%TF.FileFunction,Drillmap*%
%TF.FilePolarity,Positive*%
%FSLAX45Y45*%
G04 Gerber Fmt 4.5, Leading zero omitted, Abs format (unit mm)*
G04 Created by KiCad (PCBNEW 7.0.6-7.0.6~ubuntu22.04.1) date 2023-09-10 12:00:01*
%MOMM*%
%LPD*%
G01*
G04 APERTURE LIST*
%ADD10C,0.010000*%
%ADD11C,0.200000*%
%ADD12C,0.040000*%
%ADD13C,0.060000*%
%ADD14C,0.070000*%
%ADD15C,0.260000*%
G04 APERTURE END LIST*
D10*
X15100000Y-14600000D02*
X10000000Y-14600000D01*
X10000000Y-12800000D02*
X10000000Y-10000000D01*
X10170000Y-14000000D02*
X10000000Y-14000000D01*
X14930000Y-12800000D02*
X14930000Y-14000000D01*
X15100000Y-14000000D02*
X15100000Y-14600000D01*
X10000000Y-10000000D02*
X15100000Y-10000000D01*
X14930000Y-12800000D02*
X15100000Y-12800000D01*
X15100000Y-10000000D02*
X15100000Y-12800000D01*
X10000000Y-14000000D02*
X10000000Y-14600000D01*
X10000000Y-12800000D02*
X10170000Y-12800000D01*
X10170000Y-12800000D02*
X10170000Y-14000000D01*
X14930000Y-14000000D02*
X15100000Y-14000000D01*
D11*
D12*
X10045000Y-14030000D02*
X10085000Y-14070000D01*
X10085000Y-14030000D02*
X10045000Y-14070000D01*
X10055000Y-11820000D02*
X10095000Y-11860000D01*
X10095000Y-11820000D02*
X10055000Y-11860000D01*
X10055000Y-12115000D02*
X10095000Y-12155000D01*
X10095000Y-12115000D02*
X10055000Y-12155000D01*
X10060000Y-10060000D02*
X10100000Y-10100000D01*
X10100000Y-10060000D02*
X10060000Y-10100000D01*
X10060000Y-10540000D02*
X10100000Y-10580000D01*
X10100000Y-10540000D02*
X10060000Y-10580000D01*
X10060000Y-12560000D02*
X10100000Y-12600000D01*
X10100000Y-12560000D02*
X10060000Y-12600000D01*
X10060000Y-14500000D02*
X10100000Y-14540000D01*
X10100000Y-14500000D02*
X10060000Y-14540000D01*
X10330000Y-13190000D02*
X10370000Y-13230000D01*
X10370000Y-13190000D02*
X10330000Y-13230000D01*
X10330000Y-13570000D02*
X10370000Y-13610000D01*
X10370000Y-13570000D02*
X10330000Y-13610000D01*
X10380000Y-12120000D02*
X10420000Y-12160000D01*
X10420000Y-12120000D02*
X10380000Y-12160000D01*
X10420000Y-12560000D02*
X10460000Y-12600000D01*
X10460000Y-12560000D02*
X10420000Y-12600000D01*
X10435000Y-13105000D02*
X10475000Y-13145000D01*
X10475000Y-13105000D02*
X10435000Y-13145000D01*
X10435000Y-13650000D02*
X10475000Y-13690000D01*
X10475000Y-13650000D02*
X10435000Y-13690000D01*
X10435000Y-13960000D02*
X10475000Y-14000000D01*
X10475000Y-13960000D02*
X10435000Y-14000000D01*
X10440000Y-11980000D02*
X10480000Y-12020000D01*
X10480000Y-11980000D02*
X10440000Y-12020000D01*
X10440000Y-12800000D02*
X10480000Y-12840000D01*
X10480000Y-12800000D02*
X10440000Y-12840000D01*
X10460000Y-13190000D02*
X10500000Y-13230000D01*
X10500000Y-13190000D02*
X10460000Y-13230000D01*
X10460000Y-13570000D02*
X10500000Y-13610000D01*
X10500000Y-13570000D02*
X10460000Y-13610000D01*
X10480000Y-10060000D02*
X10520000Y-10100000D01*
X10520000Y-10060000D02*
X10480000Y-10100000D01*
X10480000Y-14500000D02*
X10520000Y-14540000D01*
X10520000Y-14500000D02*
X10480000Y-14540000D01*
X10590000Y-13190000D02*
X10630000Y-13230000D01*
X10630000Y-13190000D02*
X10590000Y-13230000D01*
X10590000Y-13570000D02*
X10630000Y-13610000D01*
X10630000Y-13570000D02*
X10590000Y-13610000D01*
X10680000Y-11820000D02*
X10720000Y-11860000D01*
X10720000Y-11820000D02*
X10680000Y-11860000D01*
X10710000Y-13190000D02*
X10750000Y-13230000D01*
X10750000Y-13190000D02*
X10710000Y-13230000D01*
X10720000Y-13570000D02*
X10760000Y-13610000D01*
X10760000Y-13570000D02*
X10720000Y-13610000D01*
X10760000Y-10640000D02*
X10800000Y-10680000D01*
X10800000Y-10640000D02*
X10760000Y-10680000D01*
X10765000Y-12955000D02*
X10805000Y-12995000D01*
X10805000Y-12955000D02*
X10765000Y-12995000D01*
X10770000Y-13805000D02*
X10810000Y-13845000D01*
X10810000Y-13805000D02*
X10770000Y-13845000D01*
X10780000Y-10060000D02*
X10820000Y-10100000D01*
X10820000Y-10060000D02*
X10780000Y-10100000D01*
X10780000Y-12120000D02*
X10820000Y-12160000D01*
X10820000Y-12120000D02*
X10780000Y-12160000D01*
X10780000Y-12560000D02*
X10820000Y-12600000D01*
X10820000Y-12560000D02*
X10780000Y-12600000D01*
X10780000Y-14500000D02*
X10820000Y-14540000D01*
X10820000Y-14500000D02*
X10780000Y-14540000D01*
X10785000Y-10760000D02*
X10825000Y-10800000D01*
X10825000Y-10760000D02*
X10785000Y-10800000D01*
X10830000Y-10380000D02*
X10870000Y-10420000D01*
X10870000Y-10380000D02*
X10830000Y-10420000D01*
X10830000Y-13190000D02*
X10870000Y-13230000D01*
X10870000Y-13190000D02*
X10830000Y-13230000D01*
X10840000Y-11520000D02*
X10880000Y-11560000D01*
X10880000Y-11520000D02*
X10840000Y-11560000D01*
X10840000Y-11640000D02*
X10880000Y-11680000D01*
X10880000Y-11640000D02*
X10840000Y-11680000D01*
X10840000Y-13570000D02*
X10880000Y-13610000D01*
X10880000Y-13570000D02*
X10840000Y-13610000D01*
X10950000Y-13190000D02*
X10990000Y-13230000D01*
X10990000Y-13190000D02*
X10950000Y-13230000D01*
X10960000Y-13570000D02*
X11000000Y-13610000D01*
X11000000Y-13570000D02*
X10960000Y-13610000D01*
X11070000Y-13190000D02*
X11110000Y-13230000D01*
X11110000Y-13190000D02*
X11070000Y-13230000D01*
X11080000Y-10060000D02*
X11120000Y-10100000D01*
X11120000Y-10060000D02*
X11080000Y-10100000D01*
X11080000Y-13570000D02*
X11120000Y-13610000D01*
X11120000Y-13570000D02*
X11080000Y-13610000D01*
X11080000Y-14500000D02*
X11120000Y-14540000D01*
X11120000Y-14500000D02*
X11080000Y-14540000D01*
X11085000Y-11195000D02*
X11125000Y-11235000D01*
X11125000Y-11195000D02*
X11085000Y-11235000D01*
X11100000Y-10780000D02*
X11140000Y-10820000D01*
X11140000Y-10780000D02*
X11100000Y-10820000D01*
X11120000Y-11560000D02*
X11160000Y-11600000D01*
X11160000Y-11560000D02*
X11120000Y-11600000D01*
X11140000Y-12560000D02*
X11180000Y-12600000D01*
X11180000Y-12560000D02*
X11140000Y-12600000D01*
X11180000Y-12120000D02*
X11220000Y-12160000D01*
X11220000Y-12120000D02*
X11180000Y-12160000D01*
X11190000Y-13190000D02*
X11230000Y-13230000D01*
X11230000Y-13190000D02*
X11190000Y-13230000D01*
X11200000Y-13570000D02*
X11240000Y-13610000D01*
X11240000Y-13570000D02*
X11200000Y-13610000D01*
X11291559Y-11011098D02*
X11331559Y-11051098D01*
X11331559Y-11011098D02*
X11291559Y-11051098D01*
X11310000Y-13190000D02*
X11350000Y-13230000D01*
X11350000Y-13190000D02*
X11310000Y-13230000D01*
X11320000Y-13570000D02*
X11360000Y-13610000D01*
X11360000Y-13570000D02*
X11320000Y-13610000D01*
X11329055Y-11408547D02*
X11369055Y-11448547D01*
X11369055Y-11408547D02*
X11329055Y-11448547D01*
X11380000Y-14500000D02*
X11420000Y-14540000D01*
X11420000Y-14500000D02*
X11380000Y-14540000D01*
X11430000Y-13190000D02*
X11470000Y-13230000D01*
X11470000Y-13190000D02*
X11430000Y-13230000D01*
X11440000Y-13570000D02*
X11480000Y-13610000D01*
X11480000Y-13570000D02*
X11440000Y-13610000D01*
X11465000Y-10995000D02*
X11505000Y-11035000D01*
X11505000Y-10995000D02*
X11465000Y-11035000D01*
X11500000Y-12560000D02*
X11540000Y-12600000D01*
X11540000Y-12560000D02*
X11500000Y-12600000D01*
X11515000Y-10795000D02*
X11555000Y-10835000D01*
X11555000Y-10795000D02*
X11515000Y-10835000D01*
X11520000Y-10200000D02*
X11560000Y-10240000D01*
X11560000Y-10200000D02*
X11520000Y-10240000D01*
X11520000Y-10560000D02*
X11560000Y-10600000D01*
X11560000Y-10560000D02*
X11520000Y-10600000D01*
X11550000Y-13190000D02*
X11590000Y-13230000D01*
X11590000Y-13190000D02*
X11550000Y-13230000D01*
X11560000Y-13570000D02*
X11600000Y-13610000D01*
X11600000Y-13570000D02*
X11560000Y-13610000D01*
X11580000Y-12120000D02*
X11620000Y-12160000D01*
X11620000Y-12120000D02*
X11580000Y-12160000D01*
X11670000Y-13190000D02*
X11710000Y-13230000D01*
X11710000Y-13190000D02*
X11670000Y-13230000D01*
X11680000Y-10060000D02*
X11720000Y-10100000D01*
X11720000Y-10060000D02*
X11680000Y-10100000D01*
X11680000Y-11420000D02*
X11720000Y-11460000D01*
X11720000Y-11420000D02*
X11680000Y-11460000D01*
X11680000Y-13570000D02*
X11720000Y-13610000D01*
X11720000Y-13570000D02*
X11680000Y-13610000D01*
X11680000Y-14500000D02*
X11720000Y-14540000D01*
X11720000Y-14500000D02*
X11680000Y-14540000D01*
X11725000Y-10555000D02*
X11765000Y-10595000D01*
X11765000Y-10555000D02*
X11725000Y-10595000D01*
X11800000Y-13190000D02*
X11840000Y-13230000D01*
X11840000Y-13190000D02*
X11800000Y-13230000D01*
X11800000Y-13570000D02*
X11840000Y-13610000D01*
X11840000Y-13570000D02*
X11800000Y-13610000D01*
X11855000Y-10205000D02*
X11895000Y-10245000D01*
X11895000Y-10205000D02*
X11855000Y-10245000D01*
X11860000Y-12560000D02*
X11900000Y-12600000D01*
X11900000Y-12560000D02*
X11860000Y-12600000D01*
X11895000Y-12905000D02*
X11935000Y-12945000D01*
X11935000Y-12905000D02*
X11895000Y-12945000D01*
X11920000Y-13570000D02*
X11960000Y-13610000D01*
X11960000Y-13570000D02*
X11920000Y-13610000D01*
X11925343Y-11191115D02*
X11965343Y-11231115D01*
X11965343Y-11191115D02*
X11925343Y-11231115D01*
X11980000Y-10060000D02*
X12020000Y-10100000D01*
X12020000Y-10060000D02*
X11980000Y-10100000D01*
X11980000Y-12120000D02*
X12020000Y-12160000D01*
X12020000Y-12120000D02*
X11980000Y-12160000D01*
X11980000Y-14500000D02*
X12020000Y-14540000D01*
X12020000Y-14500000D02*
X11980000Y-14540000D01*
X12080000Y-13560000D02*
X12120000Y-13600000D01*
X12120000Y-13560000D02*
X12080000Y-13600000D01*
X12085000Y-12905000D02*
X12125000Y-12945000D01*
X12125000Y-12905000D02*
X12085000Y-12945000D01*
X12160000Y-11440000D02*
X12200000Y-11480000D01*
X12200000Y-11440000D02*
X12160000Y-11480000D01*
X12220000Y-12560000D02*
X12260000Y-12600000D01*
X12260000Y-12560000D02*
X12220000Y-12600000D01*
X12250000Y-13570000D02*
X12290000Y-13610000D01*
X12290000Y-13570000D02*
X12250000Y-13610000D01*
X12255000Y-12905000D02*
X12295000Y-12945000D01*
X12295000Y-12905000D02*
X12255000Y-12945000D01*
X12260000Y-11940000D02*
X12300000Y-11980000D01*
X12300000Y-11940000D02*
X12260000Y-11980000D01*
X12280000Y-10060000D02*
X12320000Y-10100000D01*
X12320000Y-10060000D02*
X12280000Y-10100000D01*
X12280000Y-14500000D02*
X12320000Y-14540000D01*
X12320000Y-14500000D02*
X12280000Y-14540000D01*
X12335000Y-12135000D02*
X12375000Y-12175000D01*
X12375000Y-12135000D02*
X12335000Y-12175000D01*
X12360000Y-11940000D02*
X12400000Y-11980000D01*
X12400000Y-11940000D02*
X12360000Y-11980000D01*
X12370000Y-13570000D02*
X12410000Y-13610000D01*
X12410000Y-13570000D02*
X12370000Y-13610000D01*
X12380000Y-13190000D02*
X12420000Y-13230000D01*
X12420000Y-13190000D02*
X12380000Y-13230000D01*
X12480000Y-11810000D02*
X12520000Y-11850000D01*
X12520000Y-11810000D02*
X12480000Y-11850000D01*
X12480000Y-12560000D02*
X12520000Y-12600000D01*
X12520000Y-12560000D02*
X12480000Y-12600000D01*
X12490000Y-13570000D02*
X12530000Y-13610000D01*
X12530000Y-13570000D02*
X12490000Y-13610000D01*
X12520000Y-10900000D02*
X12560000Y-10940000D01*
X12560000Y-10900000D02*
X12520000Y-10940000D01*
X12530000Y-13190000D02*
X12570000Y-13230000D01*
X12570000Y-13190000D02*
X12530000Y-13230000D01*
X12610000Y-13570000D02*
X12650000Y-13610000D01*
X12650000Y-13570000D02*
X12610000Y-13610000D01*
X12614263Y-11097770D02*
X12654263Y-11137770D01*
X12654263Y-11097770D02*
X12614263Y-11137770D01*
X12620000Y-12670000D02*
X12660000Y-12710000D01*
X12660000Y-12670000D02*
X12620000Y-12710000D01*
X12625000Y-11395000D02*
X12665000Y-11435000D01*
X12665000Y-11395000D02*
X12625000Y-11435000D01*
X12660000Y-10700000D02*
X12700000Y-10740000D01*
X12700000Y-10700000D02*
X12660000Y-10740000D01*
X12680000Y-10060000D02*
X12720000Y-10100000D01*
X12720000Y-10060000D02*
X12680000Y-10100000D01*
X12680000Y-12830000D02*
X12720000Y-12870000D01*
X12720000Y-12830000D02*
X12680000Y-12870000D01*
X12680000Y-13000000D02*
X12720000Y-13040000D01*
X12720000Y-13000000D02*
X12680000Y-13040000D01*
X12680000Y-13190000D02*
X12720000Y-13230000D01*
X12720000Y-13190000D02*
X12680000Y-13230000D01*
X12680000Y-14500000D02*
X12720000Y-14540000D01*
X12720000Y-14500000D02*
X12680000Y-14540000D01*
X12730000Y-13570000D02*
X12770000Y-13610000D01*
X12770000Y-13570000D02*
X12730000Y-13610000D01*
X12761635Y-11777880D02*
X12801635Y-11817880D01*
X12801635Y-11777880D02*
X12761635Y-11817880D01*
X12825000Y-10900000D02*
X12865000Y-10940000D01*
X12865000Y-10900000D02*
X12825000Y-10940000D01*
X12850000Y-13570000D02*
X12890000Y-13610000D01*
X12890000Y-13570000D02*
X12850000Y-13610000D01*
X12870000Y-12670000D02*
X12910000Y-12710000D01*
X12910000Y-12670000D02*
X12870000Y-12710000D01*
X12875000Y-10995000D02*
X12915000Y-11035000D01*
X12915000Y-10995000D02*
X12875000Y-11035000D01*
X12900000Y-12560000D02*
X12940000Y-12600000D01*
X12940000Y-12560000D02*
X12900000Y-12600000D01*
X12970000Y-13570000D02*
X13010000Y-13610000D01*
X13010000Y-13570000D02*
X12970000Y-13610000D01*
X12975000Y-12115000D02*
X13015000Y-12155000D01*
X13015000Y-12115000D02*
X12975000Y-12155000D01*
X12980000Y-10060000D02*
X13020000Y-10100000D01*
X13020000Y-10060000D02*
X12980000Y-10100000D01*
X12980000Y-14500000D02*
X13020000Y-14540000D01*
X13020000Y-14500000D02*
X12980000Y-14540000D01*
X13045000Y-11785000D02*
X13085000Y-11825000D01*
X13085000Y-11785000D02*
X13045000Y-11825000D01*
X13080000Y-11930000D02*
X13120000Y-11970000D01*
X13120000Y-11930000D02*
X13080000Y-11970000D01*
X13090000Y-13570000D02*
X13130000Y-13610000D01*
X13130000Y-13570000D02*
X13090000Y-13610000D01*
X13120000Y-10695000D02*
X13160000Y-10735000D01*
X13160000Y-10695000D02*
X13120000Y-10735000D01*
X13193859Y-11033148D02*
X13233859Y-11073148D01*
X13233859Y-11033148D02*
X13193859Y-11073148D01*
X13200000Y-12560000D02*
X13240000Y-12600000D01*
X13240000Y-12560000D02*
X13200000Y-12600000D01*
X13210000Y-13570000D02*
X13250000Y-13610000D01*
X13250000Y-13570000D02*
X13210000Y-13610000D01*
X13230000Y-12130000D02*
X13270000Y-12170000D01*
X13270000Y-12130000D02*
X13230000Y-12170000D01*
X13280000Y-10060000D02*
X13320000Y-10100000D01*
X13320000Y-10060000D02*
X13280000Y-10100000D01*
X13280000Y-12830000D02*
X13320000Y-12870000D01*
X13320000Y-12830000D02*
X13280000Y-12870000D01*
X13280000Y-13000000D02*
X13320000Y-13040000D01*
X13320000Y-13000000D02*
X13280000Y-13040000D01*
X13280000Y-14500000D02*
X13320000Y-14540000D01*
X13320000Y-14500000D02*
X13280000Y-14540000D01*
X13300000Y-10565000D02*
X13340000Y-10605000D01*
X13340000Y-10565000D02*
X13300000Y-10605000D01*
X13330000Y-13190000D02*
X13370000Y-13230000D01*
X13370000Y-13190000D02*
X13330000Y-13230000D01*
X13330000Y-13570000D02*
X13370000Y-13610000D01*
X13370000Y-13570000D02*
X13330000Y-13610000D01*
X13450000Y-13190000D02*
X13490000Y-13230000D01*
X13490000Y-13190000D02*
X13450000Y-13230000D01*
X13450000Y-13570000D02*
X13490000Y-13610000D01*
X13490000Y-13570000D02*
X13450000Y-13610000D01*
X13465000Y-11630000D02*
X13505000Y-11670000D01*
X13505000Y-11630000D02*
X13465000Y-11670000D01*
X13465000Y-11880000D02*
X13505000Y-11920000D01*
X13505000Y-11880000D02*
X13465000Y-11920000D01*
X13465000Y-12125000D02*
X13505000Y-12165000D01*
X13505000Y-12125000D02*
X13465000Y-12165000D01*
X13560000Y-12560000D02*
X13600000Y-12600000D01*
X13600000Y-12560000D02*
X13560000Y-12600000D01*
X13570000Y-13190000D02*
X13610000Y-13230000D01*
X13610000Y-13190000D02*
X13570000Y-13230000D01*
X13570000Y-13570000D02*
X13610000Y-13610000D01*
X13610000Y-13570000D02*
X13570000Y-13610000D01*
X13580000Y-14500000D02*
X13620000Y-14540000D01*
X13620000Y-14500000D02*
X13580000Y-14540000D01*
X13630000Y-10060000D02*
X13670000Y-10100000D01*
X13670000Y-10060000D02*
X13630000Y-10100000D01*
X13690000Y-13190000D02*
X13730000Y-13230000D01*
X13730000Y-13190000D02*
X13690000Y-13230000D01*
X13690000Y-13570000D02*
X13730000Y-13610000D01*
X13730000Y-13570000D02*
X13690000Y-13610000D01*
X13810000Y-13190000D02*
X13850000Y-13230000D01*
X13850000Y-13190000D02*
X13810000Y-13230000D01*
X13810000Y-13570000D02*
X13850000Y-13610000D01*
X13850000Y-13570000D02*
X13810000Y-13610000D01*
X13880000Y-14500000D02*
X13920000Y-14540000D01*
X13920000Y-14500000D02*
X13880000Y-14540000D01*
X13920000Y-12560000D02*
X13960000Y-12600000D01*
X13960000Y-12560000D02*
X13920000Y-12600000D01*
X13930000Y-13190000D02*
X13970000Y-13230000D01*
X13970000Y-13190000D02*
X13930000Y-13230000D01*
X13930000Y-13570000D02*
X13970000Y-13610000D01*
X13970000Y-13570000D02*
X13930000Y-13610000D01*
X13980000Y-10060000D02*
X14020000Y-10100000D01*
X14020000Y-10060000D02*
X13980000Y-10100000D01*
X14050000Y-13190000D02*
X14090000Y-13230000D01*
X14090000Y-13190000D02*
X14050000Y-13230000D01*
X14050000Y-13570000D02*
X14090000Y-13610000D01*
X14090000Y-13570000D02*
X14050000Y-13610000D01*
X14170000Y-13190000D02*
X14210000Y-13230000D01*
X14210000Y-13190000D02*
X14170000Y-13230000D01*
X14170000Y-13570000D02*
X14210000Y-13610000D01*
X14210000Y-13570000D02*
X14170000Y-13610000D01*
X14230000Y-14500000D02*
X14270000Y-14540000D01*
X14270000Y-14500000D02*
X14230000Y-14540000D01*
X14280000Y-10060000D02*
X14320000Y-10100000D01*
X14320000Y-10060000D02*
X14280000Y-10100000D01*
X14280000Y-12560000D02*
X14320000Y-12600000D01*
X14320000Y-12560000D02*
X14280000Y-12600000D01*
X14290000Y-13190000D02*
X14330000Y-13230000D01*
X14330000Y-13190000D02*
X14290000Y-13230000D01*
X14295000Y-12955000D02*
X14335000Y-12995000D01*
X14335000Y-12955000D02*
X14295000Y-12995000D01*
X14295000Y-13805000D02*
X14335000Y-13845000D01*
X14335000Y-13805000D02*
X14295000Y-13845000D01*
X14300000Y-13570000D02*
X14340000Y-13610000D01*
X14340000Y-13570000D02*
X14300000Y-13610000D01*
X14420000Y-13190000D02*
X14460000Y-13230000D01*
X14460000Y-13190000D02*
X14420000Y-13230000D01*
X14430000Y-13570000D02*
X14470000Y-13610000D01*
X14470000Y-13570000D02*
X14430000Y-13610000D01*
X14530000Y-14500000D02*
X14570000Y-14540000D01*
X14570000Y-14500000D02*
X14530000Y-14540000D01*
X14550000Y-13190000D02*
X14590000Y-13230000D01*
X14590000Y-13190000D02*
X14550000Y-13230000D01*
X14560000Y-13570000D02*
X14600000Y-13610000D01*
X14600000Y-13570000D02*
X14560000Y-13610000D01*
X14580000Y-10060000D02*
X14620000Y-10100000D01*
X14620000Y-10060000D02*
X14580000Y-10100000D01*
X14610000Y-12800000D02*
X14650000Y-12840000D01*
X14650000Y-12800000D02*
X14610000Y-12840000D01*
X14610000Y-13650000D02*
X14650000Y-13690000D01*
X14650000Y-13650000D02*
X14610000Y-13690000D01*
X14620000Y-13110000D02*
X14660000Y-13150000D01*
X14660000Y-13110000D02*
X14620000Y-13150000D01*
X14620000Y-13960000D02*
X14660000Y-14000000D01*
X14660000Y-13960000D02*
X14620000Y-14000000D01*
X14640000Y-12560000D02*
X14680000Y-12600000D01*
X14680000Y-12560000D02*
X14640000Y-12600000D01*
X14680000Y-13190000D02*
X14720000Y-13230000D01*
X14720000Y-13190000D02*
X14680000Y-13230000D01*
X14680000Y-13570000D02*
X14720000Y-13610000D01*
X14720000Y-13570000D02*
X14680000Y-13610000D01*
X14810000Y-13190000D02*
X14850000Y-13230000D01*
X14850000Y-13190000D02*
X14810000Y-13230000D01*
X14810000Y-13570000D02*
X14850000Y-13610000D01*
X14850000Y-13570000D02*
X14810000Y-13610000D01*
X15000000Y-10480000D02*
X15040000Y-10520000D01*
X15040000Y-10480000D02*
X15000000Y-10520000D01*
X15000000Y-10680000D02*
X15040000Y-10720000D01*
X15040000Y-10680000D02*
X15000000Y-10720000D01*
X15000000Y-12560000D02*
X15040000Y-12600000D01*
X15040000Y-12560000D02*
X15000000Y-12600000D01*
X15000000Y-12700000D02*
X15040000Y-12740000D01*
X15040000Y-12700000D02*
X15000000Y-12740000D01*
X15000000Y-14070000D02*
X15040000Y-14110000D01*
X15040000Y-14070000D02*
X15000000Y-14110000D01*
X15000000Y-14500000D02*
X15040000Y-14540000D01*
X15040000Y-14500000D02*
X15000000Y-14540000D01*
D13*
X10225000Y-10768000D02*
G75*
G03*
X10225000Y-10768000I-30000J0D01*
G01*
D11*
X10225000Y-10738000D02*
X10165000Y-10738000D01*
X10165000Y-10738000D02*
G75*
G03*
X10165000Y-10798000I0J-30000D01*
G01*
X10165000Y-10798000D02*
X10225000Y-10798000D01*
X10225000Y-10798000D02*
G75*
G03*
X10225000Y-10738000I0J30000D01*
G01*
D13*
X10225000Y-11632000D02*
G75*
G03*
X10225000Y-11632000I-30000J0D01*
G01*
D11*
X10225000Y-11602000D02*
X10165000Y-11602000D01*
X10165000Y-11602000D02*
G75*
G03*
X10165000Y-11662000I0J-30000D01*
G01*
X10165000Y-11662000D02*
X10225000Y-11662000D01*
X10225000Y-11662000D02*
G75*
G03*
X10225000Y-11602000I0J30000D01*
G01*
D13*
X10643000Y-10768000D02*
G75*
G03*
X10643000Y-10768000I-30000J0D01*
G01*
D11*
X10668000Y-10738000D02*
X10558000Y-10738000D01*
X10558000Y-10738000D02*
G75*
G03*
X10558000Y-10798000I0J-30000D01*
G01*
X10558000Y-10798000D02*
X10668000Y-10798000D01*
X10668000Y-10798000D02*
G75*
G03*
X10668000Y-10738000I0J30000D01*
G01*
D13*
X10643000Y-11632000D02*
G75*
G03*
X10643000Y-11632000I-30000J0D01*
G01*
D11*
X10668000Y-11602000D02*
X10558000Y-11602000D01*
X10558000Y-11602000D02*
G75*
G03*
X10558000Y-11662000I0J-30000D01*
G01*
X10558000Y-11662000D02*
X10668000Y-11662000D01*
X10668000Y-11662000D02*
G75*
G03*
X10668000Y-11602000I0J30000D01*
G01*
D14*
X10620000Y-10250000D02*
X10620000Y-10320000D01*
X10585000Y-10285000D02*
X10655000Y-10285000D01*
X11320000Y-11605000D02*
X11320000Y-11675000D01*
X11285000Y-11640000D02*
X11355000Y-11640000D01*
X11675000Y-11605000D02*
X11675000Y-11675000D01*
X11640000Y-11640000D02*
X11710000Y-11640000D01*
X13000000Y-10252500D02*
X13000000Y-10322500D01*
X12965000Y-10287500D02*
X13035000Y-10287500D01*
D15*
X10391925Y-10391925D02*
X10391925Y-10208075D01*
X10208075Y-10208075D01*
X10208075Y-10391925D01*
X10391925Y-10391925D01*
X10391925Y-14391925D02*
X10391925Y-14208075D01*
X10208075Y-14208075D01*
X10208075Y-14391925D01*
X10391925Y-14391925D01*
X12591925Y-10391925D02*
X12591925Y-10208075D01*
X12408075Y-10208075D01*
X12408075Y-10391925D01*
X12591925Y-10391925D01*
X12591925Y-14391925D02*
X12591925Y-14208075D01*
X12408075Y-14208075D01*
X12408075Y-14391925D01*
X12591925Y-14391925D01*
X14891925Y-10391925D02*
X14891925Y-10208075D01*
X14708075Y-10208075D01*
X14708075Y-10391925D01*
X14891925Y-10391925D01*
X14891925Y-14391925D02*
X14891925Y-14208075D01*
X14708075Y-14208075D01*
X14708075Y-14391925D01*
X14891925Y-14391925D01*
D11*
X10260277Y-14911984D02*
X10260277Y-14711984D01*
X10260277Y-14711984D02*
X10307896Y-14711984D01*
X10307896Y-14711984D02*
X10336467Y-14721508D01*
X10336467Y-14721508D02*
X10355515Y-14740555D01*
X10355515Y-14740555D02*
X10365039Y-14759603D01*
X10365039Y-14759603D02*
X10374563Y-14797698D01*
X10374563Y-14797698D02*
X10374563Y-14826269D01*
X10374563Y-14826269D02*
X10365039Y-14864365D01*
X10365039Y-14864365D02*
X10355515Y-14883412D01*
X10355515Y-14883412D02*
X10336467Y-14902460D01*
X10336467Y-14902460D02*
X10307896Y-14911984D01*
X10307896Y-14911984D02*
X10260277Y-14911984D01*
X10460277Y-14911984D02*
X10460277Y-14778650D01*
X10460277Y-14816746D02*
X10469801Y-14797698D01*
X10469801Y-14797698D02*
X10479324Y-14788174D01*
X10479324Y-14788174D02*
X10498372Y-14778650D01*
X10498372Y-14778650D02*
X10517420Y-14778650D01*
X10584086Y-14911984D02*
X10584086Y-14778650D01*
X10584086Y-14711984D02*
X10574563Y-14721508D01*
X10574563Y-14721508D02*
X10584086Y-14731031D01*
X10584086Y-14731031D02*
X10593610Y-14721508D01*
X10593610Y-14721508D02*
X10584086Y-14711984D01*
X10584086Y-14711984D02*
X10584086Y-14731031D01*
X10707896Y-14911984D02*
X10688848Y-14902460D01*
X10688848Y-14902460D02*
X10679324Y-14883412D01*
X10679324Y-14883412D02*
X10679324Y-14711984D01*
X10812658Y-14911984D02*
X10793610Y-14902460D01*
X10793610Y-14902460D02*
X10784086Y-14883412D01*
X10784086Y-14883412D02*
X10784086Y-14711984D01*
X11041229Y-14911984D02*
X11041229Y-14711984D01*
X11041229Y-14711984D02*
X11107896Y-14854841D01*
X11107896Y-14854841D02*
X11174563Y-14711984D01*
X11174563Y-14711984D02*
X11174563Y-14911984D01*
X11355515Y-14911984D02*
X11355515Y-14807222D01*
X11355515Y-14807222D02*
X11345991Y-14788174D01*
X11345991Y-14788174D02*
X11326943Y-14778650D01*
X11326943Y-14778650D02*
X11288848Y-14778650D01*
X11288848Y-14778650D02*
X11269801Y-14788174D01*
X11355515Y-14902460D02*
X11336467Y-14911984D01*
X11336467Y-14911984D02*
X11288848Y-14911984D01*
X11288848Y-14911984D02*
X11269801Y-14902460D01*
X11269801Y-14902460D02*
X11260277Y-14883412D01*
X11260277Y-14883412D02*
X11260277Y-14864365D01*
X11260277Y-14864365D02*
X11269801Y-14845317D01*
X11269801Y-14845317D02*
X11288848Y-14835793D01*
X11288848Y-14835793D02*
X11336467Y-14835793D01*
X11336467Y-14835793D02*
X11355515Y-14826269D01*
X11450753Y-14778650D02*
X11450753Y-14978650D01*
X11450753Y-14788174D02*
X11469801Y-14778650D01*
X11469801Y-14778650D02*
X11507896Y-14778650D01*
X11507896Y-14778650D02*
X11526943Y-14788174D01*
X11526943Y-14788174D02*
X11536467Y-14797698D01*
X11536467Y-14797698D02*
X11545991Y-14816746D01*
X11545991Y-14816746D02*
X11545991Y-14873888D01*
X11545991Y-14873888D02*
X11536467Y-14892936D01*
X11536467Y-14892936D02*
X11526943Y-14902460D01*
X11526943Y-14902460D02*
X11507896Y-14911984D01*
X11507896Y-14911984D02*
X11469801Y-14911984D01*
X11469801Y-14911984D02*
X11450753Y-14902460D01*
X11631705Y-14892936D02*
X11641229Y-14902460D01*
X11641229Y-14902460D02*
X11631705Y-14911984D01*
X11631705Y-14911984D02*
X11622182Y-14902460D01*
X11622182Y-14902460D02*
X11631705Y-14892936D01*
X11631705Y-14892936D02*
X11631705Y-14911984D01*
X11631705Y-14788174D02*
X11641229Y-14797698D01*
X11641229Y-14797698D02*
X11631705Y-14807222D01*
X11631705Y-14807222D02*
X11622182Y-14797698D01*
X11622182Y-14797698D02*
X11631705Y-14788174D01*
X11631705Y-14788174D02*
X11631705Y-14807222D01*
D12*
X9959500Y-15220500D02*
X9999500Y-15260500D01*
X9999500Y-15220500D02*
X9959500Y-15260500D01*
D11*
X10298372Y-15131984D02*
X10317420Y-15131984D01*
X10317420Y-15131984D02*
X10336467Y-15141508D01*
X10336467Y-15141508D02*
X10345991Y-15151031D01*
X10345991Y-15151031D02*
X10355515Y-15170079D01*
X10355515Y-15170079D02*
X10365039Y-15208174D01*
X10365039Y-15208174D02*
X10365039Y-15255793D01*
X10365039Y-15255793D02*
X10355515Y-15293888D01*
X10355515Y-15293888D02*
X10345991Y-15312936D01*
X10345991Y-15312936D02*
X10336467Y-15322460D01*
X10336467Y-15322460D02*
X10317420Y-15331984D01*
X10317420Y-15331984D02*
X10298372Y-15331984D01*
X10298372Y-15331984D02*
X10279324Y-15322460D01*
X10279324Y-15322460D02*
X10269801Y-15312936D01*
X10269801Y-15312936D02*
X10260277Y-15293888D01*
X10260277Y-15293888D02*
X10250753Y-15255793D01*
X10250753Y-15255793D02*
X10250753Y-15208174D01*
X10250753Y-15208174D02*
X10260277Y-15170079D01*
X10260277Y-15170079D02*
X10269801Y-15151031D01*
X10269801Y-15151031D02*
X10279324Y-15141508D01*
X10279324Y-15141508D02*
X10298372Y-15131984D01*
X10450753Y-15312936D02*
X10460277Y-15322460D01*
X10460277Y-15322460D02*
X10450753Y-15331984D01*
X10450753Y-15331984D02*
X10441229Y-15322460D01*
X10441229Y-15322460D02*
X10450753Y-15312936D01*
X10450753Y-15312936D02*
X10450753Y-15331984D01*
X10631705Y-15198650D02*
X10631705Y-15331984D01*
X10584086Y-15122460D02*
X10536467Y-15265317D01*
X10536467Y-15265317D02*
X10660277Y-15265317D01*
X10774563Y-15131984D02*
X10793610Y-15131984D01*
X10793610Y-15131984D02*
X10812658Y-15141508D01*
X10812658Y-15141508D02*
X10822182Y-15151031D01*
X10822182Y-15151031D02*
X10831705Y-15170079D01*
X10831705Y-15170079D02*
X10841229Y-15208174D01*
X10841229Y-15208174D02*
X10841229Y-15255793D01*
X10841229Y-15255793D02*
X10831705Y-15293888D01*
X10831705Y-15293888D02*
X10822182Y-15312936D01*
X10822182Y-15312936D02*
X10812658Y-15322460D01*
X10812658Y-15322460D02*
X10793610Y-15331984D01*
X10793610Y-15331984D02*
X10774563Y-15331984D01*
X10774563Y-15331984D02*
X10755515Y-15322460D01*
X10755515Y-15322460D02*
X10745991Y-15312936D01*
X10745991Y-15312936D02*
X10736467Y-15293888D01*
X10736467Y-15293888D02*
X10726944Y-15255793D01*
X10726944Y-15255793D02*
X10726944Y-15208174D01*
X10726944Y-15208174D02*
X10736467Y-15170079D01*
X10736467Y-15170079D02*
X10745991Y-15151031D01*
X10745991Y-15151031D02*
X10755515Y-15141508D01*
X10755515Y-15141508D02*
X10774563Y-15131984D01*
X10965039Y-15131984D02*
X10984086Y-15131984D01*
X10984086Y-15131984D02*
X11003134Y-15141508D01*
X11003134Y-15141508D02*
X11012658Y-15151031D01*
X11012658Y-15151031D02*
X11022182Y-15170079D01*
X11022182Y-15170079D02*
X11031705Y-15208174D01*
X11031705Y-15208174D02*
X11031705Y-15255793D01*
X11031705Y-15255793D02*
X11022182Y-15293888D01*
X11022182Y-15293888D02*
X11012658Y-15312936D01*
X11012658Y-15312936D02*
X11003134Y-15322460D01*
X11003134Y-15322460D02*
X10984086Y-15331984D01*
X10984086Y-15331984D02*
X10965039Y-15331984D01*
X10965039Y-15331984D02*
X10945991Y-15322460D01*
X10945991Y-15322460D02*
X10936467Y-15312936D01*
X10936467Y-15312936D02*
X10926944Y-15293888D01*
X10926944Y-15293888D02*
X10917420Y-15255793D01*
X10917420Y-15255793D02*
X10917420Y-15208174D01*
X10917420Y-15208174D02*
X10926944Y-15170079D01*
X10926944Y-15170079D02*
X10936467Y-15151031D01*
X10936467Y-15151031D02*
X10945991Y-15141508D01*
X10945991Y-15141508D02*
X10965039Y-15131984D01*
X11117420Y-15331984D02*
X11117420Y-15198650D01*
X11117420Y-15217698D02*
X11126944Y-15208174D01*
X11126944Y-15208174D02*
X11145991Y-15198650D01*
X11145991Y-15198650D02*
X11174563Y-15198650D01*
X11174563Y-15198650D02*
X11193610Y-15208174D01*
X11193610Y-15208174D02*
X11203134Y-15227222D01*
X11203134Y-15227222D02*
X11203134Y-15331984D01*
X11203134Y-15227222D02*
X11212658Y-15208174D01*
X11212658Y-15208174D02*
X11231705Y-15198650D01*
X11231705Y-15198650D02*
X11260277Y-15198650D01*
X11260277Y-15198650D02*
X11279324Y-15208174D01*
X11279324Y-15208174D02*
X11288848Y-15227222D01*
X11288848Y-15227222D02*
X11288848Y-15331984D01*
X11384086Y-15331984D02*
X11384086Y-15198650D01*
X11384086Y-15217698D02*
X11393610Y-15208174D01*
X11393610Y-15208174D02*
X11412658Y-15198650D01*
X11412658Y-15198650D02*
X11441229Y-15198650D01*
X11441229Y-15198650D02*
X11460277Y-15208174D01*
X11460277Y-15208174D02*
X11469801Y-15227222D01*
X11469801Y-15227222D02*
X11469801Y-15331984D01*
X11469801Y-15227222D02*
X11479324Y-15208174D01*
X11479324Y-15208174D02*
X11498372Y-15198650D01*
X11498372Y-15198650D02*
X11526943Y-15198650D01*
X11526943Y-15198650D02*
X11545991Y-15208174D01*
X11545991Y-15208174D02*
X11555515Y-15227222D01*
X11555515Y-15227222D02*
X11555515Y-15331984D01*
X11945991Y-15122460D02*
X11774563Y-15379603D01*
X12203134Y-15131984D02*
X12222182Y-15131984D01*
X12222182Y-15131984D02*
X12241229Y-15141508D01*
X12241229Y-15141508D02*
X12250753Y-15151031D01*
X12250753Y-15151031D02*
X12260277Y-15170079D01*
X12260277Y-15170079D02*
X12269801Y-15208174D01*
X12269801Y-15208174D02*
X12269801Y-15255793D01*
X12269801Y-15255793D02*
X12260277Y-15293888D01*
X12260277Y-15293888D02*
X12250753Y-15312936D01*
X12250753Y-15312936D02*
X12241229Y-15322460D01*
X12241229Y-15322460D02*
X12222182Y-15331984D01*
X12222182Y-15331984D02*
X12203134Y-15331984D01*
X12203134Y-15331984D02*
X12184086Y-15322460D01*
X12184086Y-15322460D02*
X12174563Y-15312936D01*
X12174563Y-15312936D02*
X12165039Y-15293888D01*
X12165039Y-15293888D02*
X12155515Y-15255793D01*
X12155515Y-15255793D02*
X12155515Y-15208174D01*
X12155515Y-15208174D02*
X12165039Y-15170079D01*
X12165039Y-15170079D02*
X12174563Y-15151031D01*
X12174563Y-15151031D02*
X12184086Y-15141508D01*
X12184086Y-15141508D02*
X12203134Y-15131984D01*
X12355515Y-15312936D02*
X12365039Y-15322460D01*
X12365039Y-15322460D02*
X12355515Y-15331984D01*
X12355515Y-15331984D02*
X12345991Y-15322460D01*
X12345991Y-15322460D02*
X12355515Y-15312936D01*
X12355515Y-15312936D02*
X12355515Y-15331984D01*
X12488848Y-15131984D02*
X12507896Y-15131984D01*
X12507896Y-15131984D02*
X12526944Y-15141508D01*
X12526944Y-15141508D02*
X12536467Y-15151031D01*
X12536467Y-15151031D02*
X12545991Y-15170079D01*
X12545991Y-15170079D02*
X12555515Y-15208174D01*
X12555515Y-15208174D02*
X12555515Y-15255793D01*
X12555515Y-15255793D02*
X12545991Y-15293888D01*
X12545991Y-15293888D02*
X12536467Y-15312936D01*
X12536467Y-15312936D02*
X12526944Y-15322460D01*
X12526944Y-15322460D02*
X12507896Y-15331984D01*
X12507896Y-15331984D02*
X12488848Y-15331984D01*
X12488848Y-15331984D02*
X12469801Y-15322460D01*
X12469801Y-15322460D02*
X12460277Y-15312936D01*
X12460277Y-15312936D02*
X12450753Y-15293888D01*
X12450753Y-15293888D02*
X12441229Y-15255793D01*
X12441229Y-15255793D02*
X12441229Y-15208174D01*
X12441229Y-15208174D02*
X12450753Y-15170079D01*
X12450753Y-15170079D02*
X12460277Y-15151031D01*
X12460277Y-15151031D02*
X12469801Y-15141508D01*
X12469801Y-15141508D02*
X12488848Y-15131984D01*
X12745991Y-15331984D02*
X12631706Y-15331984D01*
X12688848Y-15331984D02*
X12688848Y-15131984D01*
X12688848Y-15131984D02*
X12669801Y-15160555D01*
X12669801Y-15160555D02*
X12650753Y-15179603D01*
X12650753Y-15179603D02*
X12631706Y-15189127D01*
X12926944Y-15131984D02*
X12831706Y-15131984D01*
X12831706Y-15131984D02*
X12822182Y-15227222D01*
X12822182Y-15227222D02*
X12831706Y-15217698D01*
X12831706Y-15217698D02*
X12850753Y-15208174D01*
X12850753Y-15208174D02*
X12898372Y-15208174D01*
X12898372Y-15208174D02*
X12917420Y-15217698D01*
X12917420Y-15217698D02*
X12926944Y-15227222D01*
X12926944Y-15227222D02*
X12936467Y-15246269D01*
X12936467Y-15246269D02*
X12936467Y-15293888D01*
X12936467Y-15293888D02*
X12926944Y-15312936D01*
X12926944Y-15312936D02*
X12917420Y-15322460D01*
X12917420Y-15322460D02*
X12898372Y-15331984D01*
X12898372Y-15331984D02*
X12850753Y-15331984D01*
X12850753Y-15331984D02*
X12831706Y-15322460D01*
X12831706Y-15322460D02*
X12822182Y-15312936D01*
X13003134Y-15131984D02*
X13136467Y-15131984D01*
X13136467Y-15131984D02*
X13050753Y-15331984D01*
X13203134Y-15131984D02*
X13203134Y-15170079D01*
X13279325Y-15131984D02*
X13279325Y-15170079D01*
X13574563Y-15408174D02*
X13565039Y-15398650D01*
X13565039Y-15398650D02*
X13545991Y-15370079D01*
X13545991Y-15370079D02*
X13536468Y-15351031D01*
X13536468Y-15351031D02*
X13526944Y-15322460D01*
X13526944Y-15322460D02*
X13517420Y-15274841D01*
X13517420Y-15274841D02*
X13517420Y-15236746D01*
X13517420Y-15236746D02*
X13526944Y-15189127D01*
X13526944Y-15189127D02*
X13536468Y-15160555D01*
X13536468Y-15160555D02*
X13545991Y-15141508D01*
X13545991Y-15141508D02*
X13565039Y-15112936D01*
X13565039Y-15112936D02*
X13574563Y-15103412D01*
X13755515Y-15331984D02*
X13641229Y-15331984D01*
X13698372Y-15331984D02*
X13698372Y-15131984D01*
X13698372Y-15131984D02*
X13679325Y-15160555D01*
X13679325Y-15160555D02*
X13660277Y-15179603D01*
X13660277Y-15179603D02*
X13641229Y-15189127D01*
X13869801Y-15217698D02*
X13850753Y-15208174D01*
X13850753Y-15208174D02*
X13841229Y-15198650D01*
X13841229Y-15198650D02*
X13831706Y-15179603D01*
X13831706Y-15179603D02*
X13831706Y-15170079D01*
X13831706Y-15170079D02*
X13841229Y-15151031D01*
X13841229Y-15151031D02*
X13850753Y-15141508D01*
X13850753Y-15141508D02*
X13869801Y-15131984D01*
X13869801Y-15131984D02*
X13907896Y-15131984D01*
X13907896Y-15131984D02*
X13926944Y-15141508D01*
X13926944Y-15141508D02*
X13936468Y-15151031D01*
X13936468Y-15151031D02*
X13945991Y-15170079D01*
X13945991Y-15170079D02*
X13945991Y-15179603D01*
X13945991Y-15179603D02*
X13936468Y-15198650D01*
X13936468Y-15198650D02*
X13926944Y-15208174D01*
X13926944Y-15208174D02*
X13907896Y-15217698D01*
X13907896Y-15217698D02*
X13869801Y-15217698D01*
X13869801Y-15217698D02*
X13850753Y-15227222D01*
X13850753Y-15227222D02*
X13841229Y-15236746D01*
X13841229Y-15236746D02*
X13831706Y-15255793D01*
X13831706Y-15255793D02*
X13831706Y-15293888D01*
X13831706Y-15293888D02*
X13841229Y-15312936D01*
X13841229Y-15312936D02*
X13850753Y-15322460D01*
X13850753Y-15322460D02*
X13869801Y-15331984D01*
X13869801Y-15331984D02*
X13907896Y-15331984D01*
X13907896Y-15331984D02*
X13926944Y-15322460D01*
X13926944Y-15322460D02*
X13936468Y-15312936D01*
X13936468Y-15312936D02*
X13945991Y-15293888D01*
X13945991Y-15293888D02*
X13945991Y-15255793D01*
X13945991Y-15255793D02*
X13936468Y-15236746D01*
X13936468Y-15236746D02*
X13926944Y-15227222D01*
X13926944Y-15227222D02*
X13907896Y-15217698D01*
X14012658Y-15131984D02*
X14145991Y-15131984D01*
X14145991Y-15131984D02*
X14060277Y-15331984D01*
X14374563Y-15331984D02*
X14374563Y-15131984D01*
X14460277Y-15331984D02*
X14460277Y-15227222D01*
X14460277Y-15227222D02*
X14450753Y-15208174D01*
X14450753Y-15208174D02*
X14431706Y-15198650D01*
X14431706Y-15198650D02*
X14403134Y-15198650D01*
X14403134Y-15198650D02*
X14384087Y-15208174D01*
X14384087Y-15208174D02*
X14374563Y-15217698D01*
X14584087Y-15331984D02*
X14565039Y-15322460D01*
X14565039Y-15322460D02*
X14555515Y-15312936D01*
X14555515Y-15312936D02*
X14545991Y-15293888D01*
X14545991Y-15293888D02*
X14545991Y-15236746D01*
X14545991Y-15236746D02*
X14555515Y-15217698D01*
X14555515Y-15217698D02*
X14565039Y-15208174D01*
X14565039Y-15208174D02*
X14584087Y-15198650D01*
X14584087Y-15198650D02*
X14612658Y-15198650D01*
X14612658Y-15198650D02*
X14631706Y-15208174D01*
X14631706Y-15208174D02*
X14641230Y-15217698D01*
X14641230Y-15217698D02*
X14650753Y-15236746D01*
X14650753Y-15236746D02*
X14650753Y-15293888D01*
X14650753Y-15293888D02*
X14641230Y-15312936D01*
X14641230Y-15312936D02*
X14631706Y-15322460D01*
X14631706Y-15322460D02*
X14612658Y-15331984D01*
X14612658Y-15331984D02*
X14584087Y-15331984D01*
X14765039Y-15331984D02*
X14745991Y-15322460D01*
X14745991Y-15322460D02*
X14736468Y-15303412D01*
X14736468Y-15303412D02*
X14736468Y-15131984D01*
X14917420Y-15322460D02*
X14898372Y-15331984D01*
X14898372Y-15331984D02*
X14860277Y-15331984D01*
X14860277Y-15331984D02*
X14841230Y-15322460D01*
X14841230Y-15322460D02*
X14831706Y-15303412D01*
X14831706Y-15303412D02*
X14831706Y-15227222D01*
X14831706Y-15227222D02*
X14841230Y-15208174D01*
X14841230Y-15208174D02*
X14860277Y-15198650D01*
X14860277Y-15198650D02*
X14898372Y-15198650D01*
X14898372Y-15198650D02*
X14917420Y-15208174D01*
X14917420Y-15208174D02*
X14926944Y-15227222D01*
X14926944Y-15227222D02*
X14926944Y-15246269D01*
X14926944Y-15246269D02*
X14831706Y-15265317D01*
X15003134Y-15322460D02*
X15022182Y-15331984D01*
X15022182Y-15331984D02*
X15060277Y-15331984D01*
X15060277Y-15331984D02*
X15079325Y-15322460D01*
X15079325Y-15322460D02*
X15088849Y-15303412D01*
X15088849Y-15303412D02*
X15088849Y-15293888D01*
X15088849Y-15293888D02*
X15079325Y-15274841D01*
X15079325Y-15274841D02*
X15060277Y-15265317D01*
X15060277Y-15265317D02*
X15031706Y-15265317D01*
X15031706Y-15265317D02*
X15012658Y-15255793D01*
X15012658Y-15255793D02*
X15003134Y-15236746D01*
X15003134Y-15236746D02*
X15003134Y-15227222D01*
X15003134Y-15227222D02*
X15012658Y-15208174D01*
X15012658Y-15208174D02*
X15031706Y-15198650D01*
X15031706Y-15198650D02*
X15060277Y-15198650D01*
X15060277Y-15198650D02*
X15079325Y-15208174D01*
X15155515Y-15408174D02*
X15165039Y-15398650D01*
X15165039Y-15398650D02*
X15184087Y-15370079D01*
X15184087Y-15370079D02*
X15193611Y-15351031D01*
X15193611Y-15351031D02*
X15203134Y-15322460D01*
X15203134Y-15322460D02*
X15212658Y-15274841D01*
X15212658Y-15274841D02*
X15212658Y-15236746D01*
X15212658Y-15236746D02*
X15203134Y-15189127D01*
X15203134Y-15189127D02*
X15193611Y-15160555D01*
X15193611Y-15160555D02*
X15184087Y-15141508D01*
X15184087Y-15141508D02*
X15165039Y-15112936D01*
X15165039Y-15112936D02*
X15155515Y-15103412D01*
D13*
X9999500Y-15504500D02*
G75*
G03*
X9999500Y-15504500I-30000J0D01*
G01*
D11*
X10298372Y-15395984D02*
X10317420Y-15395984D01*
X10317420Y-15395984D02*
X10336467Y-15405508D01*
X10336467Y-15405508D02*
X10345991Y-15415031D01*
X10345991Y-15415031D02*
X10355515Y-15434079D01*
X10355515Y-15434079D02*
X10365039Y-15472174D01*
X10365039Y-15472174D02*
X10365039Y-15519793D01*
X10365039Y-15519793D02*
X10355515Y-15557888D01*
X10355515Y-15557888D02*
X10345991Y-15576936D01*
X10345991Y-15576936D02*
X10336467Y-15586460D01*
X10336467Y-15586460D02*
X10317420Y-15595984D01*
X10317420Y-15595984D02*
X10298372Y-15595984D01*
X10298372Y-15595984D02*
X10279324Y-15586460D01*
X10279324Y-15586460D02*
X10269801Y-15576936D01*
X10269801Y-15576936D02*
X10260277Y-15557888D01*
X10260277Y-15557888D02*
X10250753Y-15519793D01*
X10250753Y-15519793D02*
X10250753Y-15472174D01*
X10250753Y-15472174D02*
X10260277Y-15434079D01*
X10260277Y-15434079D02*
X10269801Y-15415031D01*
X10269801Y-15415031D02*
X10279324Y-15405508D01*
X10279324Y-15405508D02*
X10298372Y-15395984D01*
X10450753Y-15576936D02*
X10460277Y-15586460D01*
X10460277Y-15586460D02*
X10450753Y-15595984D01*
X10450753Y-15595984D02*
X10441229Y-15586460D01*
X10441229Y-15586460D02*
X10450753Y-15576936D01*
X10450753Y-15576936D02*
X10450753Y-15595984D01*
X10631705Y-15395984D02*
X10593610Y-15395984D01*
X10593610Y-15395984D02*
X10574563Y-15405508D01*
X10574563Y-15405508D02*
X10565039Y-15415031D01*
X10565039Y-15415031D02*
X10545991Y-15443603D01*
X10545991Y-15443603D02*
X10536467Y-15481698D01*
X10536467Y-15481698D02*
X10536467Y-15557888D01*
X10536467Y-15557888D02*
X10545991Y-15576936D01*
X10545991Y-15576936D02*
X10555515Y-15586460D01*
X10555515Y-15586460D02*
X10574563Y-15595984D01*
X10574563Y-15595984D02*
X10612658Y-15595984D01*
X10612658Y-15595984D02*
X10631705Y-15586460D01*
X10631705Y-15586460D02*
X10641229Y-15576936D01*
X10641229Y-15576936D02*
X10650753Y-15557888D01*
X10650753Y-15557888D02*
X10650753Y-15510269D01*
X10650753Y-15510269D02*
X10641229Y-15491222D01*
X10641229Y-15491222D02*
X10631705Y-15481698D01*
X10631705Y-15481698D02*
X10612658Y-15472174D01*
X10612658Y-15472174D02*
X10574563Y-15472174D01*
X10574563Y-15472174D02*
X10555515Y-15481698D01*
X10555515Y-15481698D02*
X10545991Y-15491222D01*
X10545991Y-15491222D02*
X10536467Y-15510269D01*
X10774563Y-15395984D02*
X10793610Y-15395984D01*
X10793610Y-15395984D02*
X10812658Y-15405508D01*
X10812658Y-15405508D02*
X10822182Y-15415031D01*
X10822182Y-15415031D02*
X10831705Y-15434079D01*
X10831705Y-15434079D02*
X10841229Y-15472174D01*
X10841229Y-15472174D02*
X10841229Y-15519793D01*
X10841229Y-15519793D02*
X10831705Y-15557888D01*
X10831705Y-15557888D02*
X10822182Y-15576936D01*
X10822182Y-15576936D02*
X10812658Y-15586460D01*
X10812658Y-15586460D02*
X10793610Y-15595984D01*
X10793610Y-15595984D02*
X10774563Y-15595984D01*
X10774563Y-15595984D02*
X10755515Y-15586460D01*
X10755515Y-15586460D02*
X10745991Y-15576936D01*
X10745991Y-15576936D02*
X10736467Y-15557888D01*
X10736467Y-15557888D02*
X10726944Y-15519793D01*
X10726944Y-15519793D02*
X10726944Y-15472174D01*
X10726944Y-15472174D02*
X10736467Y-15434079D01*
X10736467Y-15434079D02*
X10745991Y-15415031D01*
X10745991Y-15415031D02*
X10755515Y-15405508D01*
X10755515Y-15405508D02*
X10774563Y-15395984D01*
X10965039Y-15395984D02*
X10984086Y-15395984D01*
X10984086Y-15395984D02*
X11003134Y-15405508D01*
X11003134Y-15405508D02*
X11012658Y-15415031D01*
X11012658Y-15415031D02*
X11022182Y-15434079D01*
X11022182Y-15434079D02*
X11031705Y-15472174D01*
X11031705Y-15472174D02*
X11031705Y-15519793D01*
X11031705Y-15519793D02*
X11022182Y-15557888D01*
X11022182Y-15557888D02*
X11012658Y-15576936D01*
X11012658Y-15576936D02*
X11003134Y-15586460D01*
X11003134Y-15586460D02*
X10984086Y-15595984D01*
X10984086Y-15595984D02*
X10965039Y-15595984D01*
X10965039Y-15595984D02*
X10945991Y-15586460D01*
X10945991Y-15586460D02*
X10936467Y-15576936D01*
X10936467Y-15576936D02*
X10926944Y-15557888D01*
X10926944Y-15557888D02*
X10917420Y-15519793D01*
X10917420Y-15519793D02*
X10917420Y-15472174D01*
X10917420Y-15472174D02*
X10926944Y-15434079D01*
X10926944Y-15434079D02*
X10936467Y-15415031D01*
X10936467Y-15415031D02*
X10945991Y-15405508D01*
X10945991Y-15405508D02*
X10965039Y-15395984D01*
X11117420Y-15595984D02*
X11117420Y-15462650D01*
X11117420Y-15481698D02*
X11126944Y-15472174D01*
X11126944Y-15472174D02*
X11145991Y-15462650D01*
X11145991Y-15462650D02*
X11174563Y-15462650D01*
X11174563Y-15462650D02*
X11193610Y-15472174D01*
X11193610Y-15472174D02*
X11203134Y-15491222D01*
X11203134Y-15491222D02*
X11203134Y-15595984D01*
X11203134Y-15491222D02*
X11212658Y-15472174D01*
X11212658Y-15472174D02*
X11231705Y-15462650D01*
X11231705Y-15462650D02*
X11260277Y-15462650D01*
X11260277Y-15462650D02*
X11279324Y-15472174D01*
X11279324Y-15472174D02*
X11288848Y-15491222D01*
X11288848Y-15491222D02*
X11288848Y-15595984D01*
X11384086Y-15595984D02*
X11384086Y-15462650D01*
X11384086Y-15481698D02*
X11393610Y-15472174D01*
X11393610Y-15472174D02*
X11412658Y-15462650D01*
X11412658Y-15462650D02*
X11441229Y-15462650D01*
X11441229Y-15462650D02*
X11460277Y-15472174D01*
X11460277Y-15472174D02*
X11469801Y-15491222D01*
X11469801Y-15491222D02*
X11469801Y-15595984D01*
X11469801Y-15491222D02*
X11479324Y-15472174D01*
X11479324Y-15472174D02*
X11498372Y-15462650D01*
X11498372Y-15462650D02*
X11526943Y-15462650D01*
X11526943Y-15462650D02*
X11545991Y-15472174D01*
X11545991Y-15472174D02*
X11555515Y-15491222D01*
X11555515Y-15491222D02*
X11555515Y-15595984D01*
X11945991Y-15386460D02*
X11774563Y-15643603D01*
X12203134Y-15395984D02*
X12222182Y-15395984D01*
X12222182Y-15395984D02*
X12241229Y-15405508D01*
X12241229Y-15405508D02*
X12250753Y-15415031D01*
X12250753Y-15415031D02*
X12260277Y-15434079D01*
X12260277Y-15434079D02*
X12269801Y-15472174D01*
X12269801Y-15472174D02*
X12269801Y-15519793D01*
X12269801Y-15519793D02*
X12260277Y-15557888D01*
X12260277Y-15557888D02*
X12250753Y-15576936D01*
X12250753Y-15576936D02*
X12241229Y-15586460D01*
X12241229Y-15586460D02*
X12222182Y-15595984D01*
X12222182Y-15595984D02*
X12203134Y-15595984D01*
X12203134Y-15595984D02*
X12184086Y-15586460D01*
X12184086Y-15586460D02*
X12174563Y-15576936D01*
X12174563Y-15576936D02*
X12165039Y-15557888D01*
X12165039Y-15557888D02*
X12155515Y-15519793D01*
X12155515Y-15519793D02*
X12155515Y-15472174D01*
X12155515Y-15472174D02*
X12165039Y-15434079D01*
X12165039Y-15434079D02*
X12174563Y-15415031D01*
X12174563Y-15415031D02*
X12184086Y-15405508D01*
X12184086Y-15405508D02*
X12203134Y-15395984D01*
X12355515Y-15576936D02*
X12365039Y-15586460D01*
X12365039Y-15586460D02*
X12355515Y-15595984D01*
X12355515Y-15595984D02*
X12345991Y-15586460D01*
X12345991Y-15586460D02*
X12355515Y-15576936D01*
X12355515Y-15576936D02*
X12355515Y-15595984D01*
X12488848Y-15395984D02*
X12507896Y-15395984D01*
X12507896Y-15395984D02*
X12526944Y-15405508D01*
X12526944Y-15405508D02*
X12536467Y-15415031D01*
X12536467Y-15415031D02*
X12545991Y-15434079D01*
X12545991Y-15434079D02*
X12555515Y-15472174D01*
X12555515Y-15472174D02*
X12555515Y-15519793D01*
X12555515Y-15519793D02*
X12545991Y-15557888D01*
X12545991Y-15557888D02*
X12536467Y-15576936D01*
X12536467Y-15576936D02*
X12526944Y-15586460D01*
X12526944Y-15586460D02*
X12507896Y-15595984D01*
X12507896Y-15595984D02*
X12488848Y-15595984D01*
X12488848Y-15595984D02*
X12469801Y-15586460D01*
X12469801Y-15586460D02*
X12460277Y-15576936D01*
X12460277Y-15576936D02*
X12450753Y-15557888D01*
X12450753Y-15557888D02*
X12441229Y-15519793D01*
X12441229Y-15519793D02*
X12441229Y-15472174D01*
X12441229Y-15472174D02*
X12450753Y-15434079D01*
X12450753Y-15434079D02*
X12460277Y-15415031D01*
X12460277Y-15415031D02*
X12469801Y-15405508D01*
X12469801Y-15405508D02*
X12488848Y-15395984D01*
X12631706Y-15415031D02*
X12641229Y-15405508D01*
X12641229Y-15405508D02*
X12660277Y-15395984D01*
X12660277Y-15395984D02*
X12707896Y-15395984D01*
X12707896Y-15395984D02*
X12726944Y-15405508D01*
X12726944Y-15405508D02*
X12736467Y-15415031D01*
X12736467Y-15415031D02*
X12745991Y-15434079D01*
X12745991Y-15434079D02*
X12745991Y-15453127D01*
X12745991Y-15453127D02*
X12736467Y-15481698D01*
X12736467Y-15481698D02*
X12622182Y-15595984D01*
X12622182Y-15595984D02*
X12745991Y-15595984D01*
X12812658Y-15395984D02*
X12936467Y-15395984D01*
X12936467Y-15395984D02*
X12869801Y-15472174D01*
X12869801Y-15472174D02*
X12898372Y-15472174D01*
X12898372Y-15472174D02*
X12917420Y-15481698D01*
X12917420Y-15481698D02*
X12926944Y-15491222D01*
X12926944Y-15491222D02*
X12936467Y-15510269D01*
X12936467Y-15510269D02*
X12936467Y-15557888D01*
X12936467Y-15557888D02*
X12926944Y-15576936D01*
X12926944Y-15576936D02*
X12917420Y-15586460D01*
X12917420Y-15586460D02*
X12898372Y-15595984D01*
X12898372Y-15595984D02*
X12841229Y-15595984D01*
X12841229Y-15595984D02*
X12822182Y-15586460D01*
X12822182Y-15586460D02*
X12812658Y-15576936D01*
X13107896Y-15395984D02*
X13069801Y-15395984D01*
X13069801Y-15395984D02*
X13050753Y-15405508D01*
X13050753Y-15405508D02*
X13041229Y-15415031D01*
X13041229Y-15415031D02*
X13022182Y-15443603D01*
X13022182Y-15443603D02*
X13012658Y-15481698D01*
X13012658Y-15481698D02*
X13012658Y-15557888D01*
X13012658Y-15557888D02*
X13022182Y-15576936D01*
X13022182Y-15576936D02*
X13031706Y-15586460D01*
X13031706Y-15586460D02*
X13050753Y-15595984D01*
X13050753Y-15595984D02*
X13088848Y-15595984D01*
X13088848Y-15595984D02*
X13107896Y-15586460D01*
X13107896Y-15586460D02*
X13117420Y-15576936D01*
X13117420Y-15576936D02*
X13126944Y-15557888D01*
X13126944Y-15557888D02*
X13126944Y-15510269D01*
X13126944Y-15510269D02*
X13117420Y-15491222D01*
X13117420Y-15491222D02*
X13107896Y-15481698D01*
X13107896Y-15481698D02*
X13088848Y-15472174D01*
X13088848Y-15472174D02*
X13050753Y-15472174D01*
X13050753Y-15472174D02*
X13031706Y-15481698D01*
X13031706Y-15481698D02*
X13022182Y-15491222D01*
X13022182Y-15491222D02*
X13012658Y-15510269D01*
X13203134Y-15395984D02*
X13203134Y-15434079D01*
X13279325Y-15395984D02*
X13279325Y-15434079D01*
X13574563Y-15672174D02*
X13565039Y-15662650D01*
X13565039Y-15662650D02*
X13545991Y-15634079D01*
X13545991Y-15634079D02*
X13536468Y-15615031D01*
X13536468Y-15615031D02*
X13526944Y-15586460D01*
X13526944Y-15586460D02*
X13517420Y-15538841D01*
X13517420Y-15538841D02*
X13517420Y-15500746D01*
X13517420Y-15500746D02*
X13526944Y-15453127D01*
X13526944Y-15453127D02*
X13536468Y-15424555D01*
X13536468Y-15424555D02*
X13545991Y-15405508D01*
X13545991Y-15405508D02*
X13565039Y-15376936D01*
X13565039Y-15376936D02*
X13574563Y-15367412D01*
X13688848Y-15395984D02*
X13707896Y-15395984D01*
X13707896Y-15395984D02*
X13726944Y-15405508D01*
X13726944Y-15405508D02*
X13736468Y-15415031D01*
X13736468Y-15415031D02*
X13745991Y-15434079D01*
X13745991Y-15434079D02*
X13755515Y-15472174D01*
X13755515Y-15472174D02*
X13755515Y-15519793D01*
X13755515Y-15519793D02*
X13745991Y-15557888D01*
X13745991Y-15557888D02*
X13736468Y-15576936D01*
X13736468Y-15576936D02*
X13726944Y-15586460D01*
X13726944Y-15586460D02*
X13707896Y-15595984D01*
X13707896Y-15595984D02*
X13688848Y-15595984D01*
X13688848Y-15595984D02*
X13669801Y-15586460D01*
X13669801Y-15586460D02*
X13660277Y-15576936D01*
X13660277Y-15576936D02*
X13650753Y-15557888D01*
X13650753Y-15557888D02*
X13641229Y-15519793D01*
X13641229Y-15519793D02*
X13641229Y-15472174D01*
X13641229Y-15472174D02*
X13650753Y-15434079D01*
X13650753Y-15434079D02*
X13660277Y-15415031D01*
X13660277Y-15415031D02*
X13669801Y-15405508D01*
X13669801Y-15405508D02*
X13688848Y-15395984D01*
X13993610Y-15595984D02*
X13993610Y-15395984D01*
X14079325Y-15595984D02*
X14079325Y-15491222D01*
X14079325Y-15491222D02*
X14069801Y-15472174D01*
X14069801Y-15472174D02*
X14050753Y-15462650D01*
X14050753Y-15462650D02*
X14022182Y-15462650D01*
X14022182Y-15462650D02*
X14003134Y-15472174D01*
X14003134Y-15472174D02*
X13993610Y-15481698D01*
X14203134Y-15595984D02*
X14184087Y-15586460D01*
X14184087Y-15586460D02*
X14174563Y-15576936D01*
X14174563Y-15576936D02*
X14165039Y-15557888D01*
X14165039Y-15557888D02*
X14165039Y-15500746D01*
X14165039Y-15500746D02*
X14174563Y-15481698D01*
X14174563Y-15481698D02*
X14184087Y-15472174D01*
X14184087Y-15472174D02*
X14203134Y-15462650D01*
X14203134Y-15462650D02*
X14231706Y-15462650D01*
X14231706Y-15462650D02*
X14250753Y-15472174D01*
X14250753Y-15472174D02*
X14260277Y-15481698D01*
X14260277Y-15481698D02*
X14269801Y-15500746D01*
X14269801Y-15500746D02*
X14269801Y-15557888D01*
X14269801Y-15557888D02*
X14260277Y-15576936D01*
X14260277Y-15576936D02*
X14250753Y-15586460D01*
X14250753Y-15586460D02*
X14231706Y-15595984D01*
X14231706Y-15595984D02*
X14203134Y-15595984D01*
X14384087Y-15595984D02*
X14365039Y-15586460D01*
X14365039Y-15586460D02*
X14355515Y-15567412D01*
X14355515Y-15567412D02*
X14355515Y-15395984D01*
X14536468Y-15586460D02*
X14517420Y-15595984D01*
X14517420Y-15595984D02*
X14479325Y-15595984D01*
X14479325Y-15595984D02*
X14460277Y-15586460D01*
X14460277Y-15586460D02*
X14450753Y-15567412D01*
X14450753Y-15567412D02*
X14450753Y-15491222D01*
X14450753Y-15491222D02*
X14460277Y-15472174D01*
X14460277Y-15472174D02*
X14479325Y-15462650D01*
X14479325Y-15462650D02*
X14517420Y-15462650D01*
X14517420Y-15462650D02*
X14536468Y-15472174D01*
X14536468Y-15472174D02*
X14545991Y-15491222D01*
X14545991Y-15491222D02*
X14545991Y-15510269D01*
X14545991Y-15510269D02*
X14450753Y-15529317D01*
X14622182Y-15586460D02*
X14641230Y-15595984D01*
X14641230Y-15595984D02*
X14679325Y-15595984D01*
X14679325Y-15595984D02*
X14698372Y-15586460D01*
X14698372Y-15586460D02*
X14707896Y-15567412D01*
X14707896Y-15567412D02*
X14707896Y-15557888D01*
X14707896Y-15557888D02*
X14698372Y-15538841D01*
X14698372Y-15538841D02*
X14679325Y-15529317D01*
X14679325Y-15529317D02*
X14650753Y-15529317D01*
X14650753Y-15529317D02*
X14631706Y-15519793D01*
X14631706Y-15519793D02*
X14622182Y-15500746D01*
X14622182Y-15500746D02*
X14622182Y-15491222D01*
X14622182Y-15491222D02*
X14631706Y-15472174D01*
X14631706Y-15472174D02*
X14650753Y-15462650D01*
X14650753Y-15462650D02*
X14679325Y-15462650D01*
X14679325Y-15462650D02*
X14698372Y-15472174D01*
X14945992Y-15519793D02*
X15098373Y-15519793D01*
X15022182Y-15595984D02*
X15022182Y-15443603D01*
X15431706Y-15462650D02*
X15431706Y-15595984D01*
X15384087Y-15386460D02*
X15336468Y-15529317D01*
X15336468Y-15529317D02*
X15460277Y-15529317D01*
X15679325Y-15586460D02*
X15698373Y-15595984D01*
X15698373Y-15595984D02*
X15736468Y-15595984D01*
X15736468Y-15595984D02*
X15755515Y-15586460D01*
X15755515Y-15586460D02*
X15765039Y-15567412D01*
X15765039Y-15567412D02*
X15765039Y-15557888D01*
X15765039Y-15557888D02*
X15755515Y-15538841D01*
X15755515Y-15538841D02*
X15736468Y-15529317D01*
X15736468Y-15529317D02*
X15707896Y-15529317D01*
X15707896Y-15529317D02*
X15688849Y-15519793D01*
X15688849Y-15519793D02*
X15679325Y-15500746D01*
X15679325Y-15500746D02*
X15679325Y-15491222D01*
X15679325Y-15491222D02*
X15688849Y-15472174D01*
X15688849Y-15472174D02*
X15707896Y-15462650D01*
X15707896Y-15462650D02*
X15736468Y-15462650D01*
X15736468Y-15462650D02*
X15755515Y-15472174D01*
X15879325Y-15595984D02*
X15860277Y-15586460D01*
X15860277Y-15586460D02*
X15850754Y-15567412D01*
X15850754Y-15567412D02*
X15850754Y-15395984D01*
X15984087Y-15595984D02*
X15965039Y-15586460D01*
X15965039Y-15586460D02*
X15955515Y-15576936D01*
X15955515Y-15576936D02*
X15945992Y-15557888D01*
X15945992Y-15557888D02*
X15945992Y-15500746D01*
X15945992Y-15500746D02*
X15955515Y-15481698D01*
X15955515Y-15481698D02*
X15965039Y-15472174D01*
X15965039Y-15472174D02*
X15984087Y-15462650D01*
X15984087Y-15462650D02*
X16012658Y-15462650D01*
X16012658Y-15462650D02*
X16031706Y-15472174D01*
X16031706Y-15472174D02*
X16041230Y-15481698D01*
X16041230Y-15481698D02*
X16050754Y-15500746D01*
X16050754Y-15500746D02*
X16050754Y-15557888D01*
X16050754Y-15557888D02*
X16041230Y-15576936D01*
X16041230Y-15576936D02*
X16031706Y-15586460D01*
X16031706Y-15586460D02*
X16012658Y-15595984D01*
X16012658Y-15595984D02*
X15984087Y-15595984D01*
X16107896Y-15462650D02*
X16184087Y-15462650D01*
X16136468Y-15395984D02*
X16136468Y-15567412D01*
X16136468Y-15567412D02*
X16145992Y-15586460D01*
X16145992Y-15586460D02*
X16165039Y-15595984D01*
X16165039Y-15595984D02*
X16184087Y-15595984D01*
X16241230Y-15586460D02*
X16260277Y-15595984D01*
X16260277Y-15595984D02*
X16298373Y-15595984D01*
X16298373Y-15595984D02*
X16317420Y-15586460D01*
X16317420Y-15586460D02*
X16326944Y-15567412D01*
X16326944Y-15567412D02*
X16326944Y-15557888D01*
X16326944Y-15557888D02*
X16317420Y-15538841D01*
X16317420Y-15538841D02*
X16298373Y-15529317D01*
X16298373Y-15529317D02*
X16269801Y-15529317D01*
X16269801Y-15529317D02*
X16250754Y-15519793D01*
X16250754Y-15519793D02*
X16241230Y-15500746D01*
X16241230Y-15500746D02*
X16241230Y-15491222D01*
X16241230Y-15491222D02*
X16250754Y-15472174D01*
X16250754Y-15472174D02*
X16269801Y-15462650D01*
X16269801Y-15462650D02*
X16298373Y-15462650D01*
X16298373Y-15462650D02*
X16317420Y-15472174D01*
X16393611Y-15672174D02*
X16403135Y-15662650D01*
X16403135Y-15662650D02*
X16422182Y-15634079D01*
X16422182Y-15634079D02*
X16431706Y-15615031D01*
X16431706Y-15615031D02*
X16441230Y-15586460D01*
X16441230Y-15586460D02*
X16450754Y-15538841D01*
X16450754Y-15538841D02*
X16450754Y-15500746D01*
X16450754Y-15500746D02*
X16441230Y-15453127D01*
X16441230Y-15453127D02*
X16431706Y-15424555D01*
X16431706Y-15424555D02*
X16422182Y-15405508D01*
X16422182Y-15405508D02*
X16403135Y-15376936D01*
X16403135Y-15376936D02*
X16393611Y-15367412D01*
D14*
X9964500Y-15733500D02*
X9964500Y-15803500D01*
X9929500Y-15768500D02*
X9999500Y-15768500D01*
D11*
X10298372Y-15659984D02*
X10317420Y-15659984D01*
X10317420Y-15659984D02*
X10336467Y-15669508D01*
X10336467Y-15669508D02*
X10345991Y-15679031D01*
X10345991Y-15679031D02*
X10355515Y-15698079D01*
X10355515Y-15698079D02*
X10365039Y-15736174D01*
X10365039Y-15736174D02*
X10365039Y-15783793D01*
X10365039Y-15783793D02*
X10355515Y-15821888D01*
X10355515Y-15821888D02*
X10345991Y-15840936D01*
X10345991Y-15840936D02*
X10336467Y-15850460D01*
X10336467Y-15850460D02*
X10317420Y-15859984D01*
X10317420Y-15859984D02*
X10298372Y-15859984D01*
X10298372Y-15859984D02*
X10279324Y-15850460D01*
X10279324Y-15850460D02*
X10269801Y-15840936D01*
X10269801Y-15840936D02*
X10260277Y-15821888D01*
X10260277Y-15821888D02*
X10250753Y-15783793D01*
X10250753Y-15783793D02*
X10250753Y-15736174D01*
X10250753Y-15736174D02*
X10260277Y-15698079D01*
X10260277Y-15698079D02*
X10269801Y-15679031D01*
X10269801Y-15679031D02*
X10279324Y-15669508D01*
X10279324Y-15669508D02*
X10298372Y-15659984D01*
X10450753Y-15840936D02*
X10460277Y-15850460D01*
X10460277Y-15850460D02*
X10450753Y-15859984D01*
X10450753Y-15859984D02*
X10441229Y-15850460D01*
X10441229Y-15850460D02*
X10450753Y-15840936D01*
X10450753Y-15840936D02*
X10450753Y-15859984D01*
X10526944Y-15659984D02*
X10660277Y-15659984D01*
X10660277Y-15659984D02*
X10574563Y-15859984D01*
X10774563Y-15659984D02*
X10793610Y-15659984D01*
X10793610Y-15659984D02*
X10812658Y-15669508D01*
X10812658Y-15669508D02*
X10822182Y-15679031D01*
X10822182Y-15679031D02*
X10831705Y-15698079D01*
X10831705Y-15698079D02*
X10841229Y-15736174D01*
X10841229Y-15736174D02*
X10841229Y-15783793D01*
X10841229Y-15783793D02*
X10831705Y-15821888D01*
X10831705Y-15821888D02*
X10822182Y-15840936D01*
X10822182Y-15840936D02*
X10812658Y-15850460D01*
X10812658Y-15850460D02*
X10793610Y-15859984D01*
X10793610Y-15859984D02*
X10774563Y-15859984D01*
X10774563Y-15859984D02*
X10755515Y-15850460D01*
X10755515Y-15850460D02*
X10745991Y-15840936D01*
X10745991Y-15840936D02*
X10736467Y-15821888D01*
X10736467Y-15821888D02*
X10726944Y-15783793D01*
X10726944Y-15783793D02*
X10726944Y-15736174D01*
X10726944Y-15736174D02*
X10736467Y-15698079D01*
X10736467Y-15698079D02*
X10745991Y-15679031D01*
X10745991Y-15679031D02*
X10755515Y-15669508D01*
X10755515Y-15669508D02*
X10774563Y-15659984D01*
X10965039Y-15659984D02*
X10984086Y-15659984D01*
X10984086Y-15659984D02*
X11003134Y-15669508D01*
X11003134Y-15669508D02*
X11012658Y-15679031D01*
X11012658Y-15679031D02*
X11022182Y-15698079D01*
X11022182Y-15698079D02*
X11031705Y-15736174D01*
X11031705Y-15736174D02*
X11031705Y-15783793D01*
X11031705Y-15783793D02*
X11022182Y-15821888D01*
X11022182Y-15821888D02*
X11012658Y-15840936D01*
X11012658Y-15840936D02*
X11003134Y-15850460D01*
X11003134Y-15850460D02*
X10984086Y-15859984D01*
X10984086Y-15859984D02*
X10965039Y-15859984D01*
X10965039Y-15859984D02*
X10945991Y-15850460D01*
X10945991Y-15850460D02*
X10936467Y-15840936D01*
X10936467Y-15840936D02*
X10926944Y-15821888D01*
X10926944Y-15821888D02*
X10917420Y-15783793D01*
X10917420Y-15783793D02*
X10917420Y-15736174D01*
X10917420Y-15736174D02*
X10926944Y-15698079D01*
X10926944Y-15698079D02*
X10936467Y-15679031D01*
X10936467Y-15679031D02*
X10945991Y-15669508D01*
X10945991Y-15669508D02*
X10965039Y-15659984D01*
X11117420Y-15859984D02*
X11117420Y-15726650D01*
X11117420Y-15745698D02*
X11126944Y-15736174D01*
X11126944Y-15736174D02*
X11145991Y-15726650D01*
X11145991Y-15726650D02*
X11174563Y-15726650D01*
X11174563Y-15726650D02*
X11193610Y-15736174D01*
X11193610Y-15736174D02*
X11203134Y-15755222D01*
X11203134Y-15755222D02*
X11203134Y-15859984D01*
X11203134Y-15755222D02*
X11212658Y-15736174D01*
X11212658Y-15736174D02*
X11231705Y-15726650D01*
X11231705Y-15726650D02*
X11260277Y-15726650D01*
X11260277Y-15726650D02*
X11279324Y-15736174D01*
X11279324Y-15736174D02*
X11288848Y-15755222D01*
X11288848Y-15755222D02*
X11288848Y-15859984D01*
X11384086Y-15859984D02*
X11384086Y-15726650D01*
X11384086Y-15745698D02*
X11393610Y-15736174D01*
X11393610Y-15736174D02*
X11412658Y-15726650D01*
X11412658Y-15726650D02*
X11441229Y-15726650D01*
X11441229Y-15726650D02*
X11460277Y-15736174D01*
X11460277Y-15736174D02*
X11469801Y-15755222D01*
X11469801Y-15755222D02*
X11469801Y-15859984D01*
X11469801Y-15755222D02*
X11479324Y-15736174D01*
X11479324Y-15736174D02*
X11498372Y-15726650D01*
X11498372Y-15726650D02*
X11526943Y-15726650D01*
X11526943Y-15726650D02*
X11545991Y-15736174D01*
X11545991Y-15736174D02*
X11555515Y-15755222D01*
X11555515Y-15755222D02*
X11555515Y-15859984D01*
X11945991Y-15650460D02*
X11774563Y-15907603D01*
X12203134Y-15659984D02*
X12222182Y-15659984D01*
X12222182Y-15659984D02*
X12241229Y-15669508D01*
X12241229Y-15669508D02*
X12250753Y-15679031D01*
X12250753Y-15679031D02*
X12260277Y-15698079D01*
X12260277Y-15698079D02*
X12269801Y-15736174D01*
X12269801Y-15736174D02*
X12269801Y-15783793D01*
X12269801Y-15783793D02*
X12260277Y-15821888D01*
X12260277Y-15821888D02*
X12250753Y-15840936D01*
X12250753Y-15840936D02*
X12241229Y-15850460D01*
X12241229Y-15850460D02*
X12222182Y-15859984D01*
X12222182Y-15859984D02*
X12203134Y-15859984D01*
X12203134Y-15859984D02*
X12184086Y-15850460D01*
X12184086Y-15850460D02*
X12174563Y-15840936D01*
X12174563Y-15840936D02*
X12165039Y-15821888D01*
X12165039Y-15821888D02*
X12155515Y-15783793D01*
X12155515Y-15783793D02*
X12155515Y-15736174D01*
X12155515Y-15736174D02*
X12165039Y-15698079D01*
X12165039Y-15698079D02*
X12174563Y-15679031D01*
X12174563Y-15679031D02*
X12184086Y-15669508D01*
X12184086Y-15669508D02*
X12203134Y-15659984D01*
X12355515Y-15840936D02*
X12365039Y-15850460D01*
X12365039Y-15850460D02*
X12355515Y-15859984D01*
X12355515Y-15859984D02*
X12345991Y-15850460D01*
X12345991Y-15850460D02*
X12355515Y-15840936D01*
X12355515Y-15840936D02*
X12355515Y-15859984D01*
X12488848Y-15659984D02*
X12507896Y-15659984D01*
X12507896Y-15659984D02*
X12526944Y-15669508D01*
X12526944Y-15669508D02*
X12536467Y-15679031D01*
X12536467Y-15679031D02*
X12545991Y-15698079D01*
X12545991Y-15698079D02*
X12555515Y-15736174D01*
X12555515Y-15736174D02*
X12555515Y-15783793D01*
X12555515Y-15783793D02*
X12545991Y-15821888D01*
X12545991Y-15821888D02*
X12536467Y-15840936D01*
X12536467Y-15840936D02*
X12526944Y-15850460D01*
X12526944Y-15850460D02*
X12507896Y-15859984D01*
X12507896Y-15859984D02*
X12488848Y-15859984D01*
X12488848Y-15859984D02*
X12469801Y-15850460D01*
X12469801Y-15850460D02*
X12460277Y-15840936D01*
X12460277Y-15840936D02*
X12450753Y-15821888D01*
X12450753Y-15821888D02*
X12441229Y-15783793D01*
X12441229Y-15783793D02*
X12441229Y-15736174D01*
X12441229Y-15736174D02*
X12450753Y-15698079D01*
X12450753Y-15698079D02*
X12460277Y-15679031D01*
X12460277Y-15679031D02*
X12469801Y-15669508D01*
X12469801Y-15669508D02*
X12488848Y-15659984D01*
X12631706Y-15679031D02*
X12641229Y-15669508D01*
X12641229Y-15669508D02*
X12660277Y-15659984D01*
X12660277Y-15659984D02*
X12707896Y-15659984D01*
X12707896Y-15659984D02*
X12726944Y-15669508D01*
X12726944Y-15669508D02*
X12736467Y-15679031D01*
X12736467Y-15679031D02*
X12745991Y-15698079D01*
X12745991Y-15698079D02*
X12745991Y-15717127D01*
X12745991Y-15717127D02*
X12736467Y-15745698D01*
X12736467Y-15745698D02*
X12622182Y-15859984D01*
X12622182Y-15859984D02*
X12745991Y-15859984D01*
X12812658Y-15659984D02*
X12945991Y-15659984D01*
X12945991Y-15659984D02*
X12860277Y-15859984D01*
X13107896Y-15659984D02*
X13069801Y-15659984D01*
X13069801Y-15659984D02*
X13050753Y-15669508D01*
X13050753Y-15669508D02*
X13041229Y-15679031D01*
X13041229Y-15679031D02*
X13022182Y-15707603D01*
X13022182Y-15707603D02*
X13012658Y-15745698D01*
X13012658Y-15745698D02*
X13012658Y-15821888D01*
X13012658Y-15821888D02*
X13022182Y-15840936D01*
X13022182Y-15840936D02*
X13031706Y-15850460D01*
X13031706Y-15850460D02*
X13050753Y-15859984D01*
X13050753Y-15859984D02*
X13088848Y-15859984D01*
X13088848Y-15859984D02*
X13107896Y-15850460D01*
X13107896Y-15850460D02*
X13117420Y-15840936D01*
X13117420Y-15840936D02*
X13126944Y-15821888D01*
X13126944Y-15821888D02*
X13126944Y-15774269D01*
X13126944Y-15774269D02*
X13117420Y-15755222D01*
X13117420Y-15755222D02*
X13107896Y-15745698D01*
X13107896Y-15745698D02*
X13088848Y-15736174D01*
X13088848Y-15736174D02*
X13050753Y-15736174D01*
X13050753Y-15736174D02*
X13031706Y-15745698D01*
X13031706Y-15745698D02*
X13022182Y-15755222D01*
X13022182Y-15755222D02*
X13012658Y-15774269D01*
X13203134Y-15659984D02*
X13203134Y-15698079D01*
X13279325Y-15659984D02*
X13279325Y-15698079D01*
X13574563Y-15936174D02*
X13565039Y-15926650D01*
X13565039Y-15926650D02*
X13545991Y-15898079D01*
X13545991Y-15898079D02*
X13536468Y-15879031D01*
X13536468Y-15879031D02*
X13526944Y-15850460D01*
X13526944Y-15850460D02*
X13517420Y-15802841D01*
X13517420Y-15802841D02*
X13517420Y-15764746D01*
X13517420Y-15764746D02*
X13526944Y-15717127D01*
X13526944Y-15717127D02*
X13536468Y-15688555D01*
X13536468Y-15688555D02*
X13545991Y-15669508D01*
X13545991Y-15669508D02*
X13565039Y-15640936D01*
X13565039Y-15640936D02*
X13574563Y-15631412D01*
X13736468Y-15726650D02*
X13736468Y-15859984D01*
X13688848Y-15650460D02*
X13641229Y-15793317D01*
X13641229Y-15793317D02*
X13765039Y-15793317D01*
X13993610Y-15859984D02*
X13993610Y-15659984D01*
X14079325Y-15859984D02*
X14079325Y-15755222D01*
X14079325Y-15755222D02*
X14069801Y-15736174D01*
X14069801Y-15736174D02*
X14050753Y-15726650D01*
X14050753Y-15726650D02*
X14022182Y-15726650D01*
X14022182Y-15726650D02*
X14003134Y-15736174D01*
X14003134Y-15736174D02*
X13993610Y-15745698D01*
X14203134Y-15859984D02*
X14184087Y-15850460D01*
X14184087Y-15850460D02*
X14174563Y-15840936D01*
X14174563Y-15840936D02*
X14165039Y-15821888D01*
X14165039Y-15821888D02*
X14165039Y-15764746D01*
X14165039Y-15764746D02*
X14174563Y-15745698D01*
X14174563Y-15745698D02*
X14184087Y-15736174D01*
X14184087Y-15736174D02*
X14203134Y-15726650D01*
X14203134Y-15726650D02*
X14231706Y-15726650D01*
X14231706Y-15726650D02*
X14250753Y-15736174D01*
X14250753Y-15736174D02*
X14260277Y-15745698D01*
X14260277Y-15745698D02*
X14269801Y-15764746D01*
X14269801Y-15764746D02*
X14269801Y-15821888D01*
X14269801Y-15821888D02*
X14260277Y-15840936D01*
X14260277Y-15840936D02*
X14250753Y-15850460D01*
X14250753Y-15850460D02*
X14231706Y-15859984D01*
X14231706Y-15859984D02*
X14203134Y-15859984D01*
X14384087Y-15859984D02*
X14365039Y-15850460D01*
X14365039Y-15850460D02*
X14355515Y-15831412D01*
X14355515Y-15831412D02*
X14355515Y-15659984D01*
X14536468Y-15850460D02*
X14517420Y-15859984D01*
X14517420Y-15859984D02*
X14479325Y-15859984D01*
X14479325Y-15859984D02*
X14460277Y-15850460D01*
X14460277Y-15850460D02*
X14450753Y-15831412D01*
X14450753Y-15831412D02*
X14450753Y-15755222D01*
X14450753Y-15755222D02*
X14460277Y-15736174D01*
X14460277Y-15736174D02*
X14479325Y-15726650D01*
X14479325Y-15726650D02*
X14517420Y-15726650D01*
X14517420Y-15726650D02*
X14536468Y-15736174D01*
X14536468Y-15736174D02*
X14545991Y-15755222D01*
X14545991Y-15755222D02*
X14545991Y-15774269D01*
X14545991Y-15774269D02*
X14450753Y-15793317D01*
X14622182Y-15850460D02*
X14641230Y-15859984D01*
X14641230Y-15859984D02*
X14679325Y-15859984D01*
X14679325Y-15859984D02*
X14698372Y-15850460D01*
X14698372Y-15850460D02*
X14707896Y-15831412D01*
X14707896Y-15831412D02*
X14707896Y-15821888D01*
X14707896Y-15821888D02*
X14698372Y-15802841D01*
X14698372Y-15802841D02*
X14679325Y-15793317D01*
X14679325Y-15793317D02*
X14650753Y-15793317D01*
X14650753Y-15793317D02*
X14631706Y-15783793D01*
X14631706Y-15783793D02*
X14622182Y-15764746D01*
X14622182Y-15764746D02*
X14622182Y-15755222D01*
X14622182Y-15755222D02*
X14631706Y-15736174D01*
X14631706Y-15736174D02*
X14650753Y-15726650D01*
X14650753Y-15726650D02*
X14679325Y-15726650D01*
X14679325Y-15726650D02*
X14698372Y-15736174D01*
X14774563Y-15936174D02*
X14784087Y-15926650D01*
X14784087Y-15926650D02*
X14803134Y-15898079D01*
X14803134Y-15898079D02*
X14812658Y-15879031D01*
X14812658Y-15879031D02*
X14822182Y-15850460D01*
X14822182Y-15850460D02*
X14831706Y-15802841D01*
X14831706Y-15802841D02*
X14831706Y-15764746D01*
X14831706Y-15764746D02*
X14822182Y-15717127D01*
X14822182Y-15717127D02*
X14812658Y-15688555D01*
X14812658Y-15688555D02*
X14803134Y-15669508D01*
X14803134Y-15669508D02*
X14784087Y-15640936D01*
X14784087Y-15640936D02*
X14774563Y-15631412D01*
X9970211Y-16103211D02*
X9970211Y-15961789D01*
X9828789Y-15961789D01*
X9828789Y-16103211D01*
X9970211Y-16103211D01*
X10250753Y-15943031D02*
X10260277Y-15933508D01*
X10260277Y-15933508D02*
X10279324Y-15923984D01*
X10279324Y-15923984D02*
X10326944Y-15923984D01*
X10326944Y-15923984D02*
X10345991Y-15933508D01*
X10345991Y-15933508D02*
X10355515Y-15943031D01*
X10355515Y-15943031D02*
X10365039Y-15962079D01*
X10365039Y-15962079D02*
X10365039Y-15981127D01*
X10365039Y-15981127D02*
X10355515Y-16009698D01*
X10355515Y-16009698D02*
X10241229Y-16123984D01*
X10241229Y-16123984D02*
X10365039Y-16123984D01*
X10450753Y-16104936D02*
X10460277Y-16114460D01*
X10460277Y-16114460D02*
X10450753Y-16123984D01*
X10450753Y-16123984D02*
X10441229Y-16114460D01*
X10441229Y-16114460D02*
X10450753Y-16104936D01*
X10450753Y-16104936D02*
X10450753Y-16123984D01*
X10631705Y-15923984D02*
X10593610Y-15923984D01*
X10593610Y-15923984D02*
X10574563Y-15933508D01*
X10574563Y-15933508D02*
X10565039Y-15943031D01*
X10565039Y-15943031D02*
X10545991Y-15971603D01*
X10545991Y-15971603D02*
X10536467Y-16009698D01*
X10536467Y-16009698D02*
X10536467Y-16085888D01*
X10536467Y-16085888D02*
X10545991Y-16104936D01*
X10545991Y-16104936D02*
X10555515Y-16114460D01*
X10555515Y-16114460D02*
X10574563Y-16123984D01*
X10574563Y-16123984D02*
X10612658Y-16123984D01*
X10612658Y-16123984D02*
X10631705Y-16114460D01*
X10631705Y-16114460D02*
X10641229Y-16104936D01*
X10641229Y-16104936D02*
X10650753Y-16085888D01*
X10650753Y-16085888D02*
X10650753Y-16038269D01*
X10650753Y-16038269D02*
X10641229Y-16019222D01*
X10641229Y-16019222D02*
X10631705Y-16009698D01*
X10631705Y-16009698D02*
X10612658Y-16000174D01*
X10612658Y-16000174D02*
X10574563Y-16000174D01*
X10574563Y-16000174D02*
X10555515Y-16009698D01*
X10555515Y-16009698D02*
X10545991Y-16019222D01*
X10545991Y-16019222D02*
X10536467Y-16038269D01*
X10774563Y-15923984D02*
X10793610Y-15923984D01*
X10793610Y-15923984D02*
X10812658Y-15933508D01*
X10812658Y-15933508D02*
X10822182Y-15943031D01*
X10822182Y-15943031D02*
X10831705Y-15962079D01*
X10831705Y-15962079D02*
X10841229Y-16000174D01*
X10841229Y-16000174D02*
X10841229Y-16047793D01*
X10841229Y-16047793D02*
X10831705Y-16085888D01*
X10831705Y-16085888D02*
X10822182Y-16104936D01*
X10822182Y-16104936D02*
X10812658Y-16114460D01*
X10812658Y-16114460D02*
X10793610Y-16123984D01*
X10793610Y-16123984D02*
X10774563Y-16123984D01*
X10774563Y-16123984D02*
X10755515Y-16114460D01*
X10755515Y-16114460D02*
X10745991Y-16104936D01*
X10745991Y-16104936D02*
X10736467Y-16085888D01*
X10736467Y-16085888D02*
X10726944Y-16047793D01*
X10726944Y-16047793D02*
X10726944Y-16000174D01*
X10726944Y-16000174D02*
X10736467Y-15962079D01*
X10736467Y-15962079D02*
X10745991Y-15943031D01*
X10745991Y-15943031D02*
X10755515Y-15933508D01*
X10755515Y-15933508D02*
X10774563Y-15923984D01*
X10965039Y-15923984D02*
X10984086Y-15923984D01*
X10984086Y-15923984D02*
X11003134Y-15933508D01*
X11003134Y-15933508D02*
X11012658Y-15943031D01*
X11012658Y-15943031D02*
X11022182Y-15962079D01*
X11022182Y-15962079D02*
X11031705Y-16000174D01*
X11031705Y-16000174D02*
X11031705Y-16047793D01*
X11031705Y-16047793D02*
X11022182Y-16085888D01*
X11022182Y-16085888D02*
X11012658Y-16104936D01*
X11012658Y-16104936D02*
X11003134Y-16114460D01*
X11003134Y-16114460D02*
X10984086Y-16123984D01*
X10984086Y-16123984D02*
X10965039Y-16123984D01*
X10965039Y-16123984D02*
X10945991Y-16114460D01*
X10945991Y-16114460D02*
X10936467Y-16104936D01*
X10936467Y-16104936D02*
X10926944Y-16085888D01*
X10926944Y-16085888D02*
X10917420Y-16047793D01*
X10917420Y-16047793D02*
X10917420Y-16000174D01*
X10917420Y-16000174D02*
X10926944Y-15962079D01*
X10926944Y-15962079D02*
X10936467Y-15943031D01*
X10936467Y-15943031D02*
X10945991Y-15933508D01*
X10945991Y-15933508D02*
X10965039Y-15923984D01*
X11117420Y-16123984D02*
X11117420Y-15990650D01*
X11117420Y-16009698D02*
X11126944Y-16000174D01*
X11126944Y-16000174D02*
X11145991Y-15990650D01*
X11145991Y-15990650D02*
X11174563Y-15990650D01*
X11174563Y-15990650D02*
X11193610Y-16000174D01*
X11193610Y-16000174D02*
X11203134Y-16019222D01*
X11203134Y-16019222D02*
X11203134Y-16123984D01*
X11203134Y-16019222D02*
X11212658Y-16000174D01*
X11212658Y-16000174D02*
X11231705Y-15990650D01*
X11231705Y-15990650D02*
X11260277Y-15990650D01*
X11260277Y-15990650D02*
X11279324Y-16000174D01*
X11279324Y-16000174D02*
X11288848Y-16019222D01*
X11288848Y-16019222D02*
X11288848Y-16123984D01*
X11384086Y-16123984D02*
X11384086Y-15990650D01*
X11384086Y-16009698D02*
X11393610Y-16000174D01*
X11393610Y-16000174D02*
X11412658Y-15990650D01*
X11412658Y-15990650D02*
X11441229Y-15990650D01*
X11441229Y-15990650D02*
X11460277Y-16000174D01*
X11460277Y-16000174D02*
X11469801Y-16019222D01*
X11469801Y-16019222D02*
X11469801Y-16123984D01*
X11469801Y-16019222D02*
X11479324Y-16000174D01*
X11479324Y-16000174D02*
X11498372Y-15990650D01*
X11498372Y-15990650D02*
X11526943Y-15990650D01*
X11526943Y-15990650D02*
X11545991Y-16000174D01*
X11545991Y-16000174D02*
X11555515Y-16019222D01*
X11555515Y-16019222D02*
X11555515Y-16123984D01*
X11945991Y-15914460D02*
X11774563Y-16171603D01*
X12203134Y-15923984D02*
X12222182Y-15923984D01*
X12222182Y-15923984D02*
X12241229Y-15933508D01*
X12241229Y-15933508D02*
X12250753Y-15943031D01*
X12250753Y-15943031D02*
X12260277Y-15962079D01*
X12260277Y-15962079D02*
X12269801Y-16000174D01*
X12269801Y-16000174D02*
X12269801Y-16047793D01*
X12269801Y-16047793D02*
X12260277Y-16085888D01*
X12260277Y-16085888D02*
X12250753Y-16104936D01*
X12250753Y-16104936D02*
X12241229Y-16114460D01*
X12241229Y-16114460D02*
X12222182Y-16123984D01*
X12222182Y-16123984D02*
X12203134Y-16123984D01*
X12203134Y-16123984D02*
X12184086Y-16114460D01*
X12184086Y-16114460D02*
X12174563Y-16104936D01*
X12174563Y-16104936D02*
X12165039Y-16085888D01*
X12165039Y-16085888D02*
X12155515Y-16047793D01*
X12155515Y-16047793D02*
X12155515Y-16000174D01*
X12155515Y-16000174D02*
X12165039Y-15962079D01*
X12165039Y-15962079D02*
X12174563Y-15943031D01*
X12174563Y-15943031D02*
X12184086Y-15933508D01*
X12184086Y-15933508D02*
X12203134Y-15923984D01*
X12355515Y-16104936D02*
X12365039Y-16114460D01*
X12365039Y-16114460D02*
X12355515Y-16123984D01*
X12355515Y-16123984D02*
X12345991Y-16114460D01*
X12345991Y-16114460D02*
X12355515Y-16104936D01*
X12355515Y-16104936D02*
X12355515Y-16123984D01*
X12555515Y-16123984D02*
X12441229Y-16123984D01*
X12498372Y-16123984D02*
X12498372Y-15923984D01*
X12498372Y-15923984D02*
X12479325Y-15952555D01*
X12479325Y-15952555D02*
X12460277Y-15971603D01*
X12460277Y-15971603D02*
X12441229Y-15981127D01*
X12679325Y-15923984D02*
X12698372Y-15923984D01*
X12698372Y-15923984D02*
X12717420Y-15933508D01*
X12717420Y-15933508D02*
X12726944Y-15943031D01*
X12726944Y-15943031D02*
X12736467Y-15962079D01*
X12736467Y-15962079D02*
X12745991Y-16000174D01*
X12745991Y-16000174D02*
X12745991Y-16047793D01*
X12745991Y-16047793D02*
X12736467Y-16085888D01*
X12736467Y-16085888D02*
X12726944Y-16104936D01*
X12726944Y-16104936D02*
X12717420Y-16114460D01*
X12717420Y-16114460D02*
X12698372Y-16123984D01*
X12698372Y-16123984D02*
X12679325Y-16123984D01*
X12679325Y-16123984D02*
X12660277Y-16114460D01*
X12660277Y-16114460D02*
X12650753Y-16104936D01*
X12650753Y-16104936D02*
X12641229Y-16085888D01*
X12641229Y-16085888D02*
X12631706Y-16047793D01*
X12631706Y-16047793D02*
X12631706Y-16000174D01*
X12631706Y-16000174D02*
X12641229Y-15962079D01*
X12641229Y-15962079D02*
X12650753Y-15943031D01*
X12650753Y-15943031D02*
X12660277Y-15933508D01*
X12660277Y-15933508D02*
X12679325Y-15923984D01*
X12822182Y-15943031D02*
X12831706Y-15933508D01*
X12831706Y-15933508D02*
X12850753Y-15923984D01*
X12850753Y-15923984D02*
X12898372Y-15923984D01*
X12898372Y-15923984D02*
X12917420Y-15933508D01*
X12917420Y-15933508D02*
X12926944Y-15943031D01*
X12926944Y-15943031D02*
X12936467Y-15962079D01*
X12936467Y-15962079D02*
X12936467Y-15981127D01*
X12936467Y-15981127D02*
X12926944Y-16009698D01*
X12926944Y-16009698D02*
X12812658Y-16123984D01*
X12812658Y-16123984D02*
X12936467Y-16123984D01*
X13107896Y-15990650D02*
X13107896Y-16123984D01*
X13060277Y-15914460D02*
X13012658Y-16057317D01*
X13012658Y-16057317D02*
X13136467Y-16057317D01*
X13203134Y-15923984D02*
X13203134Y-15962079D01*
X13279325Y-15923984D02*
X13279325Y-15962079D01*
X13574563Y-16200174D02*
X13565039Y-16190650D01*
X13565039Y-16190650D02*
X13545991Y-16162079D01*
X13545991Y-16162079D02*
X13536468Y-16143031D01*
X13536468Y-16143031D02*
X13526944Y-16114460D01*
X13526944Y-16114460D02*
X13517420Y-16066841D01*
X13517420Y-16066841D02*
X13517420Y-16028746D01*
X13517420Y-16028746D02*
X13526944Y-15981127D01*
X13526944Y-15981127D02*
X13536468Y-15952555D01*
X13536468Y-15952555D02*
X13545991Y-15933508D01*
X13545991Y-15933508D02*
X13565039Y-15904936D01*
X13565039Y-15904936D02*
X13574563Y-15895412D01*
X13736468Y-15923984D02*
X13698372Y-15923984D01*
X13698372Y-15923984D02*
X13679325Y-15933508D01*
X13679325Y-15933508D02*
X13669801Y-15943031D01*
X13669801Y-15943031D02*
X13650753Y-15971603D01*
X13650753Y-15971603D02*
X13641229Y-16009698D01*
X13641229Y-16009698D02*
X13641229Y-16085888D01*
X13641229Y-16085888D02*
X13650753Y-16104936D01*
X13650753Y-16104936D02*
X13660277Y-16114460D01*
X13660277Y-16114460D02*
X13679325Y-16123984D01*
X13679325Y-16123984D02*
X13717420Y-16123984D01*
X13717420Y-16123984D02*
X13736468Y-16114460D01*
X13736468Y-16114460D02*
X13745991Y-16104936D01*
X13745991Y-16104936D02*
X13755515Y-16085888D01*
X13755515Y-16085888D02*
X13755515Y-16038269D01*
X13755515Y-16038269D02*
X13745991Y-16019222D01*
X13745991Y-16019222D02*
X13736468Y-16009698D01*
X13736468Y-16009698D02*
X13717420Y-16000174D01*
X13717420Y-16000174D02*
X13679325Y-16000174D01*
X13679325Y-16000174D02*
X13660277Y-16009698D01*
X13660277Y-16009698D02*
X13650753Y-16019222D01*
X13650753Y-16019222D02*
X13641229Y-16038269D01*
X13993610Y-16123984D02*
X13993610Y-15923984D01*
X14079325Y-16123984D02*
X14079325Y-16019222D01*
X14079325Y-16019222D02*
X14069801Y-16000174D01*
X14069801Y-16000174D02*
X14050753Y-15990650D01*
X14050753Y-15990650D02*
X14022182Y-15990650D01*
X14022182Y-15990650D02*
X14003134Y-16000174D01*
X14003134Y-16000174D02*
X13993610Y-16009698D01*
X14203134Y-16123984D02*
X14184087Y-16114460D01*
X14184087Y-16114460D02*
X14174563Y-16104936D01*
X14174563Y-16104936D02*
X14165039Y-16085888D01*
X14165039Y-16085888D02*
X14165039Y-16028746D01*
X14165039Y-16028746D02*
X14174563Y-16009698D01*
X14174563Y-16009698D02*
X14184087Y-16000174D01*
X14184087Y-16000174D02*
X14203134Y-15990650D01*
X14203134Y-15990650D02*
X14231706Y-15990650D01*
X14231706Y-15990650D02*
X14250753Y-16000174D01*
X14250753Y-16000174D02*
X14260277Y-16009698D01*
X14260277Y-16009698D02*
X14269801Y-16028746D01*
X14269801Y-16028746D02*
X14269801Y-16085888D01*
X14269801Y-16085888D02*
X14260277Y-16104936D01*
X14260277Y-16104936D02*
X14250753Y-16114460D01*
X14250753Y-16114460D02*
X14231706Y-16123984D01*
X14231706Y-16123984D02*
X14203134Y-16123984D01*
X14384087Y-16123984D02*
X14365039Y-16114460D01*
X14365039Y-16114460D02*
X14355515Y-16095412D01*
X14355515Y-16095412D02*
X14355515Y-15923984D01*
X14536468Y-16114460D02*
X14517420Y-16123984D01*
X14517420Y-16123984D02*
X14479325Y-16123984D01*
X14479325Y-16123984D02*
X14460277Y-16114460D01*
X14460277Y-16114460D02*
X14450753Y-16095412D01*
X14450753Y-16095412D02*
X14450753Y-16019222D01*
X14450753Y-16019222D02*
X14460277Y-16000174D01*
X14460277Y-16000174D02*
X14479325Y-15990650D01*
X14479325Y-15990650D02*
X14517420Y-15990650D01*
X14517420Y-15990650D02*
X14536468Y-16000174D01*
X14536468Y-16000174D02*
X14545991Y-16019222D01*
X14545991Y-16019222D02*
X14545991Y-16038269D01*
X14545991Y-16038269D02*
X14450753Y-16057317D01*
X14622182Y-16114460D02*
X14641230Y-16123984D01*
X14641230Y-16123984D02*
X14679325Y-16123984D01*
X14679325Y-16123984D02*
X14698372Y-16114460D01*
X14698372Y-16114460D02*
X14707896Y-16095412D01*
X14707896Y-16095412D02*
X14707896Y-16085888D01*
X14707896Y-16085888D02*
X14698372Y-16066841D01*
X14698372Y-16066841D02*
X14679325Y-16057317D01*
X14679325Y-16057317D02*
X14650753Y-16057317D01*
X14650753Y-16057317D02*
X14631706Y-16047793D01*
X14631706Y-16047793D02*
X14622182Y-16028746D01*
X14622182Y-16028746D02*
X14622182Y-16019222D01*
X14622182Y-16019222D02*
X14631706Y-16000174D01*
X14631706Y-16000174D02*
X14650753Y-15990650D01*
X14650753Y-15990650D02*
X14679325Y-15990650D01*
X14679325Y-15990650D02*
X14698372Y-16000174D01*
X14774563Y-16200174D02*
X14784087Y-16190650D01*
X14784087Y-16190650D02*
X14803134Y-16162079D01*
X14803134Y-16162079D02*
X14812658Y-16143031D01*
X14812658Y-16143031D02*
X14822182Y-16114460D01*
X14822182Y-16114460D02*
X14831706Y-16066841D01*
X14831706Y-16066841D02*
X14831706Y-16028746D01*
X14831706Y-16028746D02*
X14822182Y-15981127D01*
X14822182Y-15981127D02*
X14812658Y-15952555D01*
X14812658Y-15952555D02*
X14803134Y-15933508D01*
X14803134Y-15933508D02*
X14784087Y-15904936D01*
X14784087Y-15904936D02*
X14774563Y-15895412D01*
M02*
